<?xml version="1.0" encoding="UTF-8" standalone="no"?>
<svg
   height="24"
   viewBox="0 -960 960 960"
   width="24"
   version="1.1"
   id="svg1"
   sodipodi:docname="blockTermin.svg"
   inkscape:version="1.4 (86a8ad7, 2024-10-11)"
   xmlns:inkscape="http://www.inkscape.org/namespaces/inkscape"
   xmlns:sodipodi="http://sodipodi.sourceforge.net/DTD/sodipodi-0.dtd"
   xmlns="http://www.w3.org/2000/svg"
   xmlns:svg="http://www.w3.org/2000/svg">
  <defs
     id="defs1" />
  <sodipodi:namedview
     id="namedview1"
     pagecolor="#ffffff"
     bordercolor="#000000"
     borderopacity="0.25"
     inkscape:showpageshadow="2"
     inkscape:pageopacity="0.0"
     inkscape:pagecheckerboard="0"
     inkscape:deskcolor="#d1d1d1"
     inkscape:zoom="34.875"
     inkscape:cx="12"
     inkscape:cy="12"
     inkscape:window-width="1920"
     inkscape:window-height="1017"
     inkscape:window-x="-8"
     inkscape:window-y="-8"
     inkscape:window-maximized="1"
     inkscape:current-layer="svg1" />
  <path
     d="M40-199v-200h80v120h720v-120h80v200H40Zm342-161v-34h-3q-13 20-35 31.5T294-351q-49 0-77-25.5T189-446q0-42 32.5-68.5T305-541q23 0 42.5 3.5T381-526v-14q0-27-18.5-43T312-599q-21 0-39.5 9T241-564l-43-32q19-27 48-41t67-14q62 0 95 29.5t33 85.5v176h-59Zm-66-134q-32 0-49 12.5T250-446q0 20 15 32.5t39 12.5q32 0 54.5-22.5T381-478q-14-8-32-12t-33-4Zm185 134v-401h62v113l-3 40h3q3-5 24-25.5t66-20.5q64 0 101 46t37 106q0 60-36.5 105.5T653-351q-41 0-62.5-18T563-397h-3v37h-59Zm143-238q-40 0-62 29.5T560-503q0 37 22 66t62 29q40 0 62.5-29t22.5-66q0-37-22.5-66T644-598Z"
     id="path1"
     style="fill:#ffffff" />
</svg>
