<!DOCTYPE svg PUBLIC "-//W3C//DTD SVG 1.1//EN" "http://www.w3.org/Graphics/SVG/1.1/DTD/svg11.dtd">
<!-- Uploaded to: SVG Repo, www.svgrepo.com, Transformed by: SVG Repo Mixer Tools -->
<svg fill="#ffffff" width="64px" height="64px" viewBox="0 0 1920 1920" xmlns="http://www.w3.org/2000/svg">
<g id="SVGRepo_bgCarrier" stroke-width="0"/>
<g id="SVGRepo_tracerCarrier" stroke-linecap="round" stroke-linejoin="round"/>
<g id="SVGRepo_iconCarrier"> <path d="M1800 1740c0 33-27 60-60 60h-420v-300h-120v300H720v-300H600v300H180c-33.12 0-60-27-60-60V180c0-33 26.88-60 60-60h420v300h120V120h480v300h120V120h420c33 0 60 27 60 60v1560ZM1740 0H180C80.76 0 0 80.76 0 180v1560c0 99.24 80.76 180 180 180h1560c99.24 0 180-80.76 180-180V180c0-99.24-80.76-180-180-180Zm-305.16 654.84-169.68-169.68L960 790.32 654.84 485.16 485.16 654.84 790.32 960l-305.16 305.16 169.68 169.68L960 1129.68l305.16 305.16 169.68-169.68L1129.68 960l305.16-305.16Z" fill-rule="evenodd"/> </g>
</svg>