<!DOCTYPE svg PUBLIC "-//W3C//DTD SVG 1.1//EN" "http://www.w3.org/Graphics/SVG/1.1/DTD/svg11.dtd">
<!-- Uploaded to: SVG Repo, www.svgrepo.com, Transformed by: SVG Repo Mixer Tools -->
<svg fill="#ffffff" width="64px" height="64px" viewBox="0 0 1920 1920" xmlns="http://www.w3.org/2000/svg" transform="rotate(0)">
<g id="SVGRepo_bgCarrier" stroke-width="0"/>
<g id="SVGRepo_tracerCarrier" stroke-linecap="round" stroke-linejoin="round"/>
<g id="SVGRepo_iconCarrier"> <path d="M1740 120H180c-33 0-60 26.88-60 60v1020h1680V180c0-33.12-27-60-60-60Zm60 1620v-420h-480v480h420c33 0 60-26.88 60-60Zm-600 60v-480H720v480h480Zm-1080-60c0 33.12 27 60 60 60h420v-480H120v420ZM0 180C0 80.76 80.76 0 180 0h1560c99.24 0 180 80.76 180 180v1560c0 99.24-80.76 180-180 180H180c-99.24 0-180-80.76-180-180V180Zm510 596.484v-240h330v-330h240v330h330v240h-330v330H840v-330H510Z" fill-rule="evenodd"/> </g>
</svg>