<?xml version="1.0" encoding="UTF-8" standalone="no"?>
<!-- Created with Inkscape (http://www.inkscape.org/) -->

<svg
   width="32"
   height="32"
   viewBox="0 0 32 32"
   version="1.1"
   id="svg1"
   inkscape:version="1.3.2 (091e20ef0f, 2023-11-25, custom)"
   sodipodi:docname="favicon.svg"
   xmlns:inkscape="http://www.inkscape.org/namespaces/inkscape"
   xmlns:sodipodi="http://sodipodi.sourceforge.net/DTD/sodipodi-0.dtd"
   xmlns="http://www.w3.org/2000/svg"
   xmlns:svg="http://www.w3.org/2000/svg">
  <sodipodi:namedview
     id="namedview1"
     pagecolor="#505050"
     bordercolor="#ffffff"
     borderopacity="1"
     inkscape:showpageshadow="0"
     inkscape:pageopacity="0"
     inkscape:pagecheckerboard="1"
     inkscape:deskcolor="#505050"
     inkscape:document-units="px"
     inkscape:zoom="23.112442"
     inkscape:cx="11.487319"
     inkscape:cy="17.090362"
     inkscape:window-width="1916"
     inkscape:window-height="1047"
     inkscape:window-x="0"
     inkscape:window-y="0"
     inkscape:window-maximized="1"
     inkscape:current-layer="layer3" />
  <defs
     id="defs1" />
  <g
     inkscape:groupmode="layer"
     id="layer3"
     inkscape:label="Layer 2">
    <circle
       style="display:inline;opacity:1;fill:#d98c45;stroke:#000000;stroke-width:0;stroke-linecap:round;stroke-linejoin:round;paint-order:fill markers stroke;fill-opacity:1"
       id="path2"
       cx="16"
       cy="16"
       r="16" />
  </g>
  <g
     inkscape:groupmode="layer"
     id="layer4"
     inkscape:label="Layer 3"
     style="display:inline" />
  <g
     inkscape:label="Layer 1"
     inkscape:groupmode="layer"
     id="layer1">
    <path
       style="display:none;opacity:0.97296;fill:#000000;stroke:#000000;stroke-width:0;stroke-linecap:round;stroke-linejoin:round;paint-order:fill markers stroke"
       id="path30"
       d="m 15.706933,7.4052846 c 0.06863,-0.072784 0.127486,-0.1522795 0.188565,-0.2311801 0.0504,-0.084173 0.104214,-0.170529 0.126819,-0.2674047 0.0063,-0.026997 0.01879,-0.1419551 0.02166,-0.1667205 C 16.065902,6.554004 16.038313,6.370701 15.9642,6.1997173 15.872308,5.977564 15.74579,5.7741285 15.585932,5.595217 15.377034,5.3696981 15.111483,5.21609 14.836667,5.085485 14.498427,4.92904 14.170892,4.8647967 13.802498,4.8328727 c -0.356812,-0.037398 -0.6908,0.00305 -1.03453,0.097573 -0.144823,0.047347 -0.288379,0.1021923 -0.420767,0.1785769 -0.54438,0.3140923 -0.891061,0.4482223 -1.283547,0.8062165 -0.190047,0.1778903 -0.265267,0.4116716 -0.324667,0.6567852 -0.03164,0.153176 -0.04806,0.3074214 -0.03196,0.4637134 0.005,0.048266 0.03334,0.1893064 0.04237,0.2360058 0.06109,0.2511989 0.177586,0.4826703 0.312982,0.7011513 0.161213,0.2478651 0.357107,0.4688419 0.554311,0.6880666 0.221293,0.2315665 0.441994,0.4637245 0.656152,0.7019237 0.1117,0.1253445 0.211782,0.259397 0.314097,0.3921354 0.03982,0.051666 0.08412,0.099907 0.122083,0.1529523 0.07578,0.1058752 0.15521,0.2477162 0.220658,0.3596182 0.117855,0.245409 0.228951,0.49551 0.312809,0.754921 0.03076,0.09515 0.07213,0.25563 0.0981,0.353261 0.09071,0.309405 0.13055,0.628187 0.148434,0.949027 0.0099,0.310956 -0.03401,0.618654 -0.0892,0.92363 -0.07462,0.338482 -0.194107,0.664499 -0.335639,0.980163 -0.169383,0.360748 -0.409211,0.678693 -0.669974,0.97736 -0.264364,0.29697 -0.578331,0.53984 -0.909562,0.756789 -0.629421,0.368715 0.523931,-0.300329 0.782589,-0.456077 0.04927,-0.02967 -0.102719,0.05184 -0.155023,0.07576 -0.164402,0.0752 -0.332781,0.134369 -0.504564,0.18987 -0.335199,0.0962 -0.668064,0.110181 -1.01115,0.05889 -0.190804,-0.03402 -0.379646,-0.09386 -0.546001,-0.195407 -0.064407,-0.03932 -0.1428801,-0.101986 -0.2028419,-0.148004 -0.090696,-0.08742 -0.2100645,-0.193124 -0.2692897,-0.30643 -0.01,-0.01912 -0.055288,-0.14388 -0.063088,-0.165028 -0.037373,-0.16956 -0.010647,-0.332456 0.040698,-0.495084 0.055112,-0.146838 0.140217,-0.276693 0.2440598,-0.393173 0.050434,-0.05467 0.1107507,-0.09802 0.1682712,-0.144489 0.01164,-0.0094 0.048565,-0.03278 0.034011,-0.0293 -0.072843,0.0174 -0.1421325,0.04727 -0.2128179,0.07202 -0.1091998,0.03824 -0.2178755,0.07795 -0.3268133,0.116926 l -0.070375,0.02759 v 0 C 9.2527786,14.23049 9.1124951,14.288427 8.9737242,14.34984 8.711943,14.465692 8.619905,14.482504 8.479513,14.69549 8.39155,14.830349 8.3122261,14.97188 8.2765266,15.130684 c -0.044184,0.187375 -0.068316,0.379556 -0.019806,0.569104 0.049224,0.257418 0.1464619,0.396065 0.3350272,0.57477 0.2302634,0.200419 0.4966901,0.343115 0.7972684,0.406786 0.1012515,0.01519 -0.1025339,-0.0036 0,0 0.3069965,0.127514 0.8418188,0.150332 1.0895178,0.08679 0.243454,0.06776 1.037904,0.02639 1.250735,-0.13466 0.837167,-0.633476 0,0 0.837167,-0.633476 0.800771,-0.678784 0.84607,-0.894034 1.078815,-1.185675 0.244379,-0.309556 0.319378,-0.711534 0.481393,-1.072834 0.137647,-0.320093 0.249046,-0.649737 0.304454,-0.994963 0.05898,-0.311798 0.101303,-0.628395 0.06989,-0.946228 -0.02699,-0.325305 -0.09543,-0.641676 -0.200303,-0.951206 C 14.164146,10.475206 14.011059,10.106674 13.819834,9.7570048 13.676538,9.469362 13.771341,9.6539808 13.620973,9.3744899 13.58934,9.3156939 13.562236,9.254292 13.526726,9.1977531 13.438583,9.0574105 13.315732,8.9234447 13.210495,8.7957151 12.999108,8.5561346 12.778989,8.3245674 12.567084,8.0854677 12.375848,7.8727028 12.185859,7.6552305 12.043774,7.4054369 11.925428,7.1910514 11.81147,6.973199 11.764211,6.7302535 11.723135,6.5133928 11.723448,6.2913203 11.775169,6.0758409 11.83801,5.835691 11.932935,5.6547359 12.1191,5.4856783 c 0.306917,-0.2616009 0.840195,-0.51523 -0.636757,0.3202742 -0.04271,0.024159 0.08393,-0.050954 0.127263,-0.07397 0.113878,-0.060487 0.172716,-0.081766 0.292475,-0.1318602 0.05268,-0.018106 0.104569,-0.038709 0.158043,-0.054319 0.280028,-0.081747 0.575203,-0.097537 0.865026,-0.087464 0.338972,0.031765 0.678194,0.087972 0.987841,0.2370456 0.07399,0.035863 0.207923,0.098806 0.279102,0.1410949 0.158961,0.094442 0.304442,0.2124586 0.438535,0.3390417 0.156477,0.163121 0.31592,0.3275469 0.39631,0.5435792 0.0459,0.1582953 0.09711,0.3152466 0.0888,0.4826861 -0.0088,0.1212688 -0.03838,0.2460322 -0.09656,0.3534955 -0.04783,0.080114 -0.115985,0.149543 -0.189463,0.2067594 z"
       sodipodi:nodetypes="ccsccccccsccccccccccsccccccscccccccccsccccsscccccccscccccccssccccccsscsccscccccc" />
    <path
       style="display:none;opacity:0.97296;fill:#000000;stroke:#000000;stroke-width:0;stroke-linecap:round;stroke-linejoin:round;paint-order:fill markers stroke"
       id="path31"
       d="m 14.575397,15.68545 c 0.158189,-0.04023 0.319134,-0.06742 0.478491,-0.102508 0.286004,-0.05489 0.57288,-0.104895 0.85915,-0.158365 0.326611,-0.06352 0.648539,-0.145293 0.967049,-0.240991 0.348487,-0.109447 0.688411,-0.244311 1.023922,-0.388199 0.590402,-0.270761 1.16431,-0.588072 1.698327,-0.957811 0.258639,-0.177786 0.498544,-0.383176 0.713569,-0.611678 0.151221,-0.158678 0.271444,-0.334713 0.327722,-0.54738 0.03148,-0.20754 -0.02422,-0.372946 -0.113732,-0.556487 -0.06856,-0.105636 -0.152748,-0.204664 -0.253661,-0.281214 -0.03859,-0.02927 -0.117448,-0.07192 -0.159726,-0.09577 -0.194703,-0.08397 -0.396893,-0.09785 -0.605086,-0.07877 -0.133209,0.02081 -0.267007,0.05813 -0.384401,0.126543 -1.169808,0.681764 -0.830906,0.3938 -1.248191,0.758951 -0.146128,0.142211 -0.276361,0.300065 -0.389633,0.469419 -0.120439,0.172394 -0.205312,0.365926 -0.291381,0.556859 -0.0897,0.220069 -0.163977,0.446075 -0.233663,0.673149 -0.06797,0.260563 -0.133974,0.521954 -0.193508,0.784559 -0.06029,0.264061 -0.135654,0.525557 -0.174438,0.793892 -0.02891,0.252857 -0.0011,0.458325 0.06593,0.700831 0.08735,0.23603 0.195118,0.379824 0.397943,0.52747 0.276807,0.179112 0.595924,0.192228 0.915069,0.193814 0.481656,-0.0193 0.938572,-0.178217 1.386812,-0.342039 0.07589,-0.03029 0.422208,-0.164635 0.490255,-0.207557 0.247096,-0.155857 0.475232,-0.340265 0.720246,-0.499374 0.06746,-0.0438 0.143732,-0.07223 0.215598,-0.108348 0,0 0.05902,-0.04723 0.05902,-0.04723 v 0 c -0.522976,0.263077 0.03094,0.01626 0.03194,-0.16073 10e-4,-0.184421 -0.506231,0.429581 -0.50346,0.229431 -0.414501,0.161253 -0.841209,0.299433 -1.28849,0.326912 -0.292663,0.0054 -0.550614,-0.02006 -0.811718,-0.162952 -0.172632,-0.104194 -0.337855,-0.215395 -0.424276,-0.405622 -0.08298,-0.195864 -0.117377,-0.404899 -0.0913,-0.617481 0.03378,-0.257014 0.07974,-0.511591 0.140503,-0.763747 0.06558,-0.263401 0.126221,-0.528024 0.213444,-0.785564 0.06685,-0.223442 0.139142,-0.445868 0.239637,-0.656892 0.08797,-0.188387 0.189177,-0.369229 0.309292,-0.539263 0.116236,-0.156909 0.23598,-0.312818 0.392792,-0.432096 0.394111,-0.290084 0.07439,-0.05 -0.918907,0.513678 -0.02982,0.01692 0.05721,-0.03787 0.0868,-0.05519 0.08423,-0.04932 0.173506,-0.08716 0.268851,-0.10911 0.180149,-0.03439 0.367486,-0.04581 0.540541,0.02667 0.150128,0.07201 0.283923,0.167659 0.376817,0.308858 0.08646,0.145538 0.127056,0.290689 0.08738,0.459668 -0.04859,0.161687 -0.126105,0.310411 -0.230992,0.443476 -0.165228,0.193677 -0.345317,0.372304 -0.553896,0.520087 -0.350458,0.238627 -0.13731,0.08824 0.531041,-0.286313 0.04982,-0.02792 -0.09781,0.05901 -0.147454,0.08724 -0.0833,0.04736 -0.230465,0.125673 -0.315764,0.167212 -0.05283,0.02573 -0.10678,0.04911 -0.16017,0.07367 -0.331999,0.146407 -0.668509,0.282293 -1.014134,0.393564 -0.316756,0.09951 -0.638619,0.182451 -0.963803,0.249699 -0.292493,0.06434 -0.585742,0.125823 -0.880896,0.176807 -0.148865,0.02174 -0.296289,0.05164 -0.445026,0.07396 z" />
    <path
       id="path32"
       style="display:none;opacity:0.97296;fill:#000000;stroke:#000000;stroke-width:0;stroke-linecap:round;stroke-linejoin:round;paint-order:fill markers stroke"
       d="m 11.513672,18.03125 -0.81836,0.822266 c 0.0025,0.02227 0.0017,0.04484 0.0078,0.06641 0.0077,0.02743 0.02236,0.05372 0.0332,0.08008 0.05377,0.130672 0.03516,0.08446 0.02734,0.06641 0.006,0.01188 0.02477,0.05442 0.07031,0.158203 0.04958,0.112976 0.07706,0.19164 0.121094,0.308594 0.171283,0.43184 0.255023,0.892877 0.330078,1.349609 0.07953,0.571538 0.09618,1.148564 0.08203,1.72461 -0.01005,0.631385 -0.119401,1.254423 -0.263672,1.867187 -0.115673,0.506611 -0.315943,0.986056 -0.517578,1.462891 -0.06512,0.145482 -0.13059,0.290774 -0.197266,0.435547 -0.03896,0.0846 -0.07566,0.157721 -0.08789,0.25 0.02412,0.02715 0.04023,0.06493 0.07227,0.08203 0.03103,0.01656 0.5793,0.118316 0.604389,0.09367 0.616669,-1.136433 0.359791,-0.814605 0.643658,-1.490149 0.127683,-0.315224 0.226403,-0.6408 0.322265,-0.966797 0.111204,-0.371532 0.19343,-0.750846 0.308594,-1.121094 0.06386,-0.19204 0.140971,-0.378865 0.240235,-0.554687 0.141911,-0.09292 0.289691,-0.162295 0.447265,-0.228516 0.291493,-0.103706 0.600821,-0.116028 0.900391,-0.03906 0.05551,0.01426 0.1094,0.03357 0.164062,0.05078 0.191497,0.08278 0.361409,0.213342 0.498047,0.371093 0.07633,0.08813 0.102156,0.144055 0.160156,0.244141 0.12787,0.279719 0.162919,0.586761 0.171875,0.890625 -0.0029,0.287847 -0.04005,0.573252 -0.08398,0.857422 -0.03976,0.243941 -0.08304,0.487051 -0.113281,0.732422 0.0015,0.07121 -0.02195,0.142019 -0.02344,0.21289 -7.82e-4,0.03734 0.0044,0.07413 0.0078,0.111329 0.0107,0.119254 0.02429,0.236933 0.04101,0.355468 0.03794,0.211446 0.100672,0.38564 0.230469,0.556641 0.09086,0.119924 0.23258,0.16565 0.371094,0.207031 0.04364,0.0028 0.129858,0.04029 0.171875,0.01758 0.110844,-0.0599 0.318257,-0.326475 0.332031,-0.341797 0.07111,-0.08256 0.14178,-0.165489 0.212891,-0.248046 l 0.04492,-0.06055 c 0.06025,-0.07849 0.119437,-0.155882 0.179687,-0.234375 0.0681,-0.09435 0.141294,-0.185882 0.205078,-0.283203 0.01225,-0.01868 0.02476,-0.04216 0.02344,-0.06445 -5.52e-4,-0.0093 -0.0182,-0.0061 -0.02734,-0.0078 -0.0418,-0.0077 -0.08313,0.0038 -0.125,-0.0039 -0.115826,-0.0042 -0.222538,-0.02788 -0.318359,-0.09766 -0.115325,-0.129426 -0.180821,-0.292647 -0.208985,-0.46289 -0.01442,-0.08969 -0.02286,-0.128977 -0.02539,-0.220703 -0.004,-0.145385 0.02078,-0.289232 0.0332,-0.433594 0.03044,-0.236934 0.06373,-0.473692 0.0918,-0.710937 0.03099,-0.283558 0.0578,-0.56788 0.03711,-0.853516 -0.02477,-0.326438 -0.0711,-0.637238 -0.234375,-0.927734 -0.029,-0.04597 -0.05374,-0.09294 -0.08594,-0.136719 -0.176566,-0.240103 -0.4339,-0.386463 -0.714843,-0.472657 -0.06207,-0.01612 -0.122599,-0.03463 -0.185547,-0.04687 -0.338582,-0.06589 -0.685117,-0.01737 -1.013672,0.07422 -0.0622,0.02173 -0.126846,0.04068 -0.1875,0.06641 -0.551096,0.233728 -0.901435,0.201094 -1.288658,0.646471 0.03059,-0.275013 0.0036,-0.05551 0.01913,-0.332017 0.01456,-0.583136 0.01039,-1.167583 -0.08984,-1.744141 -0.02497,-0.151535 -0.05721,-0.361098 -0.08789,-0.511719 -0.06041,-0.29658 -0.155173,-0.584096 -0.230468,-0.876953 -0.07411,-0.237013 -0.03408,-0.108399 -0.105469,-0.332031 -0.02867,-0.0898 -0.07244,-0.238873 -0.128906,-0.31836 -0.0111,-0.01563 -0.02847,-0.02653 -0.04297,-0.03906 z"
       sodipodi:nodetypes="cccccscccccscsccccccccsccccscccccccccsscccccccccccccccccscsscc" />
    <path
       style="display:none;opacity:0.97296;fill:#000000;stroke:#000000;stroke-width:0;stroke-linecap:round;stroke-linejoin:round;paint-order:fill markers stroke"
       id="path33"
       d="m 17.70964,19.151174 c 0.01619,0.199779 0.08548,0.39341 0.152654,0.581553 0.168143,0.461343 0.250978,0.945457 0.323622,1.427935 0.08438,0.555513 0.120391,1.115859 0.153905,1.67593 0.02832,0.562205 0.02589,1.125283 -0.01081,1.686955 -0.02305,0.486594 -0.119866,0.963511 -0.224413,1.43841 -0.07418,0.285793 -0.166124,0.566789 -0.247326,0.850639 -0.01118,0.09156 -0.114744,0.215402 -0.06358,0.309607 0.0088,0.01621 0.02335,0.02883 0.03502,0.04324 0.03117,0.01982 0.05815,0.04801 0.0935,0.05944 0.01942,0.0063 0.04651,0.0049 0.06061,-0.0096 0.77746,-0.793906 0.968469,-0.74171 1.156839,-1.38046 0.06955,-0.265629 0.11362,-0.536285 0.149806,-0.80783 0.04289,-0.380132 0.08078,-0.760834 0.0941,-1.143107 0.0333,-0.458564 0.0152,-0.917652 -0.0053,-1.376155 -0.01921,-0.433887 -0.09626,-0.861288 -0.167794,-1.28898 -0.05951,-0.349835 -0.12356,-0.698909 -0.188923,-1.047764 -0.05806,-0.263276 -0.113893,-0.526938 -0.166828,-0.791235 -0.03874,-0.158397 -0.06866,-0.318814 -0.10723,-0.477246 -4.24e-4,-0.01713 -0.0054,-0.03474 -0.0013,-0.0514 0.01146,-0.0459 0.07401,-0.108079 0.105052,-0.140686 0.01925,-0.02021 0.07998,-0.07803 0.06081,-0.05776 -0.262805,0.277928 -0.527846,0.553855 -0.791769,0.830782 0.244136,-0.224248 0.556691,-0.351535 0.86957,-0.457543 0.3266,-0.102478 0.663614,-0.177834 1.008098,-0.186889 0.07,-0.0018 0.140045,0.0016 0.210068,0.0024 0.303105,0.03152 0.622407,0.0738 0.891921,0.223073 0.04701,0.02604 0.08991,0.05851 0.134861,0.08776 0.199141,0.159629 0.357923,0.368876 0.45375,0.60268 0.01815,0.04428 0.02943,0.09094 0.04415,0.136405 0.08137,0.298491 0.06653,0.51799 -0.0174,0.811756 -0.08127,0.264757 -0.228728,0.499361 -0.39195,0.722922 -0.06634,0.08148 -0.08106,0.101884 -0.150505,0.178324 -0.02329,0.02563 -0.09532,0.100623 -0.07134,0.0756 1.61543,-1.686491 1.151776,-1.175338 0.789646,-0.836354 -0.493938,0.430153 -1.000883,0.871814 -1.359906,1.415152 -0.139806,0.225136 -0.184424,0.435978 -0.204969,0.694904 -0.0088,0.162931 0.004,0.325081 0.01723,0.487284 0.0049,0.06075 0.0057,0.121925 0.01422,0.182303 0.01713,0.121362 0.0537,0.238007 0.08632,0.355847 0.07462,0.242118 0.170287,0.473956 0.312572,0.686608 0.08474,0.126648 0.128279,0.170078 0.227167,0.284463 0.139282,0.157315 0.300185,0.30566 0.488541,0.407104 0.03458,0.01862 0.205278,0.09265 0.245765,0.110389 0.069,0.03386 0.147105,0.04045 0.218694,0.06625 0.02858,0.0103 0.05311,0.03015 0.08228,0.03875 0.07975,0.02353 0.172125,0.01982 0.253422,0.01185 0.287496,-0.147266 0.4336,-0.638634 0.68824,-0.657411 l 0.04681,-0.0576 v 0 c -0.257727,0.01959 0.361136,-0.414331 0.384772,-0.641942 -0.07452,-0.0095 -0.154245,-0.01087 -0.229304,-0.0054 -0.03788,0.0027 -0.07494,0.01409 -0.112918,0.01486 -0.06278,0.0013 -0.154273,-0.02026 -0.214318,-0.03205 -0.275176,-0.06993 -0.523329,-0.203773 -0.723551,-0.401919 -0.09529,-0.107659 -0.130662,-0.140395 -0.21102,-0.260826 -0.09398,-0.140841 -0.09135,-0.157385 -0.165251,-0.310084 -0.113248,-0.233998 -0.05102,-0.08088 -0.139141,-0.327313 -0.07055,-0.241518 -0.03128,-0.09085 -0.08308,-0.331098 -0.01092,-0.05063 -0.02636,-0.100439 -0.03382,-0.15165 -0.02232,-0.15325 -0.01401,-0.310688 -2.22e-4,-0.464051 0.03367,-0.216424 0.08552,-0.428919 0.219382,-0.60995 0.305294,-0.378287 0.86308,-0.910791 -0.82924,0.845062 -0.01856,0.01926 0.03734,-0.03835 0.057,-0.05656 0.04246,-0.03931 0.08966,-0.07363 0.130862,-0.114296 0.526085,-0.440918 1.000959,-0.945393 1.408929,-1.491271 0.15539,-0.233504 0.280528,-0.486612 0.35176,-0.756842 0.06696,-0.317954 0.07193,-0.558515 -0.04741,-0.867537 -0.02731,-0.06146 -0.09768,-0.224276 -0.131054,-0.280934 -0.113897,-0.19337 -0.282206,-0.353963 -0.452773,-0.499542 -0.05179,-0.03185 -0.101264,-0.06754 -0.155358,-0.09555 -0.299379,-0.154983 -0.642634,-0.205381 -0.977342,-0.212981 -0.07534,-1.13e-4 -0.150747,-0.0034 -0.22602,-3.38e-4 -0.375634,0.01536 -0.606726,0.01889 -1.136305,0.09601 -0.304179,0.117197 -0.35854,0.181078 -1.056587,0.370441 -0.316858,0.324457 -0.56007,0.815838 -0.874291,1.142701 -0.0606,0.06304 0.01321,0.156485 0.0027,0.24451 -0.0069,0.058 0.0048,0.07631 0.02241,0.125622 0.04491,0.147392 0.10504,0.290261 0.145438,0.439115 0.07998,0.249887 0.141669,0.504095 0.191241,0.761301 0.07866,0.338135 0.1545,0.677042 0.212628,1.01916 0.0694,0.42992 0.114462,0.863554 0.137488,1.298169 0.02286,0.466007 0.01678,0.933178 -0.04277,1.396765 -0.05643,0.404354 -0.104748,0.810398 -0.188443,1.210573 -0.0607,0.288971 -0.120407,0.582698 -0.249257,0.851695 -0.032,0.06215 -0.05703,0.115859 -0.09611,0.173635 -0.0154,0.02278 -0.06948,0.08543 -0.05026,0.06557 0.343975,-0.355516 0.683268,-0.715271 1.024902,-1.072907 0.0043,0.01311 0.0052,0.02773 0.01278,0.03934 0.01675,0.02563 0.03943,0.04711 0.05915,0.07068 0.0052,0.0058 0.0082,0.01478 0.01571,0.01739 0.01145,0.004 0.0049,-0.02317 0.0062,-0.03492 0.0066,-0.05827 0.01447,-0.116568 0.02622,-0.174084 0.05272,-0.250225 0.09216,-0.503388 0.124995,-0.756709 0.07616,-0.459754 0.126324,-0.923815 0.139132,-1.389537 0.0073,-0.550805 0.0034,-1.101528 -0.04818,-1.6506 -0.03709,-0.563535 -0.08316,-1.126979 -0.155061,-1.687415 -0.07186,-0.506897 -0.168645,-1.009588 -0.245953,-1.51564 -0.03169,-0.194457 -0.06449,-0.402683 -0.170669,-0.574417 z"
       sodipodi:nodetypes="cccccccsccccccccccccscccscscscccscccccscscscsccccsccsccsscssccsscccccccccccscccccccccsccccsccccccccc" />
    <path
       style="opacity:0.97296;fill:#000000;stroke:#000000;stroke-width:0;stroke-linecap:round;stroke-linejoin:round;paint-order:fill markers stroke"
       id="path3"
       d="m 16.728511,4.6133373 c -0.0018,-0.072129 -0.05792,-0.1221556 -0.08282,-0.1838989 -0.01075,-0.026666 -0.01032,-0.056801 -0.01972,-0.083976 C 16.609281,4.2972064 16.567011,4.224472 16.542941,4.180465 16.453842,4.0095949 16.329294,3.8607436 16.200105,3.7190525 16.073639,3.5785739 15.907172,3.4790558 15.744915,3.3844694 15.583315,3.2840997 15.40844,3.202956 15.229965,3.1367741 15.071722,3.0769854 14.909802,3.0358937 14.740661,3.0288756 c -0.163387,-0.0066 -0.326445,0.00277 -0.487815,0.028569 -0.151374,0.027731 -0.298397,0.072108 -0.439669,0.1326789 -0.807653,0.3690708 -0.129086,0.056595 -2.197717,1.2565895 -0.07799,0.045241 -0.145754,0.11696 -0.208873,0.18023 -0.09196,0.090833 -0.17099,0.1927667 -0.242758,0.3000461 -0.07415,0.1154233 -0.110988,0.2427193 -0.158529,0.3695907 -0.03886,0.1243379 -0.09014,0.2455621 -0.116391,0.3733577 -0.02829,0.1209515 -0.03885,0.2409933 -0.01823,0.3636018 0.01024,0.1335264 0.02527,0.2671233 0.04909,0.3991081 0.02164,0.1342136 0.05237,0.2652538 0.07806,0.3984509 0.03056,0.1238701 0.07399,0.2471836 0.09242,0.3730815 0.02876,0.1110027 0.06102,0.2192415 0.106053,0.3248417 0.03408,0.1077649 0.09339,0.2054337 0.138594,0.3092642 0.04885,0.096833 0.08006,0.2011857 0.137817,0.2945049 0.05061,0.1092246 0.102714,0.2177431 0.154078,0.3267901 0.06872,0.108386 0.09469,0.234474 0.144309,0.351063 0.0577,0.138158 0.09688,0.280227 0.131456,0.425635 0.04528,0.153706 0.100156,0.304098 0.155204,0.454461 0.05523,0.168923 0.09942,0.3402903 0.150972,0.5103763 0.0329,0.160987 0.07672,0.317324 0.09881,0.48059 0.01717,0.14657 0.04596,0.28983 0.05527,0.43719 0.0035,0.15229 0.03092,0.300021 0.0259,0.45298 0.0063,0.131284 0.0057,0.262015 0.0057,0.39314 0.0022,0.118781 0.0047,0.237592 -0.0011,0.356644 0.0055,0.118424 -0.0089,0.237008 -0.0043,0.355079 -0.01105,0.13519 -0.02486,0.271021 -0.05583,0.403114 -0.03099,0.156986 -0.08223,0.310099 -0.140061,0.459156 -0.05693,0.174102 -0.158206,0.328323 -0.253178,0.483446 -0.100233,0.15872 -0.22462,0.300798 -0.345746,0.443807 -0.11015,0.129826 -0.2397,0.24007 -0.36294,0.356758 -0.112293,0.09784 -0.228916,0.190949 -0.349568,0.278243 -0.136302,0.09106 -0.276446,0.175548 -0.41824,0.257645 -0.8759409,0.450017 -1.8052679,1.032767 2.289459,-1.329852 0.01805,-0.01042 -0.0358,0.02138 -0.05409,0.03138 -0.03577,0.01957 -0.08804,0.04471 -0.124031,0.0624 -0.125221,0.06096 -0.258764,0.09391 -0.394553,0.119405 -0.125227,0.05018 -0.257893,0.0321 -0.386473,0.04972 -0.117284,0.0087 -0.229184,0.02471 -0.346062,0.01453 -0.119651,-0.0079 -0.23844,-0.02799 -0.350347,-0.07203 -0.113952,-0.01715 -0.19612,-0.100324 -0.298522,-0.141924 -0.08426,-0.06721 -0.178837,-0.126374 -0.246297,-0.21364 -0.07883,-0.09494 -0.117378,-0.209987 -0.201845,-0.300134 -0.06492,-0.09986 -0.128815,-0.202332 -0.183559,-0.308672 -0.06641,-0.07578 -0.06185,-0.189656 -0.07145,-0.286027 -0.0097,-0.115095 0.0096,-0.236874 0.0281,-0.351846 0.0048,-0.09428 0.03091,-0.181355 0.06428,-0.268726 0.0445,-0.08624 0.09478,-0.169096 0.152316,-0.247313 0.04045,-0.05966 0.08479,-0.117426 0.130213,-0.173532 0.04614,-0.05931 0.1085,-0.101183 0.172073,-0.139503 1.030894,-0.545355 -3.0571918,1.778162 -2.1196319,1.228909 0.059,-0.02862 0.113459,-0.06371 0.174147,-0.08848 0.05273,-0.01547 0.10776,-0.02188 0.161564,-0.03363 0.086,10e-4 0.131365,-0.02544 0.207924,-0.07172 0.338387,-0.232687 0.666439,-0.478142 1.0098579,-0.703584 0,0 0.126155,-0.08331 0.126155,-0.08331 v 0 c 0.308761,-0.237594 0.616913,-0.476018 0.920151,-0.720658 0.107187,-0.105566 0.01947,-0.05036 -0.05306,-0.05635 -0.06543,-0.0047 -0.129117,0.0063 -0.193991,0.01318 -0.0742,0.0028 -0.145669,0.0099 -0.213724,0.04275 -0.9263239,0.349692 -1.8075649,0.856856 -2.5677759,1.49038 -0.07105,0.06826 -0.1391133,0.13866 -0.2031362,0.213649 -0.069311,0.07801 -0.1345098,0.157671 -0.1850119,0.249578 -0.043479,0.09228 -0.089778,0.183581 -0.1232216,0.280056 -0.052682,0.119591 -0.093106,0.245039 -0.1221255,0.372434 -0.022073,0.139092 -0.040459,0.278018 -0.060283,0.416977 -0.012761,0.145843 0.016692,0.282325 0.02646,0.426246 0.027016,0.136851 0.057702,0.271387 0.1058214,0.402409 0.029664,0.144456 0.1151428,0.256559 0.1967832,0.377161 0.083953,0.109252 0.1526477,0.235386 0.2692066,0.31367 0.09281,0.100499 0.229116,0.139032 0.342434,0.213046 0.133064,0.05058 0.264859,0.10501 0.405065,0.132341 0.151663,0.02338 0.302871,0.04055 0.454896,0.0075 0.178609,-0.02081 0.350672,-0.0858 0.529189,-0.109961 0.178626,-0.05232 0.3562299,-0.108756 0.5323219,-0.169114 1.035639,-0.367147 1.96889,-0.995961 2.86684,-1.625203 0.103624,-0.0743 0.203856,-0.154244 0.295873,-0.242609 0.09746,-0.08939 0.19535,-0.178333 0.280655,-0.279921 0.108602,-0.113282 0.205512,-0.236874 0.300422,-0.361735 0.115649,-0.149556 0.216872,-0.307917 0.312437,-0.47099 0.09906,-0.173299 0.182463,-0.354463 0.253893,-0.540803 0.05119,-0.164018 0.09868,-0.328796 0.123818,-0.499104 0.0165,-0.145091 0.04306,-0.289029 0.03847,-0.436121 0.01052,-0.120539 -0.005,-0.242112 -0.0026,-0.363222 -0.0084,-0.118349 -0.0083,-0.236838 -0.01252,-0.355031 -0.0074,-0.13093 -0.01732,-0.261607 -0.02799,-0.392536 -0.02558,-0.150158 -0.02274,-0.300743 -0.04422,-0.4511603 -0.01844,-0.154774 -0.02631,-0.312122 -0.0717,-0.462087 -0.04681,-0.16285 -0.06986,-0.330628 -0.132141,-0.488321 -0.05238,-0.171574 -0.114548,-0.340031 -0.177891,-0.507728 -0.05115,-0.152288 -0.10545,-0.3033704 -0.171426,-0.450037 C 14.026332,7.8887221 13.968149,7.7549933 13.918686,7.6155518 13.876001,7.4912819 13.804301,7.3796351 13.769795,7.2519338 13.721585,7.1377843 13.668834,7.0271247 13.613364,6.9165321 13.575285,6.814665 13.512075,6.7272157 13.466033,6.6302643 c -0.04919,-0.094846 -0.0863,-0.1939572 -0.128485,-0.2911861 -0.03262,-0.1010839 -0.06842,-0.2011908 -0.0967,-0.303437 -0.04749,-0.1139563 -0.06879,-0.2407906 -0.09504,-0.3614052 -0.03419,-0.1240422 -0.05361,-0.2514471 -0.07322,-0.3785902 -0.01427,-0.1238039 -0.03702,-0.2460958 -0.03465,-0.3711417 0.01498,-0.1038271 0.02817,-0.2079804 0.0572,-0.308936 0.03653,-0.113986 0.06418,-0.2315585 0.118834,-0.3392425 0.05054,-0.1154758 0.118554,-0.2258447 0.20303,-0.3194596 0.07729,-0.090781 0.158807,-0.1770309 0.255077,-0.2483207 0.04972,-0.036095 0.100212,-0.07203 0.15353,-0.1027551 0.01807,-0.010414 0.07338,-0.039675 0.05531,-0.029262 -2.107522,1.2143708 -2.680513,1.5676965 -1.963547,1.1265704 0.128578,-0.070409 0.257224,-0.1409388 0.400734,-0.1765332 0.146885,-0.040338 0.295938,-0.073299 0.44925,-0.072489 0.155094,0.00183 0.309876,0.00242 0.460644,0.044711 0.17843,0.047466 0.351089,0.1080688 0.518168,0.1866834 0.158093,0.085785 0.303854,0.1848685 0.454192,0.2824714 0.165443,0.1066186 0.327879,0.2171966 0.487472,0.3323702 0.03113,0.023223 0.120461,0.091075 0.154655,0.1118514 0.02654,0.016128 0.05741,0.024945 0.0826,0.043115 0.05449,0.039305 0.08977,0.1075404 0.158524,0.1293166 z" />
    <path
       style="opacity:0.97296;fill:#000000;stroke:#000000;stroke-width:0;stroke-linecap:round;stroke-linejoin:round;paint-order:fill markers stroke"
       id="path4"
       d="m 16.505417,12.757932 c 0.02428,0.04711 0.07072,0.07131 0.09424,0.11946 0.008,0.01642 0.0082,0.03614 0.01716,0.05207 0.01617,0.02876 0.04218,0.05088 0.0608,0.07812 0.0509,0.07501 0.121344,0.127423 0.185502,0.189626 0.06283,0.03988 0.126795,0.06829 0.193068,0.09996 0.03376,0.008 0.06802,0.04877 0.102657,0.05163 0.100824,0.0083 0.01532,-0.02296 0.08005,0.0049 0.07113,0.0022 0.14327,0.01116 0.214008,0.02357 0.07319,-0.0016 0.145946,0.01044 0.217944,0.0042 0.08268,-0.0046 0.165512,0.0032 0.247988,-0.0042 0.08001,-0.01211 0.157312,0.01594 0.238327,0.01103 0.08929,0.0035 0.173109,-0.03237 0.261721,-0.03161 0.09149,-0.0057 0.18579,-0.01768 0.275255,-0.03933 0.09206,-0.02335 0.182472,-0.0525 0.272303,-0.08331 0.100632,-0.03582 0.200255,-0.07667 0.297898,-0.120151 0.104912,-0.04065 0.20897,-0.0853 0.310288,-0.134363 0.116226,-0.05661 0.232656,-0.113952 0.347377,-0.173799 0.633492,-0.363432 1.285856,-0.696111 1.891642,-1.103954 0.09586,-0.07506 0.187337,-0.154433 0.276504,-0.237293 0.08869,-0.08486 0.169434,-0.176748 0.249895,-0.269262 0.07334,-0.100048 0.113259,-0.211728 0.169708,-0.321118 0.06251,-0.105929 0.08816,-0.226994 0.138592,-0.337894 0.04317,-0.104815 0.04643,-0.215562 0.05892,-0.325534 0.01049,-0.100518 0.03219,-0.199424 0.04964,-0.2988811 0.0083,-0.129986 0.0038,-0.259662 -0.0084,-0.389418 -0.0022,-0.131047 -0.0349,-0.247933 -0.0744,-0.371375 -0.04797,-0.111579 -0.123809,-0.2028496 -0.216718,-0.2801786 -0.102575,-0.06745 -0.213357,-0.125771 -0.329236,-0.16693 -0.123151,-0.04769 -0.250193,-0.04399 -0.379454,-0.046 -0.136178,0.0065 -0.26656,0.04581 -0.397183,0.08089 -0.883217,0.3237906 -1.725795,0.8049696 -2.455955,1.3964887 -0.106021,0.09605 -0.202117,0.202995 -0.296944,0.309996 -0.104598,0.119886 -0.193108,0.251696 -0.286177,0.380056 -0.08693,0.112475 -0.144996,0.241816 -0.200948,0.371397 -0.05794,0.119935 -0.13023,0.232997 -0.179579,0.356871 -0.05043,0.09857 -0.08018,0.204811 -0.11181,0.310405 -0.0432,0.117142 -0.0739,0.23808 -0.11095,0.356993 -0.04068,0.12234 -0.07335,0.247732 -0.100676,0.373743 -0.02985,0.129188 -0.068,0.255557 -0.09518,0.385255 -0.04201,0.120601 -0.04729,0.248481 -0.07877,0.371421 -0.01801,0.11857 -0.02016,0.238767 -0.04036,0.357085 -0.0027,0.09743 -0.01665,0.19383 -0.02491,0.290876 0.0011,0.09997 -0.01863,0.199972 -0.01641,0.299788 8.93e-4,0.113884 -0.0089,0.22416 0.0041,0.337762 0.01976,0.115089 0.04131,0.226879 0.07825,0.337631 0.01545,0.09742 0.05338,0.186489 0.09226,0.276206 0.04045,0.07918 0.08665,0.155472 0.13968,0.226819 0.04694,0.06764 0.11083,0.121336 0.161347,0.185936 0.06209,0.0511 0.121697,0.104122 0.182662,0.156286 0.07323,0.04001 0.145189,0.07959 0.222662,0.110886 0.08707,0.03761 0.180148,0.04348 0.272041,0.06053 0.121128,0.02317 0.243001,-0.0056 0.363982,-0.01657 0.118386,-0.0141 0.234177,-0.04146 0.350735,-0.06507 0.119927,-0.02879 0.238052,-0.06653 0.353946,-0.108718 0.120781,-0.03644 0.235499,-0.08908 0.351115,-0.138829 0.122979,-0.05354 0.241283,-0.116854 0.360293,-0.178515 0.957635,-0.471854 1.851394,-1.051148 2.758144,-1.607634 0.08119,-0.07689 0.21439,-0.102655 0.286946,-0.187595 -0.345606,0.08882 -0.676811,0.22827 -1.011661,0.350323 0,0 -0.14106,0.05438 -0.14106,0.05438 v 0 c -0.459632,0.186472 -0.921924,0.367164 -1.373584,0.572522 -0.13031,0.06778 -0.252513,0.14841 -0.376097,0.227651 -0.05645,0.03771 -0.11305,0.07363 -0.171902,0.107521 -0.0201,0.01158 -0.08052,0.04613 -0.06043,0.03453 2.364079,-1.365351 3.089604,-1.797068 2.263042,-1.305617 -0.113487,0.06729 -0.23038,0.12839 -0.346462,0.191027 -0.113812,0.05832 -0.23037,0.111099 -0.346848,0.163855 -0.105892,0.04166 -0.211878,0.08174 -0.320316,0.116465 -0.112217,0.03798 -0.227564,0.0672 -0.343282,0.09256 -0.10552,0.02612 -0.213109,0.03802 -0.318888,0.06255 -0.07175,0.0072 -0.144714,-0.007 -0.215964,-0.01581 -0.05964,-0.01151 -0.122338,-0.02557 -0.173668,-0.05909 -0.05811,-0.02207 -0.118832,-0.05209 -0.158959,-0.10088 -0.05752,-0.03919 -0.100477,-0.09309 -0.145724,-0.145272 -0.04384,-0.05383 -0.08909,-0.105683 -0.118726,-0.169484 -0.0376,-0.0701 -0.06422,-0.145932 -0.09512,-0.219004 -0.02105,-0.0971 -0.04246,-0.194973 -0.0402,-0.294756 -0.0022,-0.102446 -0.008,-0.203538 0.0041,-0.305482 0.01061,-0.09546 0.003,-0.19268 0.02401,-0.28736 0.01057,-0.09707 0.0098,-0.194831 0.01863,-0.291775 -0.002,-0.111339 0.02079,-0.219768 0.04261,-0.328459 0.01153,-0.119895 0.05647,-0.233055 0.06674,-0.353441 0.02949,-0.124534 0.04903,-0.250527 0.07712,-0.375512 0.02763,-0.116619 0.05159,-0.234269 0.07382,-0.351983 0.0217,-0.10903 0.05247,-0.21633 0.074,-0.325594 0.02978,-0.09349 0.06622,-0.184587 0.08912,-0.280094 0.03544,-0.09592 0.04871,-0.198987 0.09538,-0.291231 0.06542,-0.114861 0.139157,-0.2242441 0.212234,-0.3343341 0.08569,-0.124554 0.18755,-0.237711 0.291879,-0.346944 0.09251,-0.09549 0.187579,-0.189278 0.304745,-0.254687 0.815434,-0.4686396 -2.948092,1.7081511 -1.819755,1.0484351 0.111495,-0.05272 0.229293,-0.0908 0.3488,-0.121061 0.104631,-0.02452 0.214603,-0.03859 0.321495,-0.02343 0.106093,0.01601 0.209768,0.0328 0.306169,0.08323 0.08597,0.03922 0.159912,0.08733 0.224475,0.157531 0.07679,0.06125 0.153964,0.13203 0.207734,0.213293 0.04459,0.08356 0.08648,0.169816 0.104005,0.263191 0.0094,0.0833 0.02048,0.167336 0.0066,0.250921 -0.01544,0.09895 -0.04682,0.191497 -0.06434,0.290669 -0.01058,0.104096 -0.07755,0.192902 -0.110084,0.291217 -0.04803,0.10425 -0.11539,0.194947 -0.188466,0.2829 -0.05594,0.08032 -0.126038,0.151745 -0.200427,0.215001 -0.08549,0.07488 -0.173714,0.14761 -0.271429,0.206064 -0.04652,0.03098 -0.09458,0.05855 -0.142647,0.08704 -0.0147,0.0087 -0.05868,0.03502 -0.04387,0.02651 1.577915,-0.906366 2.021715,-1.149223 1.46847,-0.845979 -0.115965,0.06542 -0.23139,0.131289 -0.351149,0.189518 -0.104374,0.04854 -0.208402,0.09752 -0.312469,0.146677 -0.08345,0.03233 -0.166973,0.06308 -0.250726,0.09463 -0.08589,0.03322 -0.171624,0.06623 -0.259555,0.09361 -0.08894,0.02691 -0.176706,0.05351 -0.268569,0.06959 -0.0909,0.01725 -0.183199,0.02045 -0.273091,0.04361 -0.08278,0.01254 -0.170276,0.03597 -0.253103,0.02279 -0.07648,-0.0098 -0.154241,9.05e-4 -0.231039,-0.0066 -0.06975,-0.0099 -0.142068,0.0049 -0.21307,-0.003 -0.07506,0.0059 -0.154037,0.01124 -0.227838,0.0014 -0.01395,0.0016 -0.0279,0.0033 -0.04185,0.005 -0.0038,-0.005 -0.0052,-0.01342 -0.01129,-0.01492 -0.03495,-0.0087 -0.08158,0.01634 -0.117418,3.4e-5 -0.05571,-0.01332 -0.111803,-0.035 -0.159143,-0.06757 -0.0667,-0.02827 -0.122327,-0.08298 -0.173073,-0.133366 -0.0205,-0.02257 -0.03436,-0.05077 -0.05557,-0.07267 -0.01228,-0.01268 -0.03051,-0.01849 -0.04288,-0.03107 -0.03537,-0.03597 -0.03594,-0.08388 -0.06398,-0.123737 z" />
    <path
       style="opacity:0.97296;fill:#000000;stroke:#000000;stroke-width:0;stroke-linecap:round;stroke-linejoin:round;paint-order:fill markers stroke"
       id="path7"
       d="m 9.4124767,18.683053 c -0.1536847,0.0816 -0.1840942,0.233715 -0.111226,0.367329 0.09484,0.181755 0.198016,0.360293 0.246902,0.560608 0.05816,0.191616 0.127398,0.379091 0.164951,0.576103 0.02437,0.195883 0.07178,0.388751 0.08622,0.585439 0.02991,0.202837 0.02547,0.408008 0.0456,0.611467 0.01178,0.213538 0.03033,0.429155 0.01925,0.643163 -1.15e-4,0.208575 -0.0013,0.416427 -0.0049,0.625224 0.01147,0.237365 -0.0066,0.475885 -0.02052,0.713062 -0.01468,0.225517 -0.02271,0.449619 -0.04677,0.67452 -0.05444,0.245142 -0.07017,0.497106 -0.12024,0.742728 -0.03468,0.247535 -0.08433,0.492049 -0.129059,0.737667 -0.05434,0.197009 -0.0866,0.399803 -0.144924,0.595577 -0.04138,0.157525 -0.08819,0.315176 -0.1408165,0.469677 -0.055621,0.148411 -0.1084795,0.297648 -0.1609638,0.447097 -0.031159,0.136736 -0.078357,0.268522 -0.1238271,0.400875 -0.03914,0.116921 -0.105219,0.377019 -0.1504159,0.491756 -0.029044,0.07331 0.108329,0.191519 0.058091,0.259294 0.050238,-0.06777 0,0 0,0 0.2153193,1.257435 2.1807686,-0.402372 2.2540806,-1.309974 0.06694,-0.129075 0.114732,-0.265157 0.162888,-0.401832 0.0587,-0.17686 0.122055,-0.3514 0.172463,-0.530875 0.06027,-0.197614 0.133953,-0.389653 0.204888,-0.583629 0.06579,-0.208705 0.155551,-0.409051 0.239958,-0.610761 0.0851,-0.212786 0.194869,-0.413879 0.309551,-0.611808 0.101094,-0.174891 0.216411,-0.34111 0.328462,-0.509092 0.08997,-0.155662 0.207998,-0.29256 0.300527,-0.446508 0.105087,-0.157156 0.225959,-0.302387 0.341251,-0.451907 0.114699,-0.127581 0.221248,-0.261745 0.342893,-0.382824 0.09892,-0.100051 0.206442,-0.191461 0.321093,-0.272923 0.780089,-0.486054 1.859633,-1.073403 -1.941629,1.117532 0.07305,-0.05118 0.151278,-0.08914 0.236723,-0.114526 0.104855,-0.02993 0.209508,-0.02875 0.316597,-0.01613 0.07133,0.02297 0.14869,0.03126 0.217276,0.06134 0.04928,0.02667 0.108717,0.05264 0.143864,0.09679 0.04458,0.05642 0.07529,0.12554 0.0991,0.193076 0.03852,0.08833 0.03029,0.184485 0.0479,0.278351 0.0061,0.120207 0.02487,0.240581 0.02152,0.361675 0.0036,0.150913 -0.03287,0.300362 -0.03431,0.449816 -0.01986,0.137916 -0.03538,0.275012 -0.06403,0.411522 -0.02311,0.142724 -0.06181,0.280622 -0.104572,0.41865 -0.03454,0.138961 -0.06855,0.278557 -0.106579,0.416759 -0.03138,0.137277 -0.08807,0.266587 -0.129573,0.400644 -0.03995,0.12405 -0.100359,0.239382 -0.149698,0.359744 -0.06148,0.107847 -0.106327,0.224773 -0.165037,0.333628 -0.06074,0.109432 -0.116304,0.220538 -0.185153,0.325535 -0.06063,0.102948 -0.115935,0.208745 -0.173062,0.313645 -0.0424,0.105477 -0.0987,0.203816 -0.140693,0.309557 -0.04938,0.07551 -0.06692,0.15504 -0.0852,0.240657 0.0015,0.06913 -0.02299,0.137007 -0.01796,0.205273 -0.02512,0.05857 -0.0065,0.118614 -0.01121,0.178063 0.01505,0.08284 0.05452,0.157655 0.07485,0.239171 0.024,0.06732 0.059,0.127204 0.09042,0.191023 0.03567,0.04125 0.06968,0.08145 0.106632,0.121937 0.06003,0.04098 0.116734,0.07988 0.190974,0.08738 0.06551,0.0098 0.135278,-0.0083 0.200369,-0.02174 0.100068,-0.02952 0.326245,0.124901 0.777932,-0.13037 l 0.260825,-0.164749 c 0.658773,-0.355378 0.751154,-1.352584 0.732584,-1.39489 -0.02883,-0.05128 -0.03505,-0.09445 -0.0157,-0.149814 -8.81e-4,-0.05233 0.02302,-0.103306 0.0085,-0.156502 0.01533,-0.05514 0.01146,-0.115507 0.042,-0.167226 0.02431,-0.06507 0.06521,-0.123992 0.07911,-0.193847 0.04779,-0.0985 0.08712,-0.20129 0.148442,-0.292598 0.05134,-0.101376 0.107052,-0.200491 0.162708,-0.299522 0.05392,-0.113357 0.120688,-0.21896 0.172113,-0.333188 0.0565,-0.117885 0.123869,-0.230157 0.163496,-0.355903 0.04964,-0.119312 0.08072,-0.245757 0.119312,-0.368654 0.0449,-0.133238 0.07285,-0.271582 0.117402,-0.405026 0.04259,-0.144182 0.08526,-0.287618 0.119021,-0.434135 0.02506,-0.143456 0.05361,-0.284971 0.07577,-0.428792 0.01481,-0.137611 0.0322,-0.27536 0.02427,-0.41387 0.02279,-0.153567 0.01519,-0.312328 0.02501,-0.467767 -0.0024,-0.133405 9.08e-4,-0.266353 -0.01806,-0.39823 -0.0067,-0.115769 -0.04392,-0.225957 -0.07783,-0.335309 -0.03826,-0.09534 -0.0733,-0.188711 -0.140812,-0.269384 -0.06122,-0.0714 -0.108947,-0.150218 -0.198074,-0.193626 -0.09303,-0.04802 -0.184763,-0.09214 -0.291884,-0.100237 -0.118744,-0.02542 -0.240403,-0.05684 -0.362197,-0.05268 -0.09397,10e-4 -0.189198,-0.005 -0.276987,0.03665 -1.241578,0.04362 -1.748073,0.844677 -2.479465,1.474029 -0.101247,0.09532 -0.20171,0.19129 -0.287052,0.301666 -0.102054,0.128835 -0.214345,0.249413 -0.306365,0.386061 -0.120204,0.150931 -0.226675,0.310605 -0.339899,0.466887 -0.113379,0.145879 -0.200175,0.308795 -0.307758,0.458852 -0.105292,0.166819 -0.201687,0.338794 -0.2898563,0.515209 -0.101869,0.207612 -0.202734,0.415643 -0.291471,0.629315 -0.08764,0.207447 -0.162488,0.419221 -0.245977,0.62822 -0.06984,0.197782 -0.137252,0.39539 -0.2095322,0.592282 -0.066848,0.174934 -0.1913326,0.417373 -0.2707829,0.587199 -0.2972054,0.525181 1.5908054,-0.433395 2.1961544,-0.716903 0.01172,-0.0053 0.0054,0.02511 0.0086,0.03756 1.59e-4,6.31e-4 -9.21e-4,-0.0552 0.0095,-0.04587 0.0066,-0.06051 0.0095,-0.122538 0.02502,-0.181387 0.02748,-0.113781 0.06367,-0.224964 0.09436,-0.33789 0.03496,-0.133334 0.0699,-0.266615 0.124298,-0.393797 0.04575,-0.145685 0.09219,-0.291025 0.135931,-0.437447 0.05016,-0.162542 0.102977,-0.323446 0.132338,-0.491289 0.02853,-0.193326 0.07502,-0.384276 0.08856,-0.579946 0.04357,-0.245556 0.07746,-0.492589 0.1213,-0.738256 0.03013,-0.249495 0.09698,-0.494904 0.10722,-0.747032 0.188558,-0.264014 0.066,-0.831841 0.08922,-1.426847 0.0039,-0.211102 0.01049,-0.421594 -0.0041,-0.632233 -0.02272,-0.215757 -0.01285,-0.434142 -0.03132,-0.650357 -0.01009,-0.207982 -0.05405,-0.412501 -0.099,-0.615469 -0.05861,-0.186235 -0.112901,-0.373222 -0.19911,-0.549661 -0.0772,-0.190631 -0.117573,-0.393408 -0.215648,-0.575872 -0.111068,-0.182421 -0.261101,-0.217519 -0.47657,-0.310651 -0.08427,-0.140252 -0.735053,-0.184679 -1.015183,0.0022 z"
       sodipodi:nodetypes="cccccccccccccccccccccccccccccccccccccccccccccccccccccccccccccccccccccccccccccccccccccccccccscccccccccccccccccc" />
    <path
       style="opacity:0.97296;fill:#000000;stroke:#000000;stroke-width:0;stroke-linecap:round;stroke-linejoin:round;paint-order:fill markers stroke"
       id="path8"
       d="m 24.411332,26.802535 c -0.100021,-0.126874 -0.22363,-0.231464 -0.336268,-0.347029 -0.132888,-0.158707 -0.279447,-0.304583 -0.403726,-0.470199 -0.14461,-0.157295 -0.266551,-0.332917 -0.408027,-0.492627 -0.09963,-0.148007 -0.215238,-0.284449 -0.318105,-0.429784 -0.09176,-0.119013 -0.178708,-0.240467 -0.260775,-0.366295 -0.0699,-0.104035 -0.133668,-0.211354 -0.19403,-0.32111 -0.02054,-0.08497 -0.06651,-0.158005 -0.100948,-0.235893 -0.0071,-0.05397 -0.03556,-0.119339 -0.01926,-0.170514 -6.57e-4,-0.05235 0.05508,-0.09217 0.06137,-0.140249 0.07012,-0.05993 0.140375,-0.119813 0.210045,-0.180385 0.107653,-0.08131 0.205702,-0.175039 0.300399,-0.271023 0.114679,-0.124983 0.224996,-0.252408 0.326755,-0.388095 0.111921,-0.134108 0.210961,-0.27714 0.279481,-0.438197 0.07191,-0.133461 0.124547,-0.275111 0.178232,-0.41624 0.05611,-0.141629 0.09547,-0.29001 0.131584,-0.437958 0.02616,-0.173585 0.06497,-0.344546 0.07842,-0.520034 0.0093,-0.189191 -0.0036,-0.377017 -0.03248,-0.564093 0.0038,-0.170418 -0.04092,-0.335437 -0.09076,-0.496983 -0.04331,-0.14684 -0.115019,-0.28194 -0.190364,-0.414353 -0.07521,-0.141338 -0.169315,-0.273623 -0.282341,-0.38722 -0.100791,-0.114243 -0.226998,-0.195147 -0.348443,-0.284037 -0.131349,-0.0696 -0.250482,-0.15832 -0.376297,-0.236979 -0.120285,-0.06275 -0.245585,-0.109632 -0.376125,-0.146417 -0.111705,-0.04238 -0.223417,-0.08356 -0.336544,-0.121284 -0.117857,-0.02723 -0.232926,-0.06004 -0.352973,-0.07622 -0.10591,-0.0057 -0.204692,-0.04323 -0.310028,-0.05287 -0.10215,-0.01883 -0.203403,-0.03568 -0.304787,-0.05688 -0.08548,-0.0074 -0.161924,-0.04721 -0.245368,-0.0639 -0.06297,-0.01724 -0.123847,-0.04079 -0.185773,-0.06152 -0.151678,-0.01461 -0.61441,-0.168876 -0.686458,-0.233977 -0.430166,-0.165746 -0.336721,-0.174182 -0.98098,-0.18355 -0.44968,0.0015 -0.684887,0.296192 -0.728927,0.318402 -0.327874,0.278148 -0.338984,0.24701 -0.632758,1.12644 -0.04425,0.02534 -0.06891,0.02876 -0.03884,0.08063 -1.15e-4,0.04267 0.01584,0.08115 0.02131,0.121713 0.0075,0.03695 -0.0013,0.07142 -0.0043,0.108706 0.0013,0.06796 0.03128,0.129326 0.05498,0.192802 0.01768,0.0739 0.03547,0.147379 0.05982,0.219426 0.02067,0.07457 0.02257,0.149705 0.03233,0.225618 0.02114,0.09306 0.0076,0.184795 0.01494,0.278828 -0.0011,0.102679 -0.02469,0.204069 -0.01611,0.306673 -0.0027,0.109061 -0.0034,0.21867 0.0039,0.32731 -2.2e-5,0.124507 -0.01311,0.248712 -0.0071,0.37319 0.0065,0.112084 -0.0065,0.224328 -0.001,0.336151 -0.0027,0.09934 -0.01574,0.199806 -0.0029,0.29875 0.0042,0.09986 -7.6e-4,0.204016 -0.0034,0.306258 0.01438,0.115871 0.0017,0.227743 -0.01325,0.342472 0.0034,0.113459 -0.01457,0.227186 -0.03028,0.339436 -0.02226,0.113084 -0.03348,0.226853 -0.05878,0.339381 -0.02543,0.09843 -0.03269,0.200298 -0.05359,0.299213 -0.0032,0.09571 -0.03658,0.177599 -0.07212,0.264557 -0.02772,0.09998 -0.06365,0.195932 -0.09698,0.294353 -0.01859,0.112636 -0.05658,0.22014 -0.08574,0.330356 -0.02534,0.09859 -0.04677,0.19809 -0.07424,0.296297 -0.02385,0.09245 -0.03769,0.188152 -0.06517,0.279205 -0.01922,0.08132 -0.03773,0.163436 -0.06411,0.242924 -0.01634,0.07486 -0.04053,0.148169 -0.06217,0.221796 -0.01638,0.06867 -0.03591,0.135896 -0.04958,0.205459 -0.03146,0.06955 -0.04695,0.144444 -0.068,0.217549 -0.02237,0.07209 -0.04584,0.142208 -0.05507,0.217036 -0.0177,0.05959 -0.01654,0.119042 -0.04209,0.17486 -0.03295,0.07249 -0.06068,0.147187 -0.08078,0.225186 -0.03266,0.07868 -0.0483,0.161562 -0.07382,0.242357 -0.01026,0.09164 -0.04562,0.176218 -0.07114,0.263952 -0.01847,0.09576 -0.05738,0.18683 -0.07396,0.282903 -0.02444,0.0941 -0.04882,0.185026 -0.07233,0.279025 -0.01995,0.08739 -0.04627,0.173108 -0.06524,0.260831 -0.03602,0.08558 -0.07515,0.171017 -0.120321,0.252385 -0.03714,0.07895 -0.07717,0.156574 -0.115122,0.235185 -0.04261,0.07903 -0.08244,0.158949 -0.131349,0.234246 0.0087,0.0076 -0.03161,0.03715 -0.02011,0.05158 0.02455,0.03079 0.07988,-0.0026 0.117149,-0.01527 0.0814,-0.02776 0.633274,-0.246402 0.635691,-0.247353 0.118713,-0.04566 0.237426,-0.09131 0.356139,-0.136969 l 0.138968,-0.05953 v 0 l 0.394544,-0.185912 c 0.143352,-0.06874 0.287678,-0.135492 0.430056,-0.206231 0.175714,-0.0873 0.416555,-0.175693 0.528952,-0.353192 0.03997,-0.08312 0.08422,-0.163917 0.119195,-0.249418 0.03883,-0.08212 0.07163,-0.167795 0.10275,-0.252977 0.01821,-0.08332 0.04027,-0.165283 0.04677,-0.250484 0.02839,-0.08864 0.04951,-0.179205 0.0716,-0.269477 0.02282,-0.09117 0.04108,-0.180794 0.06624,-0.271708 0.03261,-0.09184 0.04806,-0.189106 0.08394,-0.280039 0.02639,-0.08975 0.04024,-0.182789 0.07606,-0.269784 0.01839,-0.07664 0.04963,-0.14816 0.06843,-0.224866 0.03107,-0.0751 0.05894,-0.150239 0.08249,-0.227359 0.0168,-0.06715 0.03477,-0.133337 0.04165,-0.202302 0.02341,-0.06582 0.03997,-0.132387 0.0594,-0.199758 0.02214,-0.07157 0.05022,-0.14202 0.06074,-0.21636 0.02688,-0.07331 0.04683,-0.147519 0.06892,-0.222117 0.01713,-0.07321 0.03208,-0.147113 0.05268,-0.219253 0.01519,-0.08282 0.03608,-0.164476 0.05494,-0.246383 0.01427,-0.09349 0.04509,-0.18488 0.06261,-0.278175 0.01679,-0.0952 0.04023,-0.188625 0.06636,-0.281448 0.02997,-0.110142 0.05239,-0.222168 0.100211,-0.326439 0.02771,-0.101974 0.05838,-0.201183 0.08789,-0.302481 0.01168,-0.09106 0.0083,-0.18156 0.01885,-0.272755 0.0065,-0.09702 0.03767,-0.191873 0.04339,-0.289498 0.01121,-0.11556 0.03609,-0.228499 0.03934,-0.344808 0.0101,-0.122282 0.01452,-0.242785 0.01946,-0.365536 -0.01476,-0.110864 -0.027,-0.218571 -0.01265,-0.330927 -0.0027,-0.101383 -0.0079,-0.203728 -0.0034,-0.302784 0.01128,-0.09824 0.0014,-0.197356 -0.003,-0.295846 0.0051,-0.111502 -0.0075,-0.223345 -0.0013,-0.335111 0.0054,-0.122116 -0.0072,-0.243817 -0.0082,-0.365922 0.0063,-0.110118 0.0058,-0.221381 7e-4,-0.331731 0.0057,-0.09823 -0.01801,-0.193662 -0.02591,-0.291314 1.02e-4,-0.0079 0.003,-0.276901 -0.06082,-0.557437 -0.255343,-0.220597 0.09977,-0.430753 0.1032,-0.445557 -0.942068,0.491996 -2.032644,1.161486 -2.004321,1.155166 0.01379,0.06506 0.04842,0.111749 0.09196,0.161334 0.04962,0.05055 0.09446,0.10073 0.159437,0.133391 0.07281,0.04273 0.15144,0.0708 0.23301,0.09167 0.09956,0.03053 0.20325,0.02667 0.304388,0.04938 0.102552,0.01437 0.203757,0.03071 0.305652,0.05024 0.103242,0.03374 0.212999,0.03158 0.316997,0.06313 0.113752,0.01768 0.229426,0.02299 0.340654,0.05462 0.127562,0.01992 0.253459,0.04444 0.379577,0.07304 0.122909,0.04035 0.247045,0.07502 0.369157,0.117091 0.147566,0.03985 0.299996,0.0775 0.431951,0.156962 0.126372,0.06208 0.243715,0.144879 0.359944,0.223771 0.118792,0.09205 0.245781,0.173163 0.352786,0.27955 0.08803,0.09944 0.162973,0.20744 0.221415,0.327225 0.05952,0.133626 0.09661,0.272516 0.138015,0.412515 0.01557,0.171662 0.03164,0.344192 0.0056,0.515492 -0.03148,0.170269 -0.05197,0.342037 -0.116556,0.504047 -0.04394,0.141624 -0.09229,0.280701 -0.153009,0.416096 -0.06312,0.13584 -0.13246,0.268789 -0.208229,0.398136 -0.102213,0.138135 -0.203113,0.277287 -0.310792,0.411253 -0.123556,0.1353 -0.25364,0.264787 -0.393175,0.383701 -0.10907,0.09352 -0.223259,0.180811 -0.331288,0.275212 -0.08292,0.07247 -0.161152,0.146384 -0.21636,0.243227 -0.07282,0.08652 -0.118083,0.184914 -0.145062,0.294802 -0.01282,0.103684 -0.04463,0.200151 -0.01085,0.305525 0.0082,0.105173 0.0178,0.20394 0.06653,0.30088 0.03612,0.134667 0.08149,0.267004 0.13812,0.394526 0.06901,0.146342 0.145875,0.28933 0.242569,0.419391 0.111936,0.144854 0.220321,0.292032 0.346268,0.425736 0.126227,0.173975 0.272705,0.33218 0.401198,0.504579 0.146996,0.156187 0.274978,0.328431 0.433558,0.473975 0.117424,0.122842 0.227468,0.252438 0.371024,0.345821 z"
       sodipodi:nodetypes="ccccccccccccccccccccccccccccccccccccccccccccccccccccccccccccccccccccccccccccccsccccccccccccccccccccccccccccccccsccccccccccccccccccccccccccccccccc" />
  </g>
</svg>
