<?xml version="1.0" encoding="UTF-8" standalone="no"?>
<!-- Created with Inkscape (http://www.inkscape.org/) -->

<svg
   width="1080"
   height="1080"
   viewBox="0 0 1080 1080"
   version="1.1"
   id="svg1"
   inkscape:version="1.4 (86a8ad7, 2024-10-11)"
   sodipodi:docname="image-not-found.svg"
   xml:space="preserve"
   xmlns:inkscape="http://www.inkscape.org/namespaces/inkscape"
   xmlns:sodipodi="http://sodipodi.sourceforge.net/DTD/sodipodi-0.dtd"
   xmlns="http://www.w3.org/2000/svg"
   xmlns:svg="http://www.w3.org/2000/svg"><sodipodi:namedview
     id="namedview1"
     pagecolor="#ffffff"
     bordercolor="#cccccc"
     borderopacity="1"
     inkscape:showpageshadow="0"
     inkscape:pageopacity="1"
     inkscape:pagecheckerboard="0"
     inkscape:deskcolor="#d1d1d1"
     inkscape:document-units="px"
     showgrid="false"
     inkscape:zoom="0.77500001"
     inkscape:cx="270.96774"
     inkscape:cy="303.87097"
     inkscape:window-width="1920"
     inkscape:window-height="1017"
     inkscape:window-x="-8"
     inkscape:window-y="-8"
     inkscape:window-maximized="1"
     inkscape:current-layer="layer5"><inkscape:grid
       id="grid1"
       units="px"
       originx="0"
       originy="0"
       spacingx="1"
       spacingy="1"
       empcolor="#0099e5"
       empopacity="0.30196078"
       color="#0099e5"
       opacity="0.14901961"
       empspacing="5"
       enabled="true"
       visible="false" /></sodipodi:namedview><defs
     id="defs1"><rect
       x="183.39156"
       y="497.25573"
       width="498.32467"
       height="73.087972"
       id="rect5" /><rect
       x="152.25806"
       y="526.45161"
       width="402.58064"
       height="56.774194"
       id="rect4" /></defs><ellipse
     style="fill:#ffeeaa;fill-opacity:1;stroke:none;stroke-width:1;stroke-linecap:square;stroke-dasharray:none;paint-order:markers fill stroke"
     id="path28"
     cx="557.27448"
     cy="777.7561"
     rx="465.16129"
     ry="407.74194"
     transform="translate(-0.5003,-305.49804)" /><g
     inkscape:groupmode="layer"
     id="layer2"
     inkscape:label="bg"
     style="display:none"><rect
       style="fill:#e1f3ef;fill-opacity:1;stroke-width:5;stroke-linecap:square;paint-order:markers fill stroke"
       id="rect7"
       width="1080"
       height="1080"
       x="0"
       y="0"
       ry="0" /></g><g
     inkscape:label="mountains"
     inkscape:groupmode="layer"
     id="layer1"
     transform="matrix(0.81177863,0,0,0.84475105,94.983562,-130.85321)"><path
       style="fill:#999999;fill-opacity:1;stroke-width:5;stroke-linecap:square;paint-order:markers fill stroke"
       d="m 415,810 c 0,0 265,150 365,150 100,0 -30,60 -30,60 0,0 -300,-150 -310,-160 -10,-10 -25,-50 -25,-50 z"
       id="path12" /><path
       d="M 991.45898,1009.9062 C 977.4674,1002.0757 949.62336,989.03248 935,1000 c -20,15 -75,55 -110,55 -35,0 -70,-5 -80,10 -3.79072,5.6861 -18.37031,13.5226 -35,21.0684 V 1100 c 105.90075,31.7609 364.0639,96.8866 379.975,-17.457 -20.8664,-15.496 -73.8868,-54.4991 -89.9746,-62.543 -5.30661,-2.6533 -7.74567,-6.0324 -8.54102,-10.0938 z"
       style="fill:#b3b3b3;stroke-width:5;stroke-linecap:square;paint-order:markers fill stroke"
       id="path49"
       sodipodi:nodetypes="sssscccscs" /><path
       d="M 967.66602,799.58008 C 938.90625,800.47882 769.375,960.625 750,980 c -20,20 -40,10 -40,10 v 96.0684 c 16.62969,-7.5458 31.20928,-15.3823 35,-21.0684 10,-15 45,-10 80,-10 35,0 90,-40 110,-55 14.62336,-10.96752 42.4674,2.0757 56.45898,9.9062 C 989.25676,998.66095 1000,982.04009 1000,960 c 0,-30 -50,-100 -60,-120 -10,-20 30,-40 30,-40 -0.625,-0.3125 -1.40625,-0.44891 -2.33398,-0.41992 z"
       style="fill:#cccccc;stroke-width:5;stroke-linecap:square;paint-order:markers fill stroke"
       id="path48" /><path
       d="M 1068.7605,917.80268 C 1044.4351,907.98694 1043.3733,799.23515 1003.1289,798.93945 992.54509,804.30061 983.54452,806.77226 970,800 c 0,0 -40,20 -30,40 10,20 60,90 60,120 0,30 -26.92862,48.4297 -7.86763,60 160.18373,97.2341 34.85453,96.6566 -28.79403,114.8659 -31.40709,8.9853 -34.28693,37.5698 -39.70784,36.2434 97.1463,40.764 358.0292,-167.3979 145.13,-253.30662 z"
       style="fill:#999999;stroke-width:5;stroke-linecap:square;paint-order:markers fill stroke"
       id="path46"
       sodipodi:nodetypes="sccsssscs" /><path
       style="fill:#d0d0d0;fill-opacity:1;stroke-width:5;stroke-linecap:square;paint-order:markers fill stroke"
       d="m 170,970 c 0,0 70,-10 100,-30 30,-20 130,-150 150,-130 20,20 180,120 300,180 120,60 110,100 110,100 l -670,10 z"
       id="path10" /><path
       d="m 70,910 c -202.61588,92.4171 -57.352747,169.1962 -8.74491,246.4247 l 33.587255,-25.3818 C 94.842345,1131.0429 40,1030 40,1020 40,1010 80,1000 70,980 60,960 40,980 30,960 20,940 70,910 70,910 Z"
       style="fill:#cccccc;stroke-width:5;stroke-linecap:square;paint-order:markers fill stroke"
       id="path15"
       sodipodi:nodetypes="cccsssc" /><path
       d="m 270,1090 -10,-10 c 0,0 -110,-40 -130,-40 -20,0 -30,-10 -30,-20 0,-10 -10,-10 -60,0 -49.3291487,131.6365 129.30792,156.2471 230,70 z"
       style="fill:#b3b3b3;fill-opacity:1;stroke-width:5;stroke-linecap:square;paint-order:markers fill stroke"
       id="path18"
       sodipodi:nodetypes="ccsscc" /><path
       d="m 70,910 c 0,0 -50,30 -40,50 10,20 30,0 40,20 10,20 -30,30 -30,40 50,-10 60,-10 60,0 0,10 10,20 30,20 20,0 130,40 130,40 l 10,10 h 72.78516 C 335.3283,1088.431 321.70532,1082.0929 300,1060 263.87097,1023.2258 80,910 70,910 Z"
       style="fill:#999999;stroke-width:5;stroke-linecap:square;paint-order:markers fill stroke"
       id="path17" /></g><g
     inkscape:groupmode="layer"
     id="layer4"
     inkscape:label="lake"
     transform="translate(19.354839,-18.064516)"><path
       style="fill:#e1f3ef;fill-opacity:1;stroke:none;stroke-width:5;stroke-linecap:square;paint-order:markers fill stroke"
       d="m 196.12903,828.38709 c 16.77419,-10.32258 46.45161,-36.12903 90.32258,-33.54839 43.87097,2.58065 14.19355,-19.35484 60.64516,-16.77419 46.45161,2.58064 212.90323,-36.12903 312.25806,7.74194 99.35484,43.87096 81.29033,-2.58065 135.48387,9.03225 54.19355,11.61291 81.29033,37.41936 61.93549,52.90323 -19.35484,15.48387 -27.09678,94.19355 -132.90323,86.45161 -105.80645,-7.74193 -206.45161,-67.09677 -261.93548,-19.35484 -55.48387,47.74194 -28.3871,130.3226 -139.35484,82.58065 -110.96774,-47.74194 -140.64516,0 -189.67742,-81.29033 -49.032253,-81.29032 63.22581,-87.74193 63.22581,-87.74193 z"
       id="path4" /></g><g
     inkscape:groupmode="layer"
     id="layer5"
     inkscape:label="img-n-f"><path
       id="d-letter"
       style="font-weight:bold;font-size:48px;font-family:'Miriam CLM';-inkscape-font-specification:'Miriam CLM Bold';text-align:center;text-anchor:middle;white-space:pre;fill:#ffffff;stroke:none;stroke-linecap:square;paint-order:markers fill stroke"
       d="m 819.48659,188.71247 c -2.10602,-2.01108 -3.04563,-4.4791 -2.81884,-7.40403 0.27203,-2.92599 1.94398,-5.99742 5.01585,-9.2143 3.09397,-3.24003 6.1077,-5.05229 9.04117,-5.43681 2.93348,-0.38451 5.48795,0.46193 7.66339,2.53931 1.36544,1.30389 2.23373,2.64187 2.60487,4.01395 0.37114,1.37208 0.43558,2.69466 0.19338,3.9677 l 0.17357,0.16575 c 0.28417,-0.43658 0.71147,-1.04622 1.28189,-1.82891 0.59251,-0.80583 1.24237,-1.57904 1.94956,-2.31961 l 5.8012,-6.07505 5.17246,4.9393 -25.19375,26.38305 -3.95746,-3.77906 1.34691,-3.42608 -0.20828,-0.19889 c -1.26054,0.30067 -2.58415,0.31987 -3.97085,0.0576 -1.36458,-0.2854 -2.72959,-1.08005 -4.09503,-2.38393 z m 4.56244,-4.4333 c 1.43487,1.37018 2.83939,1.91494 4.21355,1.63429 1.39628,-0.30379 2.91262,-1.28937 4.54904,-2.9567 l 0.53041,-0.55544 c 1.76797,-1.85144 2.82677,-3.53941 3.17639,-5.06392 0.37276,-1.5024 -0.20459,-2.98289 -1.73203,-4.44147 -1.134,-1.08289 -2.50015,-1.43616 -4.09845,-1.0598 -1.5762,0.35321 -3.24828,1.45554 -5.01627,3.30698 -1.76798,1.85144 -2.78101,3.56099 -3.03909,5.12865 -0.23599,1.54451 0.23616,2.88031 1.41645,4.00741 z"
       inkscape:label="d-letter" /><path
       style="font-weight:bold;font-size:48px;font-family:'Miriam CLM';-inkscape-font-specification:'Miriam CLM Bold';text-align:center;text-anchor:middle;white-space:pre;fill:#ffffff;stroke:none;stroke-linecap:square;paint-order:markers fill stroke"
       d="m 815.52876,148.21799 c 2.22925,1.72054 3.54594,3.70692 3.95007,5.95912 0.42368,2.22687 -0.39094,4.67025 -2.44388,7.33015 l -10.44064,13.52748 -5.66178,-4.36981 9.35551,-12.12153 c 1.15356,-1.49462 1.74785,-2.81454 1.78286,-3.95976 0.0545,-1.17056 -0.50077,-2.20553 -1.66607,-3.10491 -1.72259,-1.32952 -3.36002,-1.64337 -4.91226,-0.94154 -1.5327,0.67649 -3.14954,2.1167 -4.85054,4.32062 l -7.5372,9.76563 -5.66178,-4.36982 16.01288,-20.74722 4.33184,3.34335 -1.29297,3.24645 0.30399,0.23462 c 1.47982,-0.55561 2.97545,-0.63415 4.48688,-0.23564 1.53677,0.41806 2.95114,1.12567 4.24309,2.12281 z"
       id="n2-letter"
       inkscape:label="n2-letter" /><path
       style="font-weight:bold;font-size:48px;font-family:'Miriam CLM';-inkscape-font-specification:'Miriam CLM Bold';text-align:center;text-anchor:middle;white-space:pre;fill:#ffffff;stroke:none;stroke-linecap:square;paint-order:markers fill stroke"
       d="m 787.25521,132.95365 -12.32101,23.1312 -4.82958,-2.57252 0.73231,-3.41686 -0.33891,-0.18052 c -1.36618,0.79507 -2.84178,1.11491 -4.4268,0.95949 -1.55677,-0.14037 -3.05537,-0.59417 -4.49578,-1.36141 -2.4854,-1.32387 -4.12301,-3.04818 -4.91283,-5.17294 -0.77479,-2.153 -0.37237,-4.71228 1.20725,-7.67782 l 8.03346,-15.08187 6.31236,3.36232 -7.19853,13.51438 c -0.87254,1.6381 -1.23793,3.03877 -1.09614,4.20199 0.14174,1.16322 0.86229,2.09084 2.16147,2.78285 1.92053,1.02301 3.57985,1.07295 4.97796,0.14986 1.41314,-0.95132 2.77413,-2.65557 4.08296,-5.11274 l 5.79943,-10.88776 z"
       id="u-letter"
       inkscape:label="u-letter" /><path
       style="font-weight:bold;font-size:48px;font-family:'Miriam CLM';-inkscape-font-specification:'Miriam CLM Bold';text-align:center;text-anchor:middle;white-space:pre;fill:#ffffff;fill-opacity:1;stroke:none;stroke-linecap:square;paint-order:markers fill stroke"
       d="m 711.17704,112.8333 -5.52115,-2.80317 -9.43084,18.57502 -6.37714,-3.23777 9.43085,-18.57503 -3.50957,-1.78186 1.56456,-3.08157 4.37877,0.0699 0.8692,-1.71199 c 1.01407,-1.997311 2.12448,-3.371497 3.33123,-4.122561 1.24978,-0.765109 2.60403,-1.064458 4.06273,-0.898065 1.48725,0.180891 3.07259,0.698688 4.75604,1.553408 1.25545,0.637409 2.33181,1.309504 3.22905,2.016269 0.92579,0.721252 1.63735,1.369629 2.1347,1.945139 l -3.99495,3.83941 c -0.41263,-0.38894 -0.87531,-0.78534 -1.38802,-1.18921 -0.49823,-0.43239 -1.11827,-0.83693 -1.86013,-1.21358 -0.88452,-0.44909 -1.67841,-0.51121 -2.38166,-0.18639 -0.67471,0.33932 -1.22211,0.9227 -1.64223,1.75016 l -0.73882,1.45519 5.52115,2.80317 z"
       id="f-letter"
       inkscape:label="f-letter" /><path
       style="font-weight:bold;font-size:48px;font-family:'Miriam CLM';-inkscape-font-specification:'Miriam CLM Bold';text-align:center;text-anchor:middle;white-space:pre;fill:#ffffff;stroke:none;stroke-linecap:square;paint-order:markers fill stroke"
       d="m 568.39123,100.94013 c 0.78253,0.1663 1.55038,0.24769 2.30356,0.24419 0.75318,-0.004 1.51302,-0.0383 2.27951,-0.10443 l -1.10757,5.21161 c -0.81775,0.15335 -1.81331,0.21985 -2.98671,0.19949 -1.14875,0.0176 -2.38044,-0.11332 -3.69509,-0.39269 -1.53374,-0.32595 -2.85776,-0.86905 -3.97208,-1.6293 -1.08299,-0.75359 -1.85475,-1.81726 -2.31524,-3.19099 -0.42254,-1.398384 -0.40099,-3.193114 0.0647,-5.384176 l 2.62422,-12.348237 -3.33355,-0.708442 0.62861,-2.957938 4.34893,-1.529375 3.16639,-4.97036 4.46038,0.947909 -1.15746,5.446373 7.18358,1.526639 -1.11754,5.258565 -7.18357,-1.526642 -2.62422,12.348235 c -0.20622,0.970335 -0.0808,1.765765 0.37615,2.386325 0.46364,0.589244 1.14933,0.980324 2.05705,1.173244 z"
       id="t-letter"
       inkscape:label="t-letter" /><path
       id="o1-letter"
       style="font-weight:bold;font-size:48px;font-family:'Miriam CLM';-inkscape-font-specification:'Miriam CLM Bold';text-align:center;text-anchor:middle;white-space:pre;fill:#ffffff;stroke:none;stroke-linecap:square;paint-order:markers fill stroke"
       d="m 544.53855,85.983761 c 0,4.352 -1.152,7.712 -3.456,10.08 -2.272,2.368 -5.376,3.552 -9.312,3.552 -2.432,0 -4.608,-0.528 -6.528,-1.584 -1.888,-1.056 -3.376,-2.592 -4.464,-4.608 -1.088,-2.048 -1.632,-4.528 -1.632,-7.44 0,-4.352 1.136,-7.696002 3.408,-10.032002 2.272,-2.336 5.392,-3.504 9.36,-3.504 2.464,0 4.64,0.528 6.528,1.584 1.888,1.056 3.376,2.592 4.464,4.608 1.088,1.984 1.632,4.432002 1.632,7.344002 z m -17.18361,0.9124 c 0,2.592 0.416,4.56 1.248,5.904 0.864,1.312 2.256,1.968 4.176,1.968 1.888,0 3.248,-0.656 4.08,-1.968 0.864,-1.344 1.296,-3.312 1.296,-5.904 0,-2.592 -0.432,-4.528 -1.296,-5.808 -0.832,-1.312002 -2.208,-1.968002 -4.128,-1.968002 -1.888,0 -3.264,0.656 -4.128,1.968002 -0.832,1.28 -1.248,3.216 -1.248,5.808 z"
       inkscape:label="o1-letter" /><path
       style="font-weight:bold;font-size:48px;font-family:'Miriam CLM';-inkscape-font-specification:'Miriam CLM Bold';text-align:center;text-anchor:middle;white-space:pre;fill:#ffffff;stroke:none;stroke-linecap:square;paint-order:markers fill stroke"
       d="m 493.35699,78.011249 c 2.78975,-0.383636 5.12934,0.06985 7.01879,1.360465 1.88509,1.258921 3.05651,3.552717 3.51426,6.881386 l 2.32803,16.92868 -7.08533,0.97437 -2.08606,-15.169238 c -0.25721,-1.870394 -0.7819,-3.219491 -1.57406,-4.047284 -0.79653,-0.859499 -1.92392,-1.188985 -3.3822,-0.988436 -2.15572,0.296451 -3.52739,1.24416 -4.11503,2.843121 -0.592,1.56727 -0.69835,3.729922 -0.31907,6.487966 l 1.68062,12.220981 -7.08532,0.97438 -3.57051,-25.963653 5.42099,-0.745492 1.4088,3.197887 0.38043,-0.05231 c 0.64114,-1.444823 1.63358,-2.566486 2.97735,-3.364971 1.37544,-0.802877 2.87156,-1.315486 4.48834,-1.537822 z"
       id="n1-letter"
       inkscape:label="n1-letter" /><path
       id="e-letter"
       style="font-weight:bold;font-size:48px;font-family:'Miriam CLM';-inkscape-font-specification:'Miriam CLM Bold';text-align:center;text-anchor:middle;white-space:pre;fill:#ffffff;stroke:none;stroke-linecap:square;paint-order:markers fill stroke"
       d="m 385.21963,102.78371 c 3.1722,-1.73566 6.18391,-2.19803 9.03509,-1.38706 2.83584,0.78289 5.16767,2.84465 6.99551,6.18529 l 1.65887,3.03185 -14.82234,8.11006 c 1.02382,1.73784 2.30349,2.84329 3.83899,3.31631 1.56357,0.45765 3.22964,0.20264 4.99822,-0.76504 1.48784,-0.81407 2.75853,-1.69172 3.81206,-2.63293 1.03816,-0.96928 2.03394,-2.11599 2.98737,-3.44014 l 2.6496,4.84253 c -0.81571,1.17584 -1.78607,2.2357 -2.91111,3.17954 -1.08159,0.95658 -2.50667,1.91869 -4.27525,2.88637 -2.30196,1.25951 -4.56762,1.95202 -6.797,2.07753 -2.24472,0.0974 -4.34856,-0.44763 -6.3115,-1.63519 -1.96293,-1.18754 -3.66631,-3.10072 -5.11014,-5.73954 -1.47456,-2.69498 -2.24652,-5.17251 -2.31588,-7.43261 -0.0566,-2.30352 0.4834,-4.34989 1.6201,-6.13908 1.13668,-1.7892 2.78583,-3.27517 4.94741,-4.45789 z m 3.72272,4.80299 c -1.20712,0.66047 -2.0027,1.60645 -2.38672,2.83792 -0.35596,1.21611 -0.151,2.69071 0.61487,4.4238 l 8.80077,-4.81535 c -0.79608,-1.38828 -1.79078,-2.33957 -2.98411,-2.8539 -1.20867,-0.54243 -2.55695,-0.40658 -4.04481,0.40753 z"
       inkscape:label="e-letter" /><path
       id="g-letter"
       style="font-weight:bold;font-size:48px;font-family:'Miriam CLM';-inkscape-font-specification:'Miriam CLM Bold';text-align:center;text-anchor:middle;white-space:pre;fill:#ffffff;stroke:none;stroke-linecap:square;paint-order:markers fill stroke"
       d="m 348.63838,118.71203 c 2.70328,-1.77146 5.51929,-2.08645 8.44805,-0.94496 l 0.1606,-0.10523 -1.35985,-3.12607 5.05861,-3.3149 14.39095,21.96082 c 2.05209,3.13155 2.68969,6.11875 1.91277,8.96163 -0.7769,2.84289 -2.97201,5.44822 -6.5853,7.81602 -1.55239,1.01727 -3.0591,1.87071 -4.52013,2.56032 -1.43426,0.67207 -2.93823,1.17938 -4.5119,1.52196 l -3.13075,-4.7776 c 3.43992,-0.64731 6.65875,-1.95317 9.65644,-3.91756 3.07799,-2.01703 3.52956,-4.68496 1.3547,-8.00384 l -0.2894,-0.44164 c -0.29816,-0.45501 -0.59171,-0.93217 -0.88065,-1.43147 -0.26218,-0.51686 -0.50267,-0.97141 -0.72145,-1.36366 l -0.16059,0.10523 c 0.005,1.642 -0.34816,3.05929 -1.05875,4.25185 -0.71059,1.19258 -1.72164,2.21857 -3.03315,3.07798 -2.59622,1.70131 -5.27932,2.04399 -8.04931,1.02802 -2.76076,-1.06027 -5.3075,-3.37029 -7.64023,-6.93006 -2.35025,-3.58654 -3.43367,-6.87461 -3.25026,-9.86418 0.1834,-2.9896 1.58661,-5.34381 4.2096,-7.06266 z m 3.30644,4.27334 c -2.81034,1.84161 -2.76853,4.97055 0.12544,9.38681 2.85891,4.36272 5.72029,5.60574 8.58415,3.72904 1.52563,-0.99974 2.36914,-2.16462 2.53054,-3.49467 0.17066,-1.37435 -0.45439,-3.14551 -1.87506,-5.31349 l -0.47356,-0.72267 c -1.54347,-2.35533 -3.00976,-3.80476 -4.39892,-4.34828 -1.38915,-0.54349 -2.88667,-0.2891 -4.49259,0.76326 z"
       inkscape:label="g-letter" /><path
       id="a-letter"
       style="font-weight:bold;font-size:48px;font-family:'Miriam CLM';-inkscape-font-specification:'Miriam CLM Bold';text-align:center;text-anchor:middle;white-space:pre;fill:#ffffff;fill-opacity:1;stroke:none;stroke-linecap:square;paint-order:markers fill stroke"
       d="m 325.98657,147.38646 c -1.83398,1.39607 -2.89083,2.66734 -3.17053,3.81382 -0.27965,1.14648 -0.0555,2.22653 0.67252,3.24016 0.63472,0.88368 1.35199,1.33377 2.15182,1.35027 0.78115,-0.01 1.5876,-0.31293 2.41929,-0.91032 1.24753,-0.89605 2.0388,-2.01598 2.37379,-3.35975 0.31628,-1.36978 -0.0109,-2.73041 -0.98163,-4.08191 l -1.26009,-1.75436 z m -8.17134,-12.77668 c 2.85896,-2.05348 5.4902,-2.99782 7.89371,-2.83301 2.41084,0.12014 4.53098,1.45376 6.36044,4.00081 l 10.19272,14.19082 -4.05451,2.91221 -3.20273,-2.07289 -0.15596,0.11201 c -0.0883,1.79696 -0.45254,3.31937 -1.09281,4.56724 -0.64028,1.24785 -1.84409,2.5065 -3.61145,3.77592 -1.89729,1.36276 -3.86174,1.94637 -5.89334,1.75084 -2.05028,-0.22153 -3.89681,-1.47588 -5.53958,-3.76304 -1.62412,-2.26117 -2.02616,-4.49395 -1.20612,-6.6983 0.80137,-2.23035 2.75013,-4.53625 5.84629,-6.9177 l 3.61966,-2.77714 -0.67206,-0.93567 c -0.80272,-1.11759 -1.68965,-1.72161 -2.6608,-1.81206 -0.94516,-0.10908 -1.93754,0.20969 -2.97715,0.95641 -1.03962,0.74672 -1.94124,1.63071 -2.70486,2.65198 -0.7823,0.99527 -1.50859,2.06853 -2.17886,3.21975 l -4.73851,-2.56546 c 0.71422,-1.41917 1.63873,-2.79239 2.77355,-4.11968 1.1608,-1.34595 2.49493,-2.56029 4.00237,-3.64304 z"
       inkscape:label="a-letter" /><path
       style="font-weight:bold;font-size:48px;font-family:'Miriam CLM';-inkscape-font-specification:'Miriam CLM Bold';text-align:center;text-anchor:middle;white-space:pre;fill:#ffffff;stroke:none;stroke-linecap:square;paint-order:markers fill stroke"
       d="m 290.66994,151.38014 c 2.46306,-1.67031 4.74802,-2.29189 6.85489,-1.86477 2.11539,0.38268 4.11599,1.96447 6.00181,4.74535 l 9.59075,14.14274 -5.91929,4.01411 -8.59397,-12.67286 c -2.1193,-3.12517 -4.26481,-3.95139 -6.43655,-2.47865 -1.56259,1.05965 -2.29777,2.37015 -2.20556,3.9315 0.0922,1.56137 0.84776,3.38818 2.26661,5.48046 l 7.38165,10.88515 -5.9193,4.01411 -8.59396,-12.67286 c -2.1193,-3.12517 -4.26483,-3.95139 -6.43656,-2.47866 -1.64203,1.11353 -2.35881,2.50821 -2.1503,4.18403 0.21702,1.63137 1.1068,3.59914 2.66934,5.90329 l 6.92366,10.2098 -5.91929,4.0141 -14.70941,-21.69084 4.52885,-3.07119 2.68036,2.24207 0.31781,-0.21552 c -0.0922,-1.56136 0.26048,-2.97979 1.05806,-4.25528 0.82409,-1.29346 1.85851,-2.36225 3.10328,-3.20638 1.58907,-1.07762 3.11939,-1.72874 4.59095,-1.95338 1.45359,-0.25112 2.83989,-0.0313 4.15893,0.65943 l 0.51644,-0.35022 c -0.0922,-1.56136 0.27372,-2.98876 1.09779,-4.28222 0.85056,-1.31142 1.89823,-2.38918 3.14301,-3.23331 z"
       id="m-letter"
       inkscape:label="m-letter" /><path
       style="font-weight:bold;font-size:48px;font-family:'Miriam CLM';-inkscape-font-specification:'Miriam CLM Bold';text-align:center;text-anchor:middle;white-space:pre;fill:#ffffff;stroke:none;stroke-linecap:square;paint-order:markers fill stroke"
       d="m 268.07413,210.35115 -12.85079,8.84404 -2.34027,-3.40053 2.35157,-3.94911 -12.57214,-18.26791 -4.52855,0.78584 -2.34027,-3.40052 12.85081,-8.84403 2.34027,3.40052 -2.35157,3.94912 12.57213,18.26791 4.52855,-0.78584 z"
       id="i-letter"
       inkscape:label="i-letter" /><path
       id="o2-letter"
       style="font-weight:bold;font-size:48px;font-family:'Miriam CLM';-inkscape-font-specification:'Miriam CLM Bold';text-align:center;text-anchor:middle;white-space:pre;fill:#ffffff;stroke:none;stroke-linecap:square;paint-order:markers fill stroke"
       d="m 745.99029,130.89737 c -2.58122,3.50389 -5.50157,5.52583 -8.76105,6.06583 -3.23373,0.55898 -6.43506,-0.32878 -9.60402,-2.66326 -1.95806,-1.44244 -3.39684,-3.15816 -4.31634,-5.14713 -0.89375,-1.97 -1.18075,-4.08922 -0.86101,-6.35765 0.33872,-2.29419 1.37165,-4.61354 3.09878,-6.95805 2.58123,-3.50389 5.47921,-5.52245 8.69395,-6.05566 3.21474,-0.53322 6.41946,0.37691 9.61418,2.73037 1.98382,1.46143 3.4226,3.17714 4.31634,5.14714 0.89375,1.97 1.18075,4.08922 0.86102,6.35765 -0.30076,2.24266 -1.31471,4.53624 -3.04185,6.88076 z m -14.37604,-9.45719 c -1.53734,2.08687 -2.36965,3.91809 -2.49693,5.49363 -0.0825,1.56877 0.64911,2.92254 2.19494,4.06132 1.52007,1.11978 3.00411,1.39825 4.45213,0.83541 1.49277,-0.56964 3.00782,-1.8979 4.54517,-3.98476 1.53733,-2.08688 2.33778,-3.90182 2.40134,-5.44482 0.1083,-1.54979 -0.61046,-2.89406 -2.15629,-4.03284 -1.52007,-1.11979 -3.017,-1.40776 -4.49078,-0.86388 -1.42905,0.53708 -2.91223,1.84907 -4.44958,3.93594 z"
       inkscape:label="o2-letter" /></g><g
     inkscape:groupmode="layer"
     id="layer3"
     inkscape:label="clouds"
     transform="translate(-0.5003,-305.49804)"><path
       d="m -215.74466,729.91221 a 46.059681,45.728315 0 0 0 -45.33748,38.06731 25.515074,18.887783 0 0 0 -10.33156,-1.61769 25.515074,18.887783 0 0 0 -25.35038,17.965 c 67.33151,0.19071 135.77327,0.38468 170.48701,0.48084 16.31112,0.0452 11.59037,0.0289 17.75691,0.0447 a 40.757845,39.101024 0 0 0 0.46908,-4.57325 40.757845,39.101024 0 0 0 -40.75718,-39.10069 40.757845,39.101024 0 0 0 -27.70403,10.522 46.059681,45.728315 0 0 0 -39.23237,-21.78818 z"
       style="display:inline;fill:#f2f2f2;stroke-width:0.300965;stroke-linecap:round;stroke-linejoin:round;stroke-dasharray:7.22315, 7.22315;paint-order:markers fill stroke"
       id="path209"
       inkscape:label="cloud3-repl"><animateMotion
         path="M0,0 1000,0"
         begin="0s"
         dur="10s"
         repeatCount="indefinite" /></path><path
       d="m -797.07728,697.98296 a 46.059681,45.728315 0 0 0 -45.33748,38.06731 25.515074,18.887783 0 0 0 -10.33156,-1.61769 25.515074,18.887783 0 0 0 -25.35038,17.965 c 67.33151,0.19071 135.77327,0.38468 170.48701,0.48084 16.31112,0.0452 11.59037,0.0289 17.75691,0.0447 a 40.757845,39.101024 0 0 0 0.46908,-4.57325 40.757845,39.101024 0 0 0 -40.75718,-39.10069 40.757845,39.101024 0 0 0 -27.70403,10.522 46.059681,45.728315 0 0 0 -39.23237,-21.78818 z"
       style="display:inline;fill:#f2f2f2;stroke-width:0.300965;stroke-linecap:round;stroke-linejoin:round;stroke-dasharray:7.22315, 7.22315;paint-order:markers fill stroke"
       id="path210"
       inkscape:label="cloud2-repl"><animateMotion
         path="M0,0 1000,0"
         begin="0s"
         dur="10s"
         repeatCount="indefinite" /></path><path
       d="m -393.21289,605.49804 a 88.080704,80.924141 0 0 0 -87.61328,74.93946 47.893879,44.040352 0 0 0 -10.92578,-1.17188 A 47.893879,44.040352 0 0 0 -500,680 a 47.343376,48.444386 0 0 0 -46.25195,-38.16993 47.343376,48.444386 0 0 0 -47.09375,44.85938 30.828245,29.727236 0 0 0 -13.46094,24.50391 30.828245,29.727236 0 0 0 5.61719,16.96679 c 97.98378,0.92473 198.21207,1.86301 249.63086,2.48438 17.05313,0.20608 21.97005,0.33389 31.38867,0.49023 a 88.080704,80.924141 0 0 0 15.03906,-44.71289 88.080704,80.924141 0 0 0 -88.08203,-80.92383 z"
       style="display:inline;fill:#f9f9f9;stroke:none;stroke-width:0.5;stroke-linecap:round;stroke-linejoin:round;stroke-dasharray:none;paint-order:markers fill stroke"
       id="path215"
       inkscape:label="cloud1-repl"><animateMotion
         path="M0,0 1000,0"
         begin="0s"
         dur="10s"
         repeatCount="indefinite" /></path><path
       d="m 784.2553,729.91221 a 46.059681,45.728315 0 0 0 -45.3374,38.06731 25.515074,18.887783 0 0 0 -10.3316,-1.61769 25.515074,18.887783 0 0 0 -25.3504,17.965 c 67.3315,0.19071 135.7733,0.38468 170.487,0.48084 16.3112,0.0452 11.5904,0.0289 17.7569,0.0447 a 40.757845,39.101024 0 0 0 0.4691,-4.57325 40.757845,39.101024 0 0 0 -40.7572,-39.10069 40.757845,39.101024 0 0 0 -27.704,10.522 46.059681,45.728315 0 0 0 -39.2324,-21.78818 z"
       style="display:inline;fill:#f2f2f2;stroke-width:0.300965;stroke-linecap:round;stroke-linejoin:round;stroke-dasharray:7.22315, 7.22315;paint-order:markers fill stroke"
       id="path1"
       inkscape:label="cloud3"><animateMotion
         path="M0,0 1000,0"
         begin="0s"
         dur="10s"
         repeatCount="indefinite" /></path><path
       d="m 202.92272,697.98296 a 46.059681,45.728315 0 0 0 -45.33748,38.06731 25.515074,18.887783 0 0 0 -10.33156,-1.61769 25.515074,18.887783 0 0 0 -25.35038,17.965 c 67.33151,0.19071 135.77327,0.38468 170.48701,0.48084 16.31112,0.0452 11.59037,0.0289 17.75691,0.0447 a 40.757845,39.101024 0 0 0 0.46908,-4.57325 40.757845,39.101024 0 0 0 -40.75718,-39.10069 40.757845,39.101024 0 0 0 -27.70403,10.522 46.059681,45.728315 0 0 0 -39.23237,-21.78818 z"
       style="display:inline;fill:#f2f2f2;stroke-width:0.300965;stroke-linecap:round;stroke-linejoin:round;stroke-dasharray:7.22315, 7.22315;paint-order:markers fill stroke"
       id="path2"
       inkscape:label="cloud2"><animateMotion
         path="M0,0 1000,0"
         begin="0s"
         dur="10s"
         repeatCount="indefinite" /></path><path
       d="M 606.7871,605.49804 A 88.080704,80.924141 0 0 0 519.1738,680.4375 47.893879,44.040352 0 0 0 508.248,679.26562 47.893879,44.040352 0 0 0 500,680 a 47.343376,48.444386 0 0 0 -46.25195,-38.16993 47.343376,48.444386 0 0 0 -47.09375,44.85938 30.828245,29.727236 0 0 0 -13.46094,24.50391 30.828245,29.727236 0 0 0 5.61719,16.96679 c 97.98375,0.92473 198.21205,1.86301 249.63085,2.48438 17.0531,0.20608 21.9701,0.33389 31.3887,0.49023 a 88.080704,80.924141 0 0 0 15.039,-44.71289 88.080704,80.924141 0 0 0 -88.082,-80.92383 z"
       style="display:inline;fill:#f9f9f9;stroke:none;stroke-width:0.5;stroke-linecap:round;stroke-linejoin:round;stroke-dasharray:none;paint-order:markers fill stroke"
       id="path3"
       inkscape:label="cloud1"><animateMotion
         path="M0,0 1000,0"
         begin="0s"
         dur="10s"
         repeatCount="indefinite" /></path></g>
                  <set
  id="infA1"
  href='#i-letter'
  begin="0s;infA13.end"
  dur="1s"
  attributeName="fill"
  to="#fff3cbff"
/>
<set
  id="infA2"
  href='#m-letter'
  begin="infA1.end"
  dur="1s"
  attributeName="fill"
  to="#fff3cbff"
  repeatCount="1" 
/>
<set
  id="infA3"
  href='#a-letter'
  begin="infA2.end"
  dur="1s"
  attributeName="fill"
  to="#fff3cbff"
  repeatCount="1" 
/>
<set
  id="infA4"
  href='#g-letter'
  begin="infA3.end"
  dur="1s"
  attributeName="fill"
  to="#fff3cbff"
  repeatCount="1" 
/>
<set
  id="infA5"
  href='#e-letter'
  begin="infA4.end"
  dur="1s"
  attributeName="fill"
  to="#fff3cbff"
  repeatCount="1" 
/>
<set
  id="infA6"
  href='#n1-letter'
  begin="infA5.end"
  dur="1s"
  attributeName="fill"
  to="#fff3cbff"
  repeatCount="1" 
/>
<set
  id="infA7"
  href='#o1-letter'
  begin="infA6.end"
  dur="1s"
  attributeName="fill"
  to="#fff3cbff"
  repeatCount="1" 
/>
<set
  id="infA8"
  href='#t-letter'
  begin="infA7.end"
  dur="1s"
  attributeName="fill"
  to="#fff3cbff"
  repeatCount="1" 
/>
<set
  id="infA9"
  href='#f-letter'
  begin="infA8.end"
  dur="1s"
  attributeName="fill"
  to="#fff3cbff"
  repeatCount="1" 
/>
<set
  id="infA10"
  href='#o2-letter'
  begin="infA9.end"
  dur="1s"
  attributeName="fill"
  to="#fff3cbff"
  repeatCount="1" 
/>
<set
  id="infA11"
  href='#u-letter'
  begin="infA10.end"
  dur="1s"
  attributeName="fill"
  to="#fff3cbff"
  repeatCount="1" 
/>
<set
  id="infA12"
  href='#n2-letter'
  begin="infA11.end"
  dur="1s"
  attributeName="fill"
  to="#fff3cbff"
  repeatCount="1" 
/>
<set
  id="infA13"
  href='#d-letter'
  begin="infA12.end"
  dur="1s"
  attributeName="fill"
  to="#fff3cbff"
  repeatCount="1" 
/>
         </svg>
