<?xml version="1.0" encoding="UTF-8" standalone="no"?>
<!-- Uploaded to: SVG Repo, www.svgrepo.com, Transformed by: SVG Repo Mixer Tools -->

<svg
   width="64px"
   height="64px"
   viewBox="0 0 24 24"
   fill="none"
   version="1.1"
   id="svg2"
   sodipodi:docname="text_under_img.svg"
   inkscape:version="1.4 (86a8ad7, 2024-10-11)"
   xmlns:inkscape="http://www.inkscape.org/namespaces/inkscape"
   xmlns:sodipodi="http://sodipodi.sourceforge.net/DTD/sodipodi-0.dtd"
   xmlns="http://www.w3.org/2000/svg"
   xmlns:svg="http://www.w3.org/2000/svg">
  <defs
     id="defs2" />
  <sodipodi:namedview
     id="namedview2"
     pagecolor="#ffffff"
     bordercolor="#000000"
     borderopacity="0.25"
     inkscape:showpageshadow="2"
     inkscape:pageopacity="0.0"
     inkscape:pagecheckerboard="0"
     inkscape:deskcolor="#d1d1d1"
     inkscape:zoom="13.078125"
     inkscape:cx="32.038232"
     inkscape:cy="32"
     inkscape:window-width="1920"
     inkscape:window-height="1017"
     inkscape:window-x="-8"
     inkscape:window-y="-8"
     inkscape:window-maximized="1"
     inkscape:current-layer="svg2" />
  <g
     id="SVGRepo_bgCarrier"
     stroke-width="0" />
  <g
     id="SVGRepo_tracerCarrier"
     stroke-linecap="round"
     stroke-linejoin="round" />
  <g
     id="SVGRepo_iconCarrier">
    <path
       fill-rule="evenodd"
       clip-rule="evenodd"
       d="M 3.17157,3.0715477 C 2,3.8307624 2,5.0527042 2,7.4965814 v 2.5921336 c 0,2.443858 0,3.665787 1.17157,4.425021 C 4.34315,15.27297 6.22876,15.27297 10,15.27297 h 4 c 3.7712,0 5.6569,0 6.8284,-0.759234 C 22,13.754567 22,12.532573 22,10.088715 v 0 -2.5921336 C 22,5.6565986 22,4.5092712 21.5,3.7305831 v 8.3022279 c -0.9604,0 -1.8815,-0.247224 -2.5607,-0.687368 l -0.7516,-0.48706 c -0.7213,-0.467426 -1.082,-0.701171 -1.4909,-0.799672 -0.4495,-0.108221 -0.9441,-0.108221 -1.3936,0 -0.4089,0.0985 -0.7696,0.332246 -1.4909,0.799672 l -0.1131,0.07329 c -0.5854,0.379358 -0.878,0.568972 -1.189,0.604355 -0.2417,0.02748 -0.4905,-0.0036 -0.6992,-0.08723 -0.2685,-0.107702 -0.4315,-0.354214 -0.7576,-0.847301 L 11,10.520758 C 10.2504,9.3872208 9.87554,8.8204521 9.22167,8.6080273 8.89249,8.501102 8.52413,8.4551565 8.1572,8.4751807 7.42836,8.5150347 6.75554,8.9510953 5.40989,9.823087 L 3.5,11.060763 V 2.88739 C 3.3844,2.9431855 3.27519,3.0043986 3.17157,3.0715477 Z"
       fill="#ffffff"
       id="path1"
       style="stroke-width:0.805004" />
    <path
       d="M 3,7.4231509 C 3,6.2138046 3.00212,5.3703602 3.13753,4.7339762 3.26907,4.1157651 3.50966,3.7883951 3.87868,3.5552192 4.2477,3.3220433 4.76579,3.1700196 5.74416,3.0869023 6.75129,3.0013396 8.08611,3 10,3 h 4 c 1.9139,0 3.2487,0.00134 4.2558,0.086902 0.9784,0.083117 1.4965,0.235141 1.8655,0.4683169 0.369,0.2331759 0.6096,0.5605459 0.7412,1.178757 C 20.9979,5.3703602 21,6.2138046 21,7.4231509 v 2.5275148 c 0,1.2093523 -0.0021,2.0527843 -0.1375,2.6891493 -0.1316,0.61823 -0.3722,0.945607 -0.7412,1.17877 -0.369,0.233163 -0.8871,0.385193 -1.8655,0.468348 -1.0071,0.08556 -2.3419,0.08688 -4.2558,0.08688 h -4 c -1.91389,0 -3.24871,-0.0013 -4.25584,-0.08688 C 4.76579,14.203778 4.2477,14.051748 3.87868,13.818585 3.50966,13.585422 3.26907,13.258045 3.13753,12.639815 3.00212,12.00345 3,11.160018 3,9.9506657 Z"
       stroke="#ffffff"
       stroke-width="1.58982"
       id="path2" />
    <circle
       cx="15.924168"
       cy="7.9784765"
       r="2"
       fill="#ffffff"
       id="circle2" />
  </g>
  <rect
     style="fill:#ffffff;fill-rule:evenodd;stroke:none;stroke-width:0.525;paint-order:markers fill stroke"
     id="rect2"
     width="19.842295"
     height="4.7025084"
     x="2.0358422"
     y="16.659498"
     ry="0.99578309" />
</svg>
