<?xml version="1.0" encoding="UTF-8" standalone="no"?>
<!-- Created with Inkscape (http://www.inkscape.org/) -->

<svg
   width="32"
   height="32"
   viewBox="0 0 32 32"
   version="1.1"
   id="svg1"
   inkscape:version="1.4 (86a8ad7, 2024-10-11)"
   sodipodi:docname="favicon-btc.svg"
   inkscape:export-filename="favicon-btc.png"
   inkscape:export-xdpi="1836"
   inkscape:export-ydpi="1836"
   xml:space="preserve"
   xmlns:inkscape="http://www.inkscape.org/namespaces/inkscape"
   xmlns:sodipodi="http://sodipodi.sourceforge.net/DTD/sodipodi-0.dtd"
   xmlns="http://www.w3.org/2000/svg"
   xmlns:svg="http://www.w3.org/2000/svg"><sodipodi:namedview
     id="namedview1"
     pagecolor="#ffffff"
     bordercolor="#cccccc"
     borderopacity="1"
     inkscape:showpageshadow="0"
     inkscape:pageopacity="1"
     inkscape:pagecheckerboard="0"
     inkscape:deskcolor="#d1d1d1"
     inkscape:document-units="px"
     inkscape:zoom="14.34"
     inkscape:cx="25.732218"
     inkscape:cy="14.958159"
     inkscape:window-width="1842"
     inkscape:window-height="1057"
     inkscape:window-x="-8"
     inkscape:window-y="-8"
     inkscape:window-maximized="1"
     inkscape:current-layer="g17"
     inkscape:export-bgcolor="#ffffff00" /><defs
     id="defs1" /><g
     inkscape:groupmode="layer"
     id="layer4"
     inkscape:label="Layer 2" /><g
     inkscape:groupmode="layer"
     id="layer2"
     inkscape:label="Layer 3"
     transform="matrix(0.7632154,0,0,0.7632154,9.9965371,2.8401068)"><g
       style="fill:none"
       id="g17"
       transform="matrix(2.014252,0,0,2.014252,-16.30501,-6.9283253)"><rect
         style="fill:#ebaa6d;fill-opacity:1;stroke:#000000;stroke-width:0.131025;stroke-linecap:square;stroke-dasharray:none;paint-order:markers fill stroke"
         id="rect17"
         width="8.8628922"
         height="9.2283726"
         x="3.4400494"
         y="17.293865"
         transform="matrix(1.5646189,0,0,1.5646189,-0.37879221,-22.483612)" /><path
         fill-rule="evenodd"
         clip-rule="evenodd"
         d="M 12,2 C 10.1243,2 8.54878,2.0992 7.25007,2.38782 5.94002,2.67897 4.85116,3.176 4.01358,4.01358 3.176,4.85116 2.67897,5.94002 2.38782,7.25007 2.0992,8.54878 2,10.1243 2,12 2,13.8757 2.0992,15.4512 2.38782,16.7499 2.67897,18.06 3.176,19.1488 4.01358,19.9864 4.85116,20.824 5.94002,21.321 7.25007,21.6122 8.54878,21.9008 10.1243,22 12,22 13.8757,22 15.4512,21.9008 16.7499,21.6122 18.06,21.321 19.1488,20.824 19.9864,19.9864 20.824,19.1488 21.321,18.06 21.6122,16.7499 21.9008,15.4512 22,13.8757 22,12 22,10.1243 21.9008,8.54878 21.6122,7.25007 21.321,5.94002 20.824,4.85116 19.9864,4.01358 19.1488,3.176 18.06,2.67897 16.7499,2.38782 15.4512,2.0992 13.8757,2 12,2 Z m -2,4 c 0.5523,0 1,0.44772 1,1 v 0.5 h 1 V 7 c 0,-0.55228 0.4477,-1 1,-1 0.5523,0 1,0.44772 1,1 v 0.53587 c 0.6559,0.09655 1.2144,0.38454 1.6304,0.82135 0.5056,0.5309 0.7446,1.22273 0.7446,1.89278 0,0.6115 -0.199,1.2411 -0.6181,1.75 0.4191,0.5089 0.6181,1.1385 0.6181,1.75 0,0.6701 -0.239,1.3619 -0.7446,1.8928 -0.416,0.4368 -0.9745,0.7248 -1.6304,0.8213 V 17 c 0,0.5523 -0.4477,1 -1,1 -0.5523,0 -1,-0.4477 -1,-1 V 16.5 H 11 V 17 c 0,0.5523 -0.4477,1 -1,1 C 9.44772,18 9,17.5523 9,17 V 16.5 H 8 c -0.55228,0 -1,-0.4477 -1,-1 0,-0.5523 0.44772,-1 1,-1 h 1 v -5 H 8 C 7.44772,9.5 7,9.05228 7,8.5 7,7.94772 7.44772,7.5 8,7.5 H 9 V 7 C 9,6.44772 9.44772,6 10,6 Z"
         fill="#323232"
         id="path1" /><path
         fill-rule="evenodd"
         clip-rule="evenodd"
         d="M 11,11 V 9.5 h 2.5 c 0.3768,0 0.5752,0.12431 0.6821,0.23653 0.1194,0.12535 0.1929,0.30857 0.1929,0.51347 0,0.2049 -0.0735,0.3881 -0.1929,0.5135 C 14.0752,10.8757 13.8768,11 13.5,11 Z"
         fill="#323232"
         id="path2" /><path
         fill-rule="evenodd"
         clip-rule="evenodd"
         d="m 13.5,14.5 c 0.3768,0 0.5752,-0.1243 0.6821,-0.2365 0.1194,-0.1254 0.1929,-0.3086 0.1929,-0.5135 0,-0.2049 -0.0735,-0.3881 -0.1929,-0.5135 C 14.0752,13.1243 13.8768,13 13.5,13 H 11 v 1.5 z"
         fill="#323232"
         id="path3" /></g></g></svg>
