<?xml version="1.0" encoding="utf-8"?>
<!-- Generator: Adobe Illustrator 27.5.0, SVG Export Plug-In . SVG Version: 6.00 Build 0)  -->
<svg version="1.1" id="Layer_1" xmlns="http://www.w3.org/2000/svg" xmlns:xlink="http://www.w3.org/1999/xlink" x="0px" y="0px"
	 viewBox="0 0 2000 2000" style="enable-background:new 0 0 2000 2000;" xml:space="preserve">
<g>
	<g>
		<g>
			<g>
				<g>
					<rect transform="matrix(-1 -1.224647e-16 1.224647e-16 -1 2000 2000)" style="fill:#FFFFFF;" width="2000" height="2000"/>
					<path style="fill:#C3DAF7;" d="M1351.545,395.843c103.621,105.941,149.338,233.965,167.566,346.58
						c24.29,150.056,90.587,290.546,194.107,401.859c56.299,60.536,107.124,149.156,124.029,277.408
						c44.16,335.026-41.943,439.008-41.943,439.008l-1548.667-4.421c0,0-232.619-905.472,18.522-1340.491
						C516.301,80.766,1105.951,144.75,1351.545,395.843z"/>
					<path style="fill:#7A7A7A;" d="M753.357,595.096c-10.856-4.526-23.768-7.167-37.505-7.312
						c-12.74-19.123-42.443-31.887-76.201-31.887c-20.259,0-39.469,4.74-54.281,12.864c-16.484-23.762-54.346-40.369-97.244-40.369
						c-28.18,0-54.908,7.017-74.719,19.439c-2.836-0.283-5.701-0.427-8.57-0.427c-30.697,0-55.67,15.752-55.67,35.114
						c0,4.348,1.277,8.6,3.707,12.577H753.357z"/>
					<path style="fill:#7A7A7A;" d="M1379.241,1430.469c14.763-6.154,32.319-9.744,50.999-9.941
						c17.324-26.004,57.715-43.36,103.619-43.36c27.548,0,53.67,6.444,73.812,17.493c22.415-32.313,73.899-54.894,132.232-54.894
						c31.077,0,60.854,6.278,85.37,17.661c4.941,20.232,8.99,41.624,11.975,64.263c0.388,2.944,0.763,5.868,1.131,8.779H1379.241z"
						/>
					<path style="fill:#7A7A7A;" d="M152.326,1174.254h369.33c-10.855-4.526-23.767-7.166-37.504-7.313
						c-12.74-19.123-42.443-31.886-76.202-31.886c-20.259,0-39.468,4.738-54.281,12.864c-16.484-23.763-54.346-40.369-97.244-40.369
						c-28.18,0-54.908,7.018-74.719,19.44c-2.836-0.283-5.701-0.428-8.57-0.428c-7.866,0-15.346,1.047-22.136,2.911
						C151.311,1144.43,151.757,1159.363,152.326,1174.254z"/>
					<path style="fill:#7A7A7A;" d="M1240.753,688.506c-4.425,0-4.636-6.598-0.218-6.847c1.618-0.091,3.252-0.146,4.898-0.163
						c12.213-18.331,40.688-30.567,73.049-30.567c19.421,0,37.836,4.543,52.035,12.333c15.803-22.78,52.098-38.7,93.221-38.7
						c9.283,0,18.393,0.813,27.134,2.34c6.931,20.693,12.716,41.292,17.524,61.604H1240.753z"/>
					<path style="fill:#659BEB;" d="M163.64,1871.706h1714.319c8.522,0,15.431-6.908,15.431-15.43l0,0
						c0-8.521-6.908-15.431-15.431-15.431H163.64c-8.521,0-15.43,6.909-15.43,15.431l0,0
						C148.21,1864.798,155.118,1871.706,163.64,1871.706z"/>
				</g>
			</g>
		</g>
	</g>
	<g>
		<g>
			<path style="fill:#184655;" d="M691.229,1166.879c13.714-61.553-5.894-111.629,32.332-158.842
				c0.466-0.576,0.931-1.146,1.394-1.713c22.279-27.249,52.911-43.588,85.103-48.338c-20.707-23.925-30.156-64.544-30.156-64.544
				c38.318,10.892,64.399-5.905,64.399-5.905l-15.382,69.003c30.943-0.216,62.106,10.164,87.653,31.753
				c44.909,37.951,98.3,96.302,99.482,159.939c1.176,63.271,14.574,87.533-79.035,144.366
				c-96.447,58.556-142.162,6.761-200.166,14.53C678.85,1314.899,675.531,1237.334,691.229,1166.879z"/>
			<g>
				<g>
					<path style="fill:#F79C8D;" d="M842.997,1244.221h12.407H1062.2l-58.448,562.314c-2.04,19.632-18.535,34.545-38.21,34.545
						H855.404h-12.407H732.859c-19.675,0-36.17-14.913-38.21-34.545l-58.448-562.314H842.997z"/>
					<path style="fill:#B75742;" d="M626.389,1276.518h442.037c8.347,0,15.112-6.768,15.112-15.113v-18.334
						c0-8.346-6.766-15.113-15.112-15.113H626.389c-8.347,0-15.113,6.767-15.113,15.113v18.334
						C611.275,1269.75,618.042,1276.518,626.389,1276.518z"/>
					<polygon style="opacity:0.2;fill:#FFFFFF;" points="959.478,1276.518 918.69,1841.08 769.137,1841.08 731.371,1276.518 					
						"/>
				</g>
				<g style="opacity:0.6;">
					<g>
						<path style="fill:#FFFFFF;" d="M802.914,1513.617l-30.928,53.607c0,0-8.235,12.852-2.928,25.703l-27.409-46.253
							c-3.624-6.116-5.105-13.334-3.864-20.338c0.369-2.083,0.94-4.091,1.81-5.743c3.478-6.609,18.85-32.863,18.85-32.863
							l-25.438-14.32l63.868-2.387l29.097,55.813L802.914,1513.617z"/>
						<path style="fill:#FFFFFF;" d="M782.601,1557.678h45.019v52.14h-30.013c0,0-32.208-2.569-24.339-34.146L782.601,1557.678z"/>
					</g>
					<g>
						<path style="fill:#FFFFFF;" d="M879.353,1555.014l61.726-1.418c0,0,15.225,0.363,23.398-10.873l-25.094,47.557
							c-3.318,6.287-8.689,11.314-15.298,13.899c-1.964,0.767-3.971,1.324-5.83,1.439c-7.435,0.463-37.78,0.963-37.78,0.963
							l1.056,29.244l-35.282-53.463l32.35-53.979L879.353,1555.014z"/>
						<path style="fill:#FFFFFF;" d="M927.428,1549.475l-23.438-38.561l44.374-27.144l15.625,25.707c0,0,14.581,28.926-16.39,38.624
							L927.428,1549.475z"/>
					</g>
					<path style="fill:#FFFFFF;" d="M875.896,1467.027l-31.189-53.456c0,0-7.07-13.531-20.83-15.25l53.626-1.063
						c7.091-0.142,14.079,2.133,19.538,6.676c1.622,1.35,3.08,2.841,4.083,4.414c4.011,6.299,19.173,32.675,19.173,32.675
						l24.976-15.116l-29.478,56.891l-62.744-2.185L875.896,1467.027z"/>
					<path style="fill:#FFFFFF;" d="M847.739,1427.545l-22.235,39.269l-45.19-25.754l14.823-26.18c0,0,18.136-26.826,41.618-4.365
						L847.739,1427.545z"/>
				</g>
			</g>
		</g>
		<g>
			<path style="fill:#F48C7F;" d="M1630.014,700.201c-5.515,5.868-14.744,8.22-15.891,6.982c-1.492-1.61-0.15-7.252,0.609-9.025
				c0.76-1.773,1.479-3.922,2.238-5.695c0.76-1.772,0.068-3.808-2.072-4.914c-2.141-1.108-6.708,5.299-7.844,7.827
				c-3.544,7.888-8.761,30.884-9.418,33.294c-0.776,2.85-42.332,34.119-55.715,45.967c0,0-0.004-0.004-0.005-0.006
				c-22.487,18.74-46.543,36.871-48.935,38.844l-129.776,34.881l10,58c0,0,134.827-47.1,140.97-50.465
				c2.923-1.602,51.664-49.081,51.647-49.102c22.521-24.896,42.306-46.892,46.228-51.007c0,0,15.044-9.15,24.969-14.41
				c6.361-3.371,4.526-14.275,8.089-17.818c-8.808-10.617-5.366-3.162-11.364-15.494
				C1633.068,706.82,1630.785,701.352,1630.014,700.201z"/>
			<g>
				<path style="fill:#F7A491;" d="M1358.641,1799.324c-1.321-9.492,1.646-25.822,9.056-51.366
					c-14.674,0.034-27.013-6.481-42.01-6.253c-4.097,24.023-10.44,63.468-10.44,63.468l-0.68,31.183l104.427,0.787
					c0,0-0.869,0.449-31.656-19.059C1385.061,1816.641,1359.917,1808.496,1358.641,1799.324z"/>
				<path style="fill:#13375B;" d="M1314.066,1844.369h107.801c3.986-0.36,4.958-3.622,3.576-5.633
					c-2.847-4.141-23.872-14.08-38.008-20.676c-24.794,2.615-68.374-7.618-72.287-13.379
					C1308.349,1823.759,1311.851,1843.877,1314.066,1844.369z"/>
			</g>
			<g>
				<path style="fill:#F7A491;" d="M1228.555,1799.324c-1.321-9.492-3.568-21.379-0.275-53.032
					c-14.674,0.034-28.639-2.728-43.635-2.499c0,24.712,0.516,61.38,0.516,61.38l-0.68,31.183l104.427,0.787
					c0,0-0.869,0.449-31.656-19.059C1254.975,1816.641,1229.832,1808.496,1228.555,1799.324z"/>
				<path style="fill:#13375B;" d="M1183.98,1844.369h107.801c3.986-0.36,4.958-3.622,3.575-5.633
					c-2.846-4.141-23.87-14.08-38.006-20.676c-24.796,2.615-68.374-7.618-72.288-13.379
					C1178.264,1823.759,1181.764,1843.877,1183.98,1844.369z"/>
			</g>
			<path style="fill:#B75742;" d="M1329.822,1119.134l-31.854,17.817l-64.748,99.286l115.794,273.329
				c0,0-13.04,41.104-17.289,61.641c-4.446,21.486-15.349,205.905-15.349,205.905l49.399,0.833c0,0,46.922-196.328,54.868-260.049
				c9.649-77.381-49.104-261.667-49.104-261.667c-10.957-37.601-34.58-114.95-34.58-114.95S1331.18,1122.432,1329.822,1119.134z"/>
			<path style="fill:#F47458;" d="M1218.949,1081.843c0,0,3.292,23.357-9.88,49.996c-8.03,16.24-21.901,28.974-31.835,48.868
				c-18.799,37.647-29.007,91.127-21.956,125.5c0,0,38.867,148.845,37.324,203.244c-0.569,20.06-7.431,56.203-11.822,80.636
				c-3.882,21.599-2.518,181.843-2.518,181.843l52.487,1.018l42.244-262.825l17.858-233.624l38.964-157.358L1218.949,1081.843z"/>
			<path style="fill:#13375B;" d="M1341.588,734.62c-5.094-24.127-10.352-48.341-34.257-65.719
				c-19.347-14.063-40.134-18.082-62.173-10.066c-62.443,22.712-28.856,72.409-106.347,125.378
				c-24.078,16.459-33.218,22.198-50.497,44.131c-24.188,30.7-37.406,71.893-25.249,105.805
				c25.143,70.13,103.052,90.392,143.808,75.521c75.859-27.677,139.06-124.161,143.26-150.49
				C1354.628,831.002,1344.867,750.15,1341.588,734.62z"/>
			<path style="fill:#F7CC7F;" d="M1349.789,919.248c15.5-2,69.75-15.625,69.75-15.625l-5.166-74.5
				c-63.078,9.5-104.334,6.831-170.651,7.06c-61.39,0.212-87.109-10.877-139.969,132.227c0,0,40.239,18.131,54.647,23.949
				c6.194-17.688,17.394-52.969,23.923-32.856c9.864,30.387,17.091,61.063,21.935,92.643c3.078,18.721,9.773,42.684,6.254,61.759
				c0,0,41.805,8.632,73.736,10.037c0.09,0.004,0.183,0.009,0.273-0.006c15.431-0.394,31.231-1.759,45.302-4.802
				c0,0,6.261-132.751,9.606-138.291c3.705-6.133,19.348-25.95,6.037-55.588C1343.113,920.016,1345.826,919.759,1349.789,919.248z"
				/>
			<path style="fill:#F7A491;" d="M1253.341,777.091c0,0-4.89,39.591-7.771,53.335c-3.015,14.382-7.552,59.674,22.187,67.028
				c29.737,7.354,20.547-49.281,21.039-63.904c0.491-14.624,8.918-65.615,8.918-65.615L1253.341,777.091z"/>
			<path style="fill:#F47458;" d="M1251.724,789.724c0.303,0.182,0.585,0.377,0.895,0.555c16.435,9.45,30.741,7.959,41.478,0.604
				c1.917-12.656,3.617-22.948,3.617-22.948l-44.372,9.156C1253.341,777.091,1252.689,782.367,1251.724,789.724z"/>
			<path style="fill:#F7A491;" d="M1262.281,673.993c0,0-17.426,4.914-27.474,22.269c-10.048,17.355-15.062,67.197,21.927,88.465
				c36.988,21.268,63.242-12.808,62.123-44.686C1317.739,708.163,1308.883,665.994,1262.281,673.993z"/>
			<path style="fill:#F7A491;" d="M1327.03,726.361c0.41,8.286-3.124,15.199-7.896,15.44c-4.77,0.243-8.971-6.278-9.382-14.564
				c-0.409-8.285,3.125-15.198,7.896-15.44S1326.619,718.075,1327.03,726.361z"/>
			<path style="fill:#13375B;" d="M1267.519,672.681c0,0-19.94,52.13-39.454,57.686c-19.514,5.556-17.956,31.199-17.956,31.199
				s-2.498-59.271,15.327-73.801C1243.261,673.236,1267.519,672.681,1267.519,672.681z"/>
			<path style="fill:#F7A491;" d="M1236.434,740.568c3.009,8.148,1.035,16.422-4.408,18.48c-5.445,2.059-12.298-2.879-15.307-11.028
				c-3.01-8.148-1.036-16.422,4.408-18.48C1226.57,727.482,1233.424,732.419,1236.434,740.568z"/>
			<path style="fill:#FFFFFF;" d="M1266.502,757.854l34.076-3.66c0,0,0.601,13.064-14.338,15.107
				C1268.024,771.794,1266.502,757.854,1266.502,757.854z"/>
			<g>
				<g>
					<path style="opacity:0.6;fill:#CFE9FA;" d="M1307.312,1103.643l0.212-0.486c3.711-8.503,0.778-18.24-6.518-23.424
						c-1.221-0.867-1.646-2.485-1.049-3.856l3.348-7.67l-7.791-3.416l-3.35,7.674c-0.598,1.369-2.069,2.155-3.533,1.846
						c-8.742-1.841-17.854,2.607-21.562,11.104l-0.213,0.486c-0.645,1.479-0.053,3.187,1.321,3.97l-11.641,26.674
						c-1.67-0.216-3.348,0.675-4.054,2.294l-16.81,38.519c-2.743,6.285,0.137,13.617,6.432,16.378l8.829,3.872l8.829,3.872
						c6.295,2.761,13.621-0.098,16.364-6.381l16.81-38.519c0.707-1.619,0.22-3.458-1.071-4.542l11.641-26.674
						C1305.014,1105.843,1306.667,1105.12,1307.312,1103.643z"/>
					<path style="fill:#FF5B7E;" d="M1301.852,1073.291l-9.145-4.01c-0.697-0.307-1.016-1.121-0.71-1.821l1.198-2.745
						c0.305-0.699,1.117-1.018,1.814-0.713l9.145,4.012c0.697,0.305,1.016,1.12,0.71,1.82l-1.198,2.745
						C1303.361,1073.278,1302.549,1073.596,1301.852,1073.291z"/>
					<path style="opacity:0.3;fill:#CFE9FA;" d="M1291.866,1132.037l11.641-26.674l-17.71-7.768c0,0,12.599,7.486,11.035,13.567
						c-1.563,6.081-3.637,21.976-22.922,13.798c0,0,15.141,8.28,12.684,16.783c-2.456,8.503-12.672,45.404-35.659,35.862
						l8.829,3.872c6.295,2.761,13.621-0.098,16.364-6.381l16.81-38.519C1293.645,1134.96,1293.157,1133.121,1291.866,1132.037z"/>
				</g>
				<path style="fill:#F7A491;" d="M1291.307,1144.088c0.547-1.574,2.349-3.676,1.58-5.031c0,0-1.466-1.265-2.83-1.162
					c-1.363,0.103-2.926,2.775-3.771,2.997c-0.845,0.22-3.043,1.212-4.124,0.39c-1.079-0.821-7.699-4.958-8.875-6.009
					c-1.177-1.052-5.454-3.753-6.098-4.491c-0.643-0.736-4.679-5.422-3.638-7.74s7.454-3,7.454-3s8.865,1.176,11.435-1.649
					c0,0,1.445-2.153,0.272-3.677c0,0-1.374-0.564-2.544-0.474c-1.168,0.088-3.455-0.092-5.134-1.066
					c-1.68-0.974-3.024-1.147-4.403-1.239c-1.379-0.093-6.874,1.344-8.447,1.268c-1.572-0.078-4.957-0.805-8.482,1.82
					c-3.525,2.623-8.046,3.986-10.994,5.428c-1.703,0.832-7.309-1.035-11.74-2.761l-11.479-6.595
					c-5.828-3.799-4.517-2.953-9.654-6.321c-1.91-1.255-3.787-2.511-5.632-3.699c-72.979-47.923-74.329-49.773-74.692-50.797
					c-1.416-3.931,12.021-36.034,23.416-60.243c-12.416-5.219-34.612-15.127-45.053-19.817
					c-13.535,38.444-30.101,89.077-28.882,95.615c2.173,11.66,146.339,76.41,148.748,77.816l0.054-0.274l6.369,3.107
					c0,0,1.996,2.049,3.591,3.461s7.093,3.668,7.093,3.668s11.88,5.822,12.982,5.896c1.103,0.072,9.078,2.968,10.428,2.668
					c1.348-0.299,4.392-1.51,5.607-1.484c1.217,0.025,3.684-0.003,5.43-1.275c1.746-1.271,4.157-2.553,4.496-4.308
					c0,0,3.18-2.009,4.308-3.154c1.128-1.146,1.89-3.012,1.786-4.379l-0.496-0.867
					C1289.387,1146.708,1290.758,1145.662,1291.307,1144.088z"/>
			</g>
			<path style="fill:#184655;" d="M1612.797,760.152l-21.98-84.257c-0.569-2.181,0.182-4.403,1.813-5.367l26.379-15.586
				c2.312-1.367,5.301,0.34,6.037,3.447l19.905,83.932c0.493,2.077-0.2,4.168-1.708,5.156l-24.304,15.911
				C1616.666,764.877,1613.609,763.267,1612.797,760.152z"/>
			<path style="fill:#F8A492;" d="M1639.786,703.212c-1.54-4.122-2.93-7.609-6.313-5.679c-3.404,1.942-20.797,14.025-23.1,16.936
				c-2.303,2.912-1.539,5.257,0.151,5.289c1.454,0.028,20.672-10.393,20.672-10.393s2.452-1.322,1.874,0.501
				c-0.578,1.822-18.016,11.33-20.475,13.413c-2.459,2.083-3.518,5.026-1.155,6.235c2.873,1.471,21.15-10.25,21.15-10.25
				s2.306-1.415,2.272,0.073c-0.033,1.488-14.942,9.238-16.106,10.847c-1.163,1.608-1.266,4.546,1.093,4.994
				c2.778,0.527,19.045-10.127,19.045-10.127s1.363-0.333,1.036,0.717s-12.788,8.903-13.735,11.181
				c-0.795,1.913,0.343,2.794,0.343,2.794c2.078,2.669,16.772-6.737,17.686-7.378c3.568-2.505,1.837-10.981,0.112-15.592
				L1639.786,703.212z"/>
		</g>
		<g>
			<path style="fill:#184655;" d="M424.912,684.948c-8.479,34.959,37.402,60.343,73.731,61.271
				c23.61,0.603,34.463-1.822,38.281-26.703c6.192-40.357-10.437-64.959-33.732-75.142
				C473.131,631.238,431.906,656.108,424.912,684.948z"/>
			<path style="fill:#B75742;" d="M710.402,1658.438l-48.705,161.774l17.533,7.424l10.131-25.79l-3.312,29.307h4.87l5.065-18.365
				l-0.39,38.294c0,0,40.523,0,60.004-6.253v-27.353l6.234,26.181l6.179-3.405c0,0-3.062-32.153-2.671-30.2
				c0.389,1.955,5.065,16.803,5.065,16.803l6.624-1.092l-2.728-23.525l7.403,22.272l7.014-3.907l-35.847-162.164l-18.703-20.712
				L710.402,1658.438z"/>
			<g>
				<path style="fill:#355389;" d="M730.273,1664.575c-4.897,0-8.866-5.116-8.866-11.429V707.533c0-6.312,3.97-11.429,8.866-11.429
					c4.896,0,8.866,5.117,8.866,11.429v945.613C739.139,1659.459,735.169,1664.575,730.273,1664.575z"/>
			</g>
			<path style="fill:#F7A491;" d="M559.775,1786.553c-1.979-14.197-2.602-36.009-2.394-61.18h-49.723
				c5.172,35.639,9.22,63.377,9.22,63.377l-1.236,11.266l-0.032,33.265h108.782c0,0-23.089-10.343-55.386-30.786
				C566.617,1800.983,561.113,1796.162,559.775,1786.553z"/>
			<path style="fill:#F7A491;" d="M347.71,1778.193l14.456-41.424h-37.851c-1.971,26.589-2.707,44.533-2.707,44.533l-9.621,27.238
				l-9.774,32.367c0,0,32.196,8.297,49.085-1.031l-1.874-32.219L347.71,1778.193z"/>
			<path style="fill:#F7CC7F;" d="M544.061,877.815c-13.127-17.945-67.289-69.925-73.305-69.818
				c-17.54,0.308-75.113,0.329-86.369,6.047l0.544,98.955c1.835,8.305,41.579,137.685,39.272,166.008l0.275,0.266
				c33.311,32.17,85.848,29.642,116.313-5.598l0,0c0,0-0.132-39.247,4.56-75.046C552.699,942.543,576.67,922.39,544.061,877.815z"/>
			<path style="fill:#F7A491;" d="M453.107,752.29c0,0,1.518,36.509-1.762,50.35c-3.279,13.842-7.65,14.889,20.498,19.1
				c11.057,1.654,21.72,4.122,21.72,4.122s-2.889-20.327-3.326-28.906c-0.719-14.131,3.254-57.768,3.254-57.768L453.107,752.29z"/>
			<path style="fill:#F47458;" d="M474.543,770.458c5.791,3.131,11.201,4.979,16.189,5.747c0.957-17.238,2.758-37.017,2.758-37.017
				l-38.526,12.499C459.436,759.154,465.791,765.727,474.543,770.458z"/>
			<path style="fill:#13375B;" d="M349.416,1807.527c-14.856,6.617-30.85,2.627-37.282,0.515l-2.138,5.756l-8.191,27.316
				c0,0,32.604,8.091,49.492-1.237L349.416,1807.527z"/>
			<path style="fill:#13375B;" d="M514.485,1841.542h113.089c4.182-0.378,5.201-3.797,3.751-5.903
				c-2.985-4.339-16.179-7.521-31.007-14.433c-26.012,2.741-80.592-15.218-84.697-21.255
				C513.252,1812.039,512.161,1841.025,514.485,1841.542z"/>
			<path style="fill:#355389;" d="M505.921,1080.9l-66.276,471.471l-60.359,217.393h-65.662c0,0,15.24-175.143,47.905-237.188
				c0,0,14.263-166.256,28.534-267.937c2.133-15.199-8.428-54.649-5.676-64.842c21.17-78.376,39.816-120.792,39.816-120.792
				L505.921,1080.9z"/>
			<path style="fill:#466EB6;" d="M464.943,1284.756l15.339,181.115c0,0-15.679,103.504-4.916,172.18
				c10.763,68.676,25.018,131.713,25.018,131.713h60.358l11.995-342.023c0,0,23.199-185.844,15.166-236.24
				c-8.033-50.395-47.112-117.826-47.112-117.826l-94.943,4.342c0,0-25.748,92.256-21.395,123.217
				C427.685,1224.223,464.943,1284.756,464.943,1284.756z"/>
			<path style="fill:#355389;" d="M758.08,1681.996l-6.672-46.381l-12.7-16.968h-6.62h-3.631h-6.62l-12.699,16.968l-6.201,46.75
				C712.431,1677.234,748.587,1676.865,758.08,1681.996z"/>
			<path style="fill:#F8A492;" d="M756.548,873.553c2.604-2.787,2.872-5.169,1.7-7.1c-1.171-1.93-3.501-3.097-3.705-3.482
				c-0.205-0.384,0.442-1.4,0.442-1.4c1.729-1.709,0.844-4.898-0.28-6.302c-1.123-1.404-4.275-2.537-5.631-2.306
				c-1.355,0.23-1.727-0.287-1.727-0.287c-0.382-2.315-5.637-6.673-8.258-6.007c-2.621,0.666-11.182,8.617-12.393,8.954
				c-1.212,0.338-3.52,0.721-4.771,1.855c-1.252,1.135-13.172,6.62-14.944,8.227c-1.773,1.607-4.283,9.964-6.781,14.13
				c-2.499,4.165-3.733,12.886-4.251,15.255c-0.303,1.387-4.307,5.217-7.577,8.157c-2.659,2.461-84.658,67.604-108.108,90.259
				l-37.029-82.943l-59.675,10.455c-0.714-0.375,39.98,126.601,78.878,131.726c43.021,5.668,138.948-116.046,148.542-128.448
				c2.95-2.262,5.905-4.456,6.525-4.66c1.316-0.433,8.128-5.278,8.649-5.751c0.522-0.472,3.654-1.412,4.97-1.844
				c1.315-0.433,13.139-11.911,15.12-13.707c1.982-1.797,4.937-7.136,4.937-7.136l7.568-8.002
				C764.307,877.321,756.548,873.553,756.548,873.553z"/>
			<path style="fill:#F0A267;" d="M449.958,860.874c-8.145,33.534,35.295,108.301,35.295,108.301s61.884-29.199,72.761-41.781
				c0,0-42.041-72.554-44.797-76.965c-12.475-19.971-29.41-19.995-40.453-18.691C463.897,832.784,449.958,860.874,449.958,860.874z"
				/>
			<path style="fill:#184655;" d="M453.024,864.197c35.416-20.667,32.272-77.654,13.591-110.487
				c12.977-16.886,21.294-13.874,18.4-34.881c-5.71-41.438,51.959-66.391,8.883-77.411c-43.531-8.731-79.739,18.011-99.648,44.575
				c-8.972,11.969-20.137,22.318-33.408,29.595c-26.294,14.418-40.162,49.018-26.197,85.085
				c-21.057,11.813-39.439,45.972-25.504,74.333c3.344,6.809,10.104,14.775,10.313,16.727c-0.401-2.402-19.615,60.851,52.142,82.392
				C444.818,996.105,481.059,914.864,453.024,864.197z"/>
			<path style="fill:#F7A491;" d="M478.267,661.429c0,0-15.972,5.375-24.484,21.502c-8.514,16.127-4.281,67.769,31.14,84.8
				c35.422,17.03,51.702-21.644,49.133-50.182C531.485,689.011,521.227,651.669,478.267,661.429z"/>
			<path style="fill:#FFFFFF;" d="M500.395,740.922l25.137-0.384c0,0-0.435,9.73-11.484,10.225
				C500.574,751.365,500.395,740.922,500.395,740.922z"/>
			<path style="fill:#184655;" d="M441.193,722.012c-5.24-26.689-3.188-46.915,15.772-56.682
				c18.961-9.767,35.168-19.45,52.138-1.896l3.835,2.163c0,0-32.019,8.85-33.806,25.854c-1.786,17.005-18.809,37.219-16.188,45.571
				c2.621,8.352,5.645,25.009,5.645,25.009l-7.012-5.766C461.578,756.265,446.434,748.701,441.193,722.012z"/>
			<path style="fill:#F7A491;" d="M474.197,711.796c2.646,7.371,0.647,14.77-4.465,16.526c-5.11,1.757-11.398-2.793-14.044-10.164
				c-2.646-7.37-0.646-14.77,4.465-16.526C465.265,699.875,471.553,704.426,474.197,711.796z"/>
		</g>
	</g>
</g>
</svg>
