<?xml version="1.0" encoding="UTF-8" standalone="no"?>
<!-- Created with Inkscape (http://www.inkscape.org/) -->

<svg
   width="32"
   height="32"
   viewBox="0 0 32 32"
   version="1.1"
   id="svg1"
   inkscape:version="1.4 (86a8ad7, 2024-10-11)"
   sodipodi:docname="favicon.svg"
   xmlns:inkscape="http://www.inkscape.org/namespaces/inkscape"
   xmlns:sodipodi="http://sodipodi.sourceforge.net/DTD/sodipodi-0.dtd"
   xmlns="http://www.w3.org/2000/svg"
   xmlns:svg="http://www.w3.org/2000/svg">
  <sodipodi:namedview
     id="namedview1"
     pagecolor="#ffffff"
     bordercolor="#cccccc"
     borderopacity="1"
     inkscape:showpageshadow="0"
     inkscape:pageopacity="1"
     inkscape:pagecheckerboard="0"
     inkscape:deskcolor="#d1d1d1"
     inkscape:document-units="px"
     inkscape:zoom="13.421875"
     inkscape:cx="30.174622"
     inkscape:cy="19.63213"
     inkscape:window-width="1920"
     inkscape:window-height="1017"
     inkscape:window-x="-8"
     inkscape:window-y="-8"
     inkscape:window-maximized="1"
     inkscape:current-layer="layer1"
     inkscape:export-bgcolor="#ffffffff" />
  <defs
     id="defs1" />
  <g
     inkscape:groupmode="layer"
     id="layer4"
     inkscape:label="Layer 2">
    <rect
       style="fill:#ebaa6d;stroke-linecap:round;stroke-linejoin:round;stroke-opacity:0.968627;paint-order:markers fill stroke;fill-opacity:1"
       id="rect1"
       width="32"
       height="31.925495"
       x="0"
       y="0.07450524" />
  </g>
  <g
     inkscape:label="Layer 1"
     inkscape:groupmode="layer"
     id="layer1">
    <path
       style="fill:#000000;fill-opacity:1;stroke:none;stroke-width:0.041559;stroke-linecap:round;stroke-linejoin:round;stroke-dasharray:none;stroke-opacity:0.968627;paint-order:markers fill stroke"
       d="m 10.674383,12.862329 c 0.0043,0.253504 0.0075,0.509891 0.0576,0.758438 0.03997,0.198409 0.155347,0.376981 0.192008,0.576027 0.169174,0.918449 -0.0079,1.873944 0.119186,2.799159 0.102458,0.746062 0.255905,1.492745 0.51593,2.199492 0.253001,0.68765 0.53336,1.394114 1.004706,1.955101 0.262894,0.312893 0.589376,0.612145 0.977551,0.739953 0.573026,0.188669 1.19488,0.200082 1.80973,-0.02133 0.336613,-0.121217 0.147366,0.0803 0.07749,-0.270577 -0.03148,-0.158051 -0.632901,0.07174 -0.93682,0 -0.334869,-0.07905 -0.710559,-0.191158 -0.923244,-0.461621 -0.175086,-0.222649 -0.09568,-0.447052 -0.190078,-0.828203 -0.764759,-3.087828 -0.826899,-2.515997 -0.707159,-3.798262 0.06172,-0.660988 0.720739,-1.856603 0.720739,-1.856603 0,0 0.119402,-0.35316 0.149348,-0.536295 0.05558,-0.339914 0.242507,-0.743392 0.05431,-1.031861 -0.349049,-0.53502 -2.070324,0.112905 -2.425473,-0.418086 -0.193388,-0.28914 -0.644384,0.04611 -0.495823,0.194669 z"
       id="path377"
       sodipodi:nodetypes="sssssaassaasacassss" />
    <path
       style="fill:#000000;fill-opacity:1;stroke:none;stroke-width:0.041559;stroke-linecap:round;stroke-linejoin:round;stroke-dasharray:none;stroke-opacity:0.968627;paint-order:markers fill stroke"
       d="m 12.943975,22.508256 c 0.199156,0.490643 0.529855,0.915734 0.773895,1.384867 0.538059,1.03433 0.932867,2.142974 1.520636,3.149885 0.199997,0.342617 0.381218,0.715266 0.678856,0.977554 0.08808,0.07762 0.194879,0.164704 0.312272,0.162924 0.212733,-0.0032 0.405523,-0.162534 0.556662,-0.312274 0.09154,-0.09069 0.15804,-0.211147 0.192267,-0.33538 0.128999,-0.468224 -0.04158,-0.975708 0.02497,-1.456796 0.07054,-0.509982 0.205383,-1.014338 0.393737,-1.493481 0.214075,-0.544583 0.565268,-1.025045 0.828202,-1.54779 0.238343,-0.47385 0.471499,-0.950968 0.678855,-1.439174 0.05488,-0.129198 0.126476,-0.260287 0.128983,-0.400524 0.0022,-0.124622 -0.02438,-0.457455 -0.101828,-0.359794 -0.150895,0.190285 -0.269032,0.536535 -0.410707,0.801051 -0.301095,0.562157 -0.556369,1.155677 -0.933427,1.669983 -0.253656,0.345989 -0.546579,0.669984 -0.88251,0.93682 -0.323963,0.257325 -0.698542,0.366738 -0.970764,0.624547 -0.273388,0.258909 0.182717,0.730441 0.156137,1.099743 -0.01388,0.19284 0.01926,0.491928 -0.162924,0.556662 -0.23303,0.0828 -0.448336,-0.234585 -0.61097,-0.42089 -0.646877,-0.741025 -0.8383,-1.782341 -1.330557,-2.633958 -0.162821,-0.281682 -0.290624,-0.601718 -0.535273,-0.816201 -0.08529,-0.07477 -0.349166,-0.252867 -0.306508,-0.147774 z"
       id="path380"
       sodipodi:nodetypes="ssassaaasasasaassaaasas" />
    <path
       style="fill:#211214;fill-opacity:1;stroke:none;stroke-width:0.041559;stroke-linecap:round;stroke-linejoin:round;stroke-dasharray:none;stroke-opacity:0.968627;paint-order:markers fill stroke"
       d="m 10.789589,7.6588797 c -0.300064,0.7948254 -0.195739,1.6880904 -0.268812,2.5345223 -0.0331,0.383445 -0.08178,0.767217 -0.0768,1.152057 0.0054,0.416635 -0.03344,1.095433 0.164613,1.391017 0.06255,0.09336 0.425323,-0.04249 0.543994,-0.04592 0.241456,-0.007 0.102089,-0.421425 0.145674,-0.669602 0.08993,-0.512077 0.04548,-0.733817 0.165185,-1.10561 0.212175,-0.658986 0.63993,-1.0640781 1.154131,-1.5276251 0.204138,-0.184027 0.320911,-0.4099672 0.576095,-0.5120382 0.914229,-0.365681 1.488462,-0.8152222 2.472953,-0.8327812 0.751202,-0.013408 1.523793,0.1881895 2.188906,0.5376256 0.545816,0.286761 1.382466,1.228859 1.382466,1.228859 0,0 0.889712,0.7507289 1.267261,1.1904579 0.323817,0.377146 0.583388,0.785213 0.931246,1.161657 0.07004,0.0758 0.144046,0.09778 0.220811,0.0288 0.290994,-0.261483 0.268811,-1.142454 0.268811,-1.142454 0,0 -0.523153,-1.2026439 -0.384017,-1.7760849 0.02357,-0.09716 0.198664,-0.130657 0.192009,-0.230412 -0.06016,-0.9016909 -1.996895,-1.8336862 -1.996895,-1.8336862 0,0 -0.898237,-0.6335201 -1.344065,-0.9312461 -0.36021,-0.2405491 -0.671736,-0.5721843 -1.075252,-0.7296337 -1.13331,-0.4422116 -2.39329,-0.5481489 -3.609774,-0.5376272 -0.46716,0.00404 -0.997296,-0.033972 -1.382466,0.230412 -0.477832,0.3279911 -0.56826,1.0111626 -0.883242,1.4976714 -0.204607,0.316025 -0.519863,0.5694299 -0.652832,0.9216437 z"
       id="path376"
       sodipodi:nodetypes="sassssssssscssscsacsssssss" />
    <path
       style="fill:#ddf7f7;fill-opacity:1;stroke-linecap:round;stroke-linejoin:round;stroke-opacity:0.968627;paint-order:markers fill stroke"
       id="path1"
       sodipodi:type="arc"
       sodipodi:cx="16.63649"
       sodipodi:cy="-14.175991"
       sodipodi:rx="0.5"
       sodipodi:ry="0.5"
       sodipodi:start="2.5524513"
       sodipodi:end="1.9860354"
       sodipodi:arc-type="slice"
       d="m 16.220781,-13.898167 a 0.5,0.5 0 0 1 0.082,-0.650163 0.5,0.5 0 0 1 0.655227,-0.01058 0.5,0.5 0 0 1 0.10295,0.647175 0.5,0.5 0 0 1 -0.626168,0.193256 l 0.201704,-0.45751 z"
       transform="scale(1,-1)" />
  </g>
</svg>
