<svg width="32" height="32" viewBox="0 0 32 32" id="svg1" inkscape:version="1.3.2 (091e20ef0f, 2023-11-25, custom)" sodipodi:docname="favicon.svg" xmlns:inkscape="http://www.inkscape.org/namespaces/inkscape" xmlns:sodipodi="http://sodipodi.sourceforge.net/DTD/sodipodi-0.dtd" xmlns="http://www.w3.org/2000/svg" xmlns:svg="http://www.w3.org/2000/svg"><sodipodi:namedview id="namedview1" pagecolor="#505050" bordercolor="#ffffff" borderopacity="1" inkscape:showpageshadow="0" inkscape:pageopacity="0" inkscape:pagecheckerboard="1" inkscape:deskcolor="#505050" inkscape:document-units="px" inkscape:zoom="23.112442" inkscape:cx="11.487319" inkscape:cy="17.090362" inkscape:window-width="1916" inkscape:window-height="1047" inkscape:window-x="0" inkscape:window-y="0" inkscape:window-maximized="1" inkscape:current-layer="layer3"/><defs id="defs1"/><g inkscape:groupmode="layer" id="layer3" inkscape:label="Layer 2"><circle style="display:inline;opacity:1;fill:#d98c45;stroke:#000;stroke-width:0;stroke-linecap:round;stroke-linejoin:round;paint-order:fill markers stroke;fill-opacity:1" id="path2" cx="16" cy="16" r="16"/></g><g inkscape:groupmode="layer" id="layer4" inkscape:label="Layer 3" style="display:inline"/><g inkscape:label="Layer 1" inkscape:groupmode="layer" id="layer1"><path style="display:none;opacity:.97296;fill:#000;stroke:#000;stroke-width:0;stroke-linecap:round;stroke-linejoin:round;paint-order:fill markers stroke" id="path30" d="m15.706933 7.4052846c.06863-.072784.127486-.1522795.188565-.2311801.0504-.084173.104214-.170529.126819-.2674047.0063-.026997.01879-.1419551.02166-.1667205C16.065902 6.554004 16.038313 6.370701 15.9642 6.1997173 15.872308 5.977564 15.74579 5.7741285 15.585932 5.595217 15.377034 5.3696981 15.111483 5.21609 14.836667 5.085485 14.498427 4.92904 14.170892 4.8647967 13.802498 4.8328727c-.356812-.037398-.6908.00305-1.03453.097573-.144823.047347-.288379.1021923-.420767.1785769-.54438.3140923-.891061.4482223-1.283547.8062165-.190047.1778903-.265267.4116716-.324667.6567852-.03164.153176-.04806.3074214-.03196.4637134.005.048266.03334.1893064.04237.2360058.06109.2511989.177586.4826703.312982.7011513.161213.2478651.357107.4688419.554311.6880666.221293.2315665.441994.4637245.656152.7019237.1117.1253445.211782.259397.314097.3921354.03982.051666.08412.099907.122083.1529523.07578.1058752.15521.2477162.220658.3596182.117855.245409.228951.49551.312809.754921.03076.09515.07213.25563.0981.353261.09071.309405.13055.628187.148434.949027.0099.310956-.03401.618654-.0892.92363-.07462.338482-.194107.664499-.335639.980163-.169383.360748-.409211.678693-.669974.97736-.264364.29697-.578331.53984-.909562.756789-.629421.368715.523931-.300329.782589-.456077.04927-.02967-.102719.05184-.155023.07576-.164402.0752-.332781.134369-.504564.18987-.335199.0962-.668064.110181-1.01115.05889-.190804-.03402-.379646-.09386-.546001-.195407-.064407-.03932-.1428801-.101986-.2028419-.148004-.090696-.08742-.2100645-.193124-.2692897-.30643-.01-.01912-.055288-.14388-.063088-.165028-.037373-.16956-.010647-.332456.040698-.495084.055112-.146838.140217-.276693.2440598-.393173.050434-.05467.1107507-.09802.1682712-.144489.01164-.0094.048565-.03278.034011-.0293-.072843.0174-.1421325.04727-.2128179.07202-.1091998.03824-.2178755.07795-.3268133.116926l-.070375.02759v0C9.2527786 14.23049 9.1124951 14.288427 8.9737242 14.34984 8.711943 14.465692 8.619905 14.482504 8.479513 14.69549 8.39155 14.830349 8.3122261 14.97188 8.2765266 15.130684c-.044184.187375-.068316.379556-.019806.569104.049224.257418.1464619.396065.3350272.57477.2302634.200419.4966901.343115.7972684.406786.1012515.01519-.1025339-.0036.0.0.3069965.127514.8418188.150332 1.0895178.08679.243454.06776 1.037904.02639 1.250735-.13466l.837167-.633476c.800771-.678784.84607-.894034 1.078815-1.185675.244379-.309556.319378-.711534.481393-1.072834.137647-.320093.249046-.649737.304454-.994963.05898-.311798.101303-.628395.06989-.946228-.02699-.325305-.09543-.641676-.200303-.951206C14.164146 10.475206 14.011059 10.106674 13.819834 9.7570048 13.676538 9.469362 13.771341 9.6539808 13.620973 9.3744899 13.58934 9.3156939 13.562236 9.254292 13.526726 9.1977531 13.438583 9.0574105 13.315732 8.9234447 13.210495 8.7957151 12.999108 8.5561346 12.778989 8.3245674 12.567084 8.0854677 12.375848 7.8727028 12.185859 7.6552305 12.043774 7.4054369 11.925428 7.1910514 11.81147 6.973199 11.764211 6.7302535 11.723135 6.5133928 11.723448 6.2913203 11.775169 6.0758409 11.83801 5.835691 11.932935 5.6547359 12.1191 5.4856783c.306917-.2616009.840195-.51523-.636757.3202742-.04271.024159.08393-.050954.127263-.07397.113878-.060487.172716-.081766.292475-.1318602.05268-.018106.104569-.038709.158043-.054319.280028-.081747.575203-.097537.865026-.087464.338972.031765.678194.087972.987841.2370456.07399.035863.207923.098806.279102.1410949.158961.094442.304442.2124586.438535.3390417.156477.163121.31592.3275469.39631.5435792.0459.1582953.09711.3152466.0888.4826861-.0088.1212688-.03838.2460322-.09656.3534955-.04783.080114-.115985.149543-.189463.2067594z" sodipodi:nodetypes="ccsccccccsccccccccccsccccccscccccccccsccccsscccccccscccccccssccccccsscsccscccccc"/><path style="display:none;opacity:.97296;fill:#000;stroke:#000;stroke-width:0;stroke-linecap:round;stroke-linejoin:round;paint-order:fill markers stroke" id="path31" d="m14.575397 15.68545c.158189-.04023.319134-.06742.478491-.102508.286004-.05489.57288-.104895.85915-.158365.326611-.06352.648539-.145293.967049-.240991.348487-.109447.688411-.244311 1.023922-.388199.590402-.270761 1.16431-.588072 1.698327-.957811.258639-.177786.498544-.383176.713569-.611678.151221-.158678.271444-.334713.327722-.54738.03148-.20754-.02422-.372946-.113732-.556487-.06856-.105636-.152748-.204664-.253661-.281214-.03859-.02927-.117448-.07192-.159726-.09577-.194703-.08397-.396893-.09785-.605086-.07877-.133209.02081-.267007.05813-.384401.126543-1.169808.681764-.830906.3938-1.248191.758951-.146128.142211-.276361.300065-.389633.469419-.120439.172394-.205312.365926-.291381.556859-.0897.220069-.163977.446075-.233663.673149-.06797.260563-.133974.521954-.193508.784559-.06029.264061-.135654.525557-.174438.793892-.02891.252857-.0011.458325.06593.700831.08735.23603.195118.379824.397943.52747.276807.179112.595924.192228.915069.193814.481656-.0193.938572-.178217 1.386812-.342039.07589-.03029.422208-.164635.490255-.207557.247096-.155857.475232-.340265.720246-.499374.06746-.0438.143732-.07223.215598-.108348l.05902-.04723v0c-.522976.263077.03094.01626.03194-.16073.001-.184421-.506231.429581-.50346.229431-.414501.161253-.841209.299433-1.28849.326912-.292663.0054-.550614-.02006-.811718-.162952-.172632-.104194-.337855-.215395-.424276-.405622-.08298-.195864-.117377-.404899-.0913-.617481.03378-.257014.07974-.511591.140503-.763747.06558-.263401.126221-.528024.213444-.785564.06685-.223442.139142-.445868.239637-.656892.08797-.188387.189177-.369229.309292-.539263.116236-.156909.23598-.312818.392792-.432096.394111-.290084.07439-.05-.918907.513678-.02982.01692.05721-.03787.0868-.05519.08423-.04932.173506-.08716.268851-.10911.180149-.03439.367486-.04581.540541.02667.150128.07201.283923.167659.376817.308858.08646.145538.127056.290689.08738.459668-.04859.161687-.126105.310411-.230992.443476-.165228.193677-.345317.372304-.553896.520087-.350458.238627-.13731.08824.531041-.286313.04982-.02792-.09781.05901-.147454.08724-.0833.04736-.230465.125673-.315764.167212-.05283.02573-.10678.04911-.16017.07367-.331999.146407-.668509.282293-1.014134.393564-.316756.09951-.638619.182451-.963803.249699-.292493.06434-.585742.125823-.880896.176807-.148865.02174-.296289.05164-.445026.07396z"/><path id="path32" style="display:none;opacity:.97296;fill:#000;stroke:#000;stroke-width:0;stroke-linecap:round;stroke-linejoin:round;paint-order:fill markers stroke" d="m11.513672 18.03125-.81836.822266c.0025.02227.0017.04484.0078.06641.0077.02743.02236.05372.0332.08008.05377.130672.03516.08446.02734.06641.006.01188.02477.05442.07031.158203.04958.112976.07706.19164.121094.308594.171283.43184.255023.892877.330078 1.349609.07953.571538.09618 1.148564.08203 1.72461-.01005.631385-.119401 1.254423-.263672 1.867187-.115673.506611-.315943.986056-.517578 1.462891-.06512.145482-.13059.290774-.197266.435547-.03896.0846-.07566.157721-.08789.25.02412.02715.04023.06493.07227.08203.03103.01656.5793.118316.604389.09367.616669-1.136433.359791-.814605.643658-1.490149.127683-.315224.226403-.6408.322265-.966797.111204-.371532.19343-.750846.308594-1.121094.06386-.19204.140971-.378865.240235-.554687.141911-.09292.289691-.162295.447265-.228516.291493-.103706.600821-.116028.900391-.03906.05551.01426.1094.03357.164062.05078.191497.08278.361409.213342.498047.371093.07633.08813.102156.144055.160156.244141.12787.279719.162919.586761.171875.890625-.0029.287847-.04005.573252-.08398.857422-.03976.243941-.08304.487051-.113281.732422.0015.07121-.02195.142019-.02344.21289-782e-6.03734.0044.07413.0078.111329.0107.119254.02429.236933.04101.355468.03794.211446.100672.38564.230469.556641.09086.119924.23258.16565.371094.207031.04364.0028.129858.04029.171875.01758.110844-.0599.318257-.326475.332031-.341797.07111-.08256.14178-.165489.212891-.248046l.04492-.06055c.06025-.07849.119437-.155882.179687-.234375.0681-.09435.141294-.185882.205078-.283203.01225-.01868.02476-.04216.02344-.06445-552e-6-.0093-.0182-.0061-.02734-.0078-.0418-.0077-.08313.0038-.125-.0039-.115826-.0042-.222538-.02788-.318359-.09766-.115325-.129426-.180821-.292647-.208985-.46289-.01442-.08969-.02286-.128977-.02539-.220703-.004-.145385.02078-.289232.0332-.433594.03044-.236934.06373-.473692.0918-.710937.03099-.283558.0578-.56788.03711-.853516-.02477-.326438-.0711-.637238-.234375-.927734-.029-.04597-.05374-.09294-.08594-.136719-.176566-.240103-.4339-.386463-.714843-.472657-.06207-.01612-.122599-.03463-.185547-.04687-.338582-.06589-.685117-.01737-1.013672.07422-.0622.02173-.126846.04068-.1875.06641-.551096.233728-.901435.201094-1.288658.646471.03059-.275013.0036-.05551.01913-.332017.01456-.583136.01039-1.167583-.08984-1.744141-.02497-.151535-.05721-.361098-.08789-.511719-.06041-.29658-.155173-.584096-.230468-.876953-.07411-.237013-.03408-.108399-.105469-.332031-.02867-.0898-.07244-.238873-.128906-.31836-.0111-.01563-.02847-.02653-.04297-.03906z" sodipodi:nodetypes="cccccscccccscsccccccccsccccscccccccccsscccccccccccccccccscsscc"/><path style="display:none;opacity:.97296;fill:#000;stroke:#000;stroke-width:0;stroke-linecap:round;stroke-linejoin:round;paint-order:fill markers stroke" id="path33" d="m17.70964 19.151174c.01619.199779.08548.39341.152654.581553.168143.461343.250978.945457.323622 1.427935.08438.555513.120391 1.115859.153905 1.67593.02832.562205.02589 1.125283-.01081 1.686955-.02305.486594-.119866.963511-.224413 1.43841-.07418.285793-.166124.566789-.247326.850639-.01118.09156-.114744.215402-.06358.309607.0088.01621.02335.02883.03502.04324.03117.01982.05815.04801.0935.05944.01942.0063.04651.0049.06061-.0096.77746-.793906.968469-.74171 1.156839-1.38046.06955-.265629.11362-.536285.149806-.80783.04289-.380132.08078-.760834.0941-1.143107.0333-.458564.0152-.917652-.0053-1.376155-.01921-.433887-.09626-.861288-.167794-1.28898-.05951-.349835-.12356-.698909-.188923-1.047764-.05806-.263276-.113893-.526938-.166828-.791235-.03874-.158397-.06866-.318814-.10723-.477246-424e-6-.01713-.0054-.03474-.0013-.0514.01146-.0459.07401-.108079.105052-.140686.01925-.02021.07998-.07803.06081-.05776-.262805.277928-.527846.553855-.791769.830782.244136-.224248.556691-.351535.86957-.457543.3266-.102478.663614-.177834 1.008098-.186889.07-.0018.140045.0016.210068.0024.303105.03152.622407.0738.891921.223073.04701.02604.08991.05851.134861.08776.199141.159629.357923.368876.45375.60268.01815.04428.02943.09094.04415.136405.08137.298491.06653.51799-.0174.811756-.08127.264757-.228728.499361-.39195.722922-.06634.08148-.08106.101884-.150505.178324-.02329.02563-.09532.100623-.07134.0756 1.61543-1.686491 1.151776-1.175338.789646-.836354-.493938.430153-1.000883.871814-1.359906 1.415152-.139806.225136-.184424.435978-.204969.694904-.0088.162931.004.325081.01723.487284.0049.06075.0057.121925.01422.182303.01713.121362.0537.238007.08632.355847.07462.242118.170287.473956.312572.686608.08474.126648.128279.170078.227167.284463.139282.157315.300185.30566.488541.407104.03458.01862.205278.09265.245765.110389.069.03386.147105.04045.218694.06625.02858.0103.05311.03015.08228.03875.07975.02353.172125.01982.253422.01185.287496-.147266.4336-.638634.68824-.657411l.04681-.0576v0c-.257727.01959.361136-.414331.384772-.641942-.07452-.0095-.154245-.01087-.229304-.0054-.03788.0027-.07494.01409-.112918.01486-.06278.0013-.154273-.02026-.214318-.03205-.275176-.06993-.523329-.203773-.723551-.401919-.09529-.107659-.130662-.140395-.21102-.260826-.09398-.140841-.09135-.157385-.165251-.310084-.113248-.233998-.05102-.08088-.139141-.327313-.07055-.241518-.03128-.09085-.08308-.331098-.01092-.05063-.02636-.100439-.03382-.15165-.02232-.15325-.01401-.310688-222e-6-.464051.03367-.216424.08552-.428919.219382-.60995.305294-.378287.86308-.910791-.82924.845062-.01856.01926.03734-.03835.057-.05656.04246-.03931.08966-.07363.130862-.114296.526085-.440918 1.000959-.945393 1.408929-1.491271.15539-.233504.280528-.486612.35176-.756842.06696-.317954.07193-.558515-.04741-.867537-.02731-.06146-.09768-.224276-.131054-.280934-.113897-.19337-.282206-.353963-.452773-.499542-.05179-.03185-.101264-.06754-.155358-.09555-.299379-.154983-.642634-.205381-.977342-.212981-.07534-113e-6-.150747-.0034-.22602-338e-6-.375634.01536-.606726.01889-1.136305.09601-.304179.117197-.35854.181078-1.056587.370441-.316858.324457-.56007.815838-.874291 1.142701-.0606.06304.01321.156485.0027.24451-.0069.058.0048.07631.02241.125622.04491.147392.10504.290261.145438.439115.07998.249887.141669.504095.191241.761301.07866.338135.1545.677042.212628 1.01916.0694.42992.114462.863554.137488 1.298169.02286.466007.01678.933178-.04277 1.396765-.05643.404354-.104748.810398-.188443 1.210573-.0607.288971-.120407.582698-.249257.851695-.032.06215-.05703.115859-.09611.173635-.0154.02278-.06948.08543-.05026.06557.343975-.355516.683268-.715271 1.024902-1.072907.0043.01311.0052.02773.01278.03934.01675.02563.03943.04711.05915.07068.0052.0058.0082.01478.01571.01739.01145.004.0049-.02317.0062-.03492.0066-.05827.01447-.116568.02622-.174084.05272-.250225.09216-.503388.124995-.756709.07616-.459754.126324-.923815.139132-1.389537.0073-.550805.0034-1.101528-.04818-1.6506-.03709-.563535-.08316-1.126979-.155061-1.687415-.07186-.506897-.168645-1.009588-.245953-1.51564-.03169-.194457-.06449-.402683-.170669-.574417z" sodipodi:nodetypes="cccccccsccccccccccccscccscscscccscccccscscscsccccsccsccsscssccsscccccccccccscccccccccsccccsccccccccc"/><path style="opacity:.97296;fill:#000;stroke:#000;stroke-width:0;stroke-linecap:round;stroke-linejoin:round;paint-order:fill markers stroke" id="path3" d="m16.728511 4.6133373c-.0018-.072129-.05792-.1221556-.08282-.1838989-.01075-.026666-.01032-.056801-.01972-.083976C16.609281 4.2972064 16.567011 4.224472 16.542941 4.180465 16.453842 4.0095949 16.329294 3.8607436 16.200105 3.7190525 16.073639 3.5785739 15.907172 3.4790558 15.744915 3.3844694 15.583315 3.2840997 15.40844 3.202956 15.229965 3.1367741 15.071722 3.0769854 14.909802 3.0358937 14.740661 3.0288756c-.163387-.0066-.326445.00277-.487815.028569-.151374.027731-.298397.072108-.439669.1326789-.807653.3690708-.129086.056595-2.197717 1.2565895-.07799.045241-.145754.11696-.208873.18023-.09196.090833-.17099.1927667-.242758.3000461-.07415.1154233-.110988.2427193-.158529.3695907-.03886.1243379-.09014.2455621-.116391.3733577-.02829.1209515-.03885.2409933-.01823.3636018.01024.1335264.02527.2671233.04909.3991081.02164.1342136.05237.2652538.07806.3984509.03056.1238701.07399.2471836.09242.3730815.02876.1110027.06102.2192415.106053.3248417.03408.1077649.09339.2054337.138594.3092642.04885.096833.08006.2011857.137817.2945049.05061.1092246.102714.2177431.154078.3267901.06872.108386.09469.234474.144309.351063.0577.138158.09688.280227.131456.425635.04528.153706.100156.304098.155204.454461.05523.168923.09942.3402903.150972.5103763.0329.160987.07672.317324.09881.48059.01717.14657.04596.28983.05527.43719.0035.15229.03092.300021.0259.45298.0063.131284.0057.262015.0057.39314.0022.118781.0047.237592-.0011.356644.0055.118424-.0089.237008-.0043.355079-.01105.13519-.02486.271021-.05583.403114-.03099.156986-.08223.310099-.140061.459156-.05693.174102-.158206.328323-.253178.483446-.100233.15872-.22462.300798-.345746.443807-.11015.129826-.2397.24007-.36294.356758-.112293.09784-.228916.190949-.349568.278243-.136302.09106-.276446.175548-.41824.257645-.8759409.450017-1.8052679 1.032767 2.289459-1.329852.01805-.01042-.0358.02138-.05409.03138-.03577.01957-.08804.04471-.124031.0624-.125221.06096-.258764.09391-.394553.119405-.125227.05018-.257893.0321-.386473.04972-.117284.0087-.229184.02471-.346062.01453-.119651-.0079-.23844-.02799-.350347-.07203-.113952-.01715-.19612-.100324-.298522-.141924-.08426-.06721-.178837-.126374-.246297-.21364-.07883-.09494-.117378-.209987-.201845-.300134-.06492-.09986-.128815-.202332-.183559-.308672-.06641-.07578-.06185-.189656-.07145-.286027-.0097-.115095.0096-.236874.0281-.351846.0048-.09428.03091-.181355.06428-.268726.0445-.08624.09478-.169096.152316-.247313.04045-.05966.08479-.117426.130213-.173532.04614-.05931.1085-.101183.172073-.139503 1.030894-.545355-3.0571918 1.778162-2.1196319 1.228909.059-.02862.113459-.06371.174147-.08848.05273-.01547.10776-.02188.161564-.03363.086.001.131365-.02544.207924-.07172.338387-.232687.666439-.478142 1.0098579-.703584l.126155-.08331v0c.308761-.237594.616913-.476018.920151-.720658.107187-.105566.01947-.05036-.05306-.05635-.06543-.0047-.129117.0063-.193991.01318-.0742.0028-.145669.0099-.213724.04275-.9263239.349692-1.8075649.856856-2.5677759 1.49038-.07105.06826-.1391133.13866-.2031362.213649-.069311.07801-.1345098.157671-.1850119.249578-.043479.09228-.089778.183581-.1232216.280056-.052682.119591-.093106.245039-.1221255.372434-.022073.139092-.040459.278018-.060283.416977-.012761.145843.016692.282325.02646.426246.027016.136851.057702.271387.1058214.402409.029664.144456.1151428.256559.1967832.377161.083953.109252.1526477.235386.2692066.31367.09281.100499.229116.139032.342434.213046.133064.05058.264859.10501.405065.132341.151663.02338.302871.04055.454896.0075.178609-.02081.350672-.0858.529189-.109961.178626-.05232.3562299-.108756.5323219-.169114 1.035639-.367147 1.96889-.995961 2.86684-1.625203.103624-.0743.203856-.154244.295873-.242609.09746-.08939.19535-.178333.280655-.279921.108602-.113282.205512-.236874.300422-.361735.115649-.149556.216872-.307917.312437-.47099.09906-.173299.182463-.354463.253893-.540803.05119-.164018.09868-.328796.123818-.499104.0165-.145091.04306-.289029.03847-.436121.01052-.120539-.005-.242112-.0026-.363222-.0084-.118349-.0083-.236838-.01252-.355031-.0074-.13093-.01732-.261607-.02799-.392536-.02558-.150158-.02274-.300743-.04422-.4511603-.01844-.154774-.02631-.312122-.0717-.462087-.04681-.16285-.06986-.330628-.132141-.488321-.05238-.171574-.114548-.340031-.177891-.507728-.05115-.152288-.10545-.3033704-.171426-.450037C14.026332 7.8887221 13.968149 7.7549933 13.918686 7.6155518 13.876001 7.4912819 13.804301 7.3796351 13.769795 7.2519338 13.721585 7.1377843 13.668834 7.0271247 13.613364 6.9165321 13.575285 6.814665 13.512075 6.7272157 13.466033 6.6302643c-.04919-.094846-.0863-.1939572-.128485-.2911861-.03262-.1010839-.06842-.2011908-.0967-.303437-.04749-.1139563-.06879-.2407906-.09504-.3614052-.03419-.1240422-.05361-.2514471-.07322-.3785902-.01427-.1238039-.03702-.2460958-.03465-.3711417.01498-.1038271.02817-.2079804.0572-.308936.03653-.113986.06418-.2315585.118834-.3392425.05054-.1154758.118554-.2258447.20303-.3194596.07729-.090781.158807-.1770309.255077-.2483207.04972-.036095.100212-.07203.15353-.1027551.01807-.010414.07338-.039675.05531-.029262-2.107522 1.2143708-2.680513 1.5676965-1.963547 1.1265704.128578-.070409.257224-.1409388.400734-.1765332.146885-.040338.295938-.073299.44925-.072489.155094.00183.309876.00242.460644.044711.17843.047466.351089.1080688.518168.1866834.158093.085785.303854.1848685.454192.2824714.165443.1066186.327879.2171966.487472.3323702.03113.023223.120461.091075.154655.1118514.02654.016128.05741.024945.0826.043115.05449.039305.08977.1075404.158524.1293166z"/><path style="opacity:.97296;fill:#000;stroke:#000;stroke-width:0;stroke-linecap:round;stroke-linejoin:round;paint-order:fill markers stroke" id="path4" d="m16.505417 12.757932c.02428.04711.07072.07131.09424.11946.008.01642.0082.03614.01716.05207.01617.02876.04218.05088.0608.07812.0509.07501.121344.127423.185502.189626.06283.03988.126795.06829.193068.09996.03376.008.06802.04877.102657.05163.100824.0083.01532-.02296.08005.0049.07113.0022.14327.01116.214008.02357.07319-.0016.145946.01044.217944.0042.08268-.0046.165512.0032.247988-.0042.08001-.01211.157312.01594.238327.01103.08929.0035.173109-.03237.261721-.03161.09149-.0057.18579-.01768.275255-.03933.09206-.02335.182472-.0525.272303-.08331.100632-.03582.200255-.07667.297898-.120151.104912-.04065.20897-.0853.310288-.134363.116226-.05661.232656-.113952.347377-.173799.633492-.363432 1.285856-.696111 1.891642-1.103954.09586-.07506.187337-.154433.276504-.237293.08869-.08486.169434-.176748.249895-.269262.07334-.100048.113259-.211728.169708-.321118.06251-.105929.08816-.226994.138592-.337894.04317-.104815.04643-.215562.05892-.325534.01049-.100518.03219-.199424.04964-.2988811.0083-.129986.0038-.259662-.0084-.389418-.0022-.131047-.0349-.247933-.0744-.371375-.04797-.111579-.123809-.2028496-.216718-.2801786-.102575-.06745-.213357-.125771-.329236-.16693-.123151-.04769-.250193-.04399-.379454-.046-.136178.0065-.26656.04581-.397183.08089-.883217.3237906-1.725795.8049696-2.455955 1.3964887-.106021.09605-.202117.202995-.296944.309996-.104598.119886-.193108.251696-.286177.380056-.08693.112475-.144996.241816-.200948.371397-.05794.119935-.13023.232997-.179579.356871-.05043.09857-.08018.204811-.11181.310405-.0432.117142-.0739.23808-.11095.356993-.04068.12234-.07335.247732-.100676.373743-.02985.129188-.068.255557-.09518.385255-.04201.120601-.04729.248481-.07877.371421-.01801.11857-.02016.238767-.04036.357085-.0027.09743-.01665.19383-.02491.290876.0011.09997-.01863.199972-.01641.299788 893e-6.113884-.0089.22416.0041.337762.01976.115089.04131.226879.07825.337631.01545.09742.05338.186489.09226.276206.04045.07918.08665.155472.13968.226819.04694.06764.11083.121336.161347.185936.06209.0511.121697.104122.182662.156286.07323.04001.145189.07959.222662.110886.08707.03761.180148.04348.272041.06053.121128.02317.243001-.0056.363982-.01657.118386-.0141.234177-.04146.350735-.06507.119927-.02879.238052-.06653.353946-.108718.120781-.03644.235499-.08908.351115-.138829.122979-.05354.241283-.116854.360293-.178515.957635-.471854 1.851394-1.051148 2.758144-1.607634.08119-.07689.21439-.102655.286946-.187595-.345606.08882-.676811.22827-1.011661.350323l-.14106.05438v0c-.459632.186472-.921924.367164-1.373584.572522-.13031.06778-.252513.14841-.376097.227651-.05645.03771-.11305.07363-.171902.107521-.0201.01158-.08052.04613-.06043.03453 2.364079-1.365351 3.089604-1.797068 2.263042-1.305617-.113487.06729-.23038.12839-.346462.191027-.113812.05832-.23037.111099-.346848.163855-.105892.04166-.211878.08174-.320316.116465-.112217.03798-.227564.0672-.343282.09256-.10552.02612-.213109.03802-.318888.06255-.07175.0072-.144714-.007-.215964-.01581-.05964-.01151-.122338-.02557-.173668-.05909-.05811-.02207-.118832-.05209-.158959-.10088-.05752-.03919-.100477-.09309-.145724-.145272-.04384-.05383-.08909-.105683-.118726-.169484-.0376-.0701-.06422-.145932-.09512-.219004-.02105-.0971-.04246-.194973-.0402-.294756-.0022-.102446-.008-.203538.0041-.305482.01061-.09546.003-.19268.02401-.28736.01057-.09707.0098-.194831.01863-.291775-.002-.111339.02079-.219768.04261-.328459.01153-.119895.05647-.233055.06674-.353441.02949-.124534.04903-.250527.07712-.375512.02763-.116619.05159-.234269.07382-.351983.0217-.10903.05247-.21633.074-.325594.02978-.09349.06622-.184587.08912-.280094.03544-.09592.04871-.198987.09538-.291231.06542-.114861.139157-.2242441.212234-.3343341.08569-.124554.18755-.237711.291879-.346944.09251-.09549.187579-.189278.304745-.254687.815434-.4686396-2.948092 1.7081511-1.819755 1.0484351.111495-.05272.229293-.0908.3488-.121061.104631-.02452.214603-.03859.321495-.02343.106093.01601.209768.0328.306169.08323.08597.03922.159912.08733.224475.157531.07679.06125.153964.13203.207734.213293.04459.08356.08648.169816.104005.263191.0094.0833.02048.167336.0066.250921-.01544.09895-.04682.191497-.06434.290669-.01058.104096-.07755.192902-.110084.291217-.04803.10425-.11539.194947-.188466.2829-.05594.08032-.126038.151745-.200427.215001-.08549.07488-.173714.14761-.271429.206064-.04652.03098-.09458.05855-.142647.08704-.0147.0087-.05868.03502-.04387.02651 1.577915-.906366 2.021715-1.149223 1.46847-.845979-.115965.06542-.23139.131289-.351149.189518-.104374.04854-.208402.09752-.312469.146677-.08345.03233-.166973.06308-.250726.09463-.08589.03322-.171624.06623-.259555.09361-.08894.02691-.176706.05351-.268569.06959-.0909.01725-.183199.02045-.273091.04361-.08278.01254-.170276.03597-.253103.02279-.07648-.0098-.154241 905e-6-.231039-.0066-.06975-.0099-.142068.0049-.21307-.003-.07506.0059-.154037.01124-.227838.0014-.01395.0016-.0279.0033-.04185.005-.0038-.005-.0052-.01342-.01129-.01492-.03495-.0087-.08158.01634-.117418 34e-6-.05571-.01332-.111803-.035-.159143-.06757-.0667-.02827-.122327-.08298-.173073-.133366-.0205-.02257-.03436-.05077-.05557-.07267-.01228-.01268-.03051-.01849-.04288-.03107-.03537-.03597-.03594-.08388-.06398-.123737z"/><path style="opacity:.97296;fill:#000;stroke:#000;stroke-width:0;stroke-linecap:round;stroke-linejoin:round;paint-order:fill markers stroke" id="path7" d="m9.4124767 18.683053c-.1536847.0816-.1840942.233715-.111226.367329.09484.181755.198016.360293.246902.560608.05816.191616.127398.379091.164951.576103.02437.195883.07178.388751.08622.585439.02991.202837.02547.408008.0456.611467.01178.213538.03033.429155.01925.643163-115e-6.208575-.0013.416427-.0049.625224.01147.237365-.0066.475885-.02052.713062-.01468.225517-.02271.449619-.04677.67452-.05444.245142-.07017.497106-.12024.742728-.03468.247535-.08433.492049-.129059.737667-.05434.197009-.0866.399803-.144924.595577-.04138.157525-.08819.315176-.1408165.469677-.055621.148411-.1084795.297648-.1609638.447097-.031159.136736-.078357.268522-.1238271.400875-.03914.116921-.105219.377019-.1504159.491756-.029044.07331.108329.191519.058091.259294.050238-.06777.0.0.0.0.2153193 1.257435 2.1807686-.402372 2.2540806-1.309974.06694-.129075.114732-.265157.162888-.401832.0587-.17686.122055-.3514.172463-.530875.06027-.197614.133953-.389653.204888-.583629.06579-.208705.155551-.409051.239958-.610761.0851-.212786.194869-.413879.309551-.611808.101094-.174891.216411-.34111.328462-.509092.08997-.155662.207998-.29256.300527-.446508.105087-.157156.225959-.302387.341251-.451907.114699-.127581.221248-.261745.342893-.382824.09892-.100051.206442-.191461.321093-.272923.780089-.486054 1.859633-1.073403-1.941629 1.117532.07305-.05118.151278-.08914.236723-.114526.104855-.02993.209508-.02875.316597-.01613.07133.02297.14869.03126.217276.06134.04928.02667.108717.05264.143864.09679.04458.05642.07529.12554.0991.193076.03852.08833.03029.184485.0479.278351.0061.120207.02487.240581.02152.361675.0036.150913-.03287.300362-.03431.449816-.01986.137916-.03538.275012-.06403.411522-.02311.142724-.06181.280622-.104572.41865-.03454.138961-.06855.278557-.106579.416759-.03138.137277-.08807.266587-.129573.400644-.03995.12405-.100359.239382-.149698.359744-.06148.107847-.106327.224773-.165037.333628-.06074.109432-.116304.220538-.185153.325535-.06063.102948-.115935.208745-.173062.313645-.0424.105477-.0987.203816-.140693.309557-.04938.07551-.06692.15504-.0852.240657.0015.06913-.02299.137007-.01796.205273-.02512.05857-.0065.118614-.01121.178063.01505.08284.05452.157655.07485.239171.024.06732.059.127204.09042.191023.03567.04125.06968.08145.106632.121937.06003.04098.116734.07988.190974.08738.06551.0098.135278-.0083.200369-.02174.100068-.02952.326245.124901.777932-.13037l.260825-.164749c.658773-.355378.751154-1.352584.732584-1.39489-.02883-.05128-.03505-.09445-.0157-.149814-881e-6-.05233.02302-.103306.0085-.156502.01533-.05514.01146-.115507.042-.167226.02431-.06507.06521-.123992.07911-.193847.04779-.0985.08712-.20129.148442-.292598.05134-.101376.107052-.200491.162708-.299522.05392-.113357.120688-.21896.172113-.333188.0565-.117885.123869-.230157.163496-.355903.04964-.119312.08072-.245757.119312-.368654.0449-.133238.07285-.271582.117402-.405026.04259-.144182.08526-.287618.119021-.434135.02506-.143456.05361-.284971.07577-.428792.01481-.137611.0322-.27536.02427-.41387.02279-.153567.01519-.312328.02501-.467767-.0024-.133405 908e-6-.266353-.01806-.39823-.0067-.115769-.04392-.225957-.07783-.335309-.03826-.09534-.0733-.188711-.140812-.269384-.06122-.0714-.108947-.150218-.198074-.193626-.09303-.04802-.184763-.09214-.291884-.100237-.118744-.02542-.240403-.05684-.362197-.05268-.09397.001-.189198-.005-.276987.03665-1.241578.04362-1.748073.844677-2.479465 1.474029-.101247.09532-.20171.19129-.287052.301666-.102054.128835-.214345.249413-.306365.386061-.120204.150931-.226675.310605-.339899.466887-.113379.145879-.200175.308795-.307758.458852-.105292.166819-.201687.338794-.2898563.515209-.101869.207612-.202734.415643-.291471.629315-.08764.207447-.162488.419221-.245977.62822-.06984.197782-.137252.39539-.2095322.592282-.066848.174934-.1913326.417373-.2707829.587199-.2972054.525181 1.5908054-.433395 2.1961544-.716903.01172-.0053.0054.02511.0086.03756 159e-6 631e-6-921e-6-.0552.0095-.04587.0066-.06051.0095-.122538.02502-.181387.02748-.113781.06367-.224964.09436-.33789.03496-.133334.0699-.266615.124298-.393797.04575-.145685.09219-.291025.135931-.437447.05016-.162542.102977-.323446.132338-.491289.02853-.193326.07502-.384276.08856-.579946.04357-.245556.07746-.492589.1213-.738256.03013-.249495.09698-.494904.10722-.747032.188558-.264014.066-.831841.08922-1.426847.0039-.211102.01049-.421594-.0041-.632233-.02272-.215757-.01285-.434142-.03132-.650357-.01009-.207982-.05405-.412501-.099-.615469-.05861-.186235-.112901-.373222-.19911-.549661-.0772-.190631-.117573-.393408-.215648-.575872-.111068-.182421-.261101-.217519-.47657-.310651-.08427-.140252-.735053-.184679-1.015183.0022z" sodipodi:nodetypes="cccccccccccccccccccccccccccccccccccccccccccccccccccccccccccccccccccccccccccccccccccccccccccscccccccccccccccccc"/><path style="opacity:.97296;fill:#000;stroke:#000;stroke-width:0;stroke-linecap:round;stroke-linejoin:round;paint-order:fill markers stroke" id="path8" d="m24.411332 26.802535c-.100021-.126874-.22363-.231464-.336268-.347029-.132888-.158707-.279447-.304583-.403726-.470199-.14461-.157295-.266551-.332917-.408027-.492627-.09963-.148007-.215238-.284449-.318105-.429784-.09176-.119013-.178708-.240467-.260775-.366295-.0699-.104035-.133668-.211354-.19403-.32111-.02054-.08497-.06651-.158005-.100948-.235893-.0071-.05397-.03556-.119339-.01926-.170514-657e-6-.05235.05508-.09217.06137-.140249.07012-.05993.140375-.119813.210045-.180385.107653-.08131.205702-.175039.300399-.271023.114679-.124983.224996-.252408.326755-.388095.111921-.134108.210961-.27714.279481-.438197.07191-.133461.124547-.275111.178232-.41624.05611-.141629.09547-.29001.131584-.437958.02616-.173585.06497-.344546.07842-.520034.0093-.189191-.0036-.377017-.03248-.564093.0038-.170418-.04092-.335437-.09076-.496983-.04331-.14684-.115019-.28194-.190364-.414353-.07521-.141338-.169315-.273623-.282341-.38722-.100791-.114243-.226998-.195147-.348443-.284037-.131349-.0696-.250482-.15832-.376297-.236979-.120285-.06275-.245585-.109632-.376125-.146417-.111705-.04238-.223417-.08356-.336544-.121284-.117857-.02723-.232926-.06004-.352973-.07622-.10591-.0057-.204692-.04323-.310028-.05287-.10215-.01883-.203403-.03568-.304787-.05688-.08548-.0074-.161924-.04721-.245368-.0639-.06297-.01724-.123847-.04079-.185773-.06152-.151678-.01461-.61441-.168876-.686458-.233977-.430166-.165746-.336721-.174182-.98098-.18355-.44968.0015-.684887.296192-.728927.318402-.327874.278148-.338984.24701-.632758 1.12644-.04425.02534-.06891.02876-.03884.08063-115e-6.04267.01584.08115.02131.121713.0075.03695-.0013.07142-.0043.108706.0013.06796.03128.129326.05498.192802.01768.0739.03547.147379.05982.219426.02067.07457.02257.149705.03233.225618.02114.09306.0076.184795.01494.278828-.0011.102679-.02469.204069-.01611.306673-.0027.109061-.0034.21867.0039.32731-22e-6.124507-.01311.248712-.0071.37319.0065.112084-.0065.224328-.001.336151-.0027.09934-.01574.199806-.0029.29875.0042.09986-76e-5.204016-.0034.306258.01438.115871.0017.227743-.01325.342472.0034.113459-.01457.227186-.03028.339436-.02226.113084-.03348.226853-.05878.339381-.02543.09843-.03269.200298-.05359.299213-.0032.09571-.03658.177599-.07212.264557-.02772.09998-.06365.195932-.09698.294353-.01859.112636-.05658.22014-.08574.330356-.02534.09859-.04677.19809-.07424.296297-.02385.09245-.03769.188152-.06517.279205-.01922.08132-.03773.163436-.06411.242924-.01634.07486-.04053.148169-.06217.221796-.01638.06867-.03591.135896-.04958.205459-.03146.06955-.04695.144444-.068.217549-.02237.07209-.04584.142208-.05507.217036-.0177.05959-.01654.119042-.04209.17486-.03295.07249-.06068.147187-.08078.225186-.03266.07868-.0483.161562-.07382.242357-.01026.09164-.04562.176218-.07114.263952-.01847.09576-.05738.18683-.07396.282903-.02444.0941-.04882.185026-.07233.279025-.01995.08739-.04627.173108-.06524.260831-.03602.08558-.07515.171017-.120321.252385-.03714.07895-.07717.156574-.115122.235185-.04261.07903-.08244.158949-.131349.234246.0087.0076-.03161.03715-.02011.05158.02455.03079.07988-.0026.117149-.01527.0814-.02776.633274-.246402.635691-.247353.118713-.04566.237426-.09131.356139-.136969l.138968-.05953v0l.394544-.185912c.143352-.06874.287678-.135492.430056-.206231.175714-.0873.416555-.175693.528952-.353192.03997-.08312.08422-.163917.119195-.249418.03883-.08212.07163-.167795.10275-.252977.01821-.08332.04027-.165283.04677-.250484.02839-.08864.04951-.179205.0716-.269477.02282-.09117.04108-.180794.06624-.271708.03261-.09184.04806-.189106.08394-.280039.02639-.08975.04024-.182789.07606-.269784.01839-.07664.04963-.14816.06843-.224866.03107-.0751.05894-.150239.08249-.227359.0168-.06715.03477-.133337.04165-.202302.02341-.06582.03997-.132387.0594-.199758.02214-.07157.05022-.14202.06074-.21636.02688-.07331.04683-.147519.06892-.222117.01713-.07321.03208-.147113.05268-.219253.01519-.08282.03608-.164476.05494-.246383.01427-.09349.04509-.18488.06261-.278175.01679-.0952.04023-.188625.06636-.281448.02997-.110142.05239-.222168.100211-.326439.02771-.101974.05838-.201183.08789-.302481.01168-.09106.0083-.18156.01885-.272755.0065-.09702.03767-.191873.04339-.289498.01121-.11556.03609-.228499.03934-.344808.0101-.122282.01452-.242785.01946-.365536-.01476-.110864-.027-.218571-.01265-.330927-.0027-.101383-.0079-.203728-.0034-.302784.01128-.09824.0014-.197356-.003-.295846.0051-.111502-.0075-.223345-.0013-.335111.0054-.122116-.0072-.243817-.0082-.365922.0063-.110118.0058-.221381 7e-4-.331731.0057-.09823-.01801-.193662-.02591-.291314 102e-6-.0079.003-.276901-.06082-.557437-.255343-.220597.09977-.430753.1032-.445557-.942068.491996-2.032644 1.161486-2.004321 1.155166.01379.06506.04842.111749.09196.161334.04962.05055.09446.10073.159437.133391.07281.04273.15144.0708.23301.09167.09956.03053.20325.02667.304388.04938.102552.01437.203757.03071.305652.05024.103242.03374.212999.03158.316997.06313.113752.01768.229426.02299.340654.05462.127562.01992.253459.04444.379577.07304.122909.04035.247045.07502.369157.117091.147566.03985.299996.0775.431951.156962.126372.06208.243715.144879.359944.223771.118792.09205.245781.173163.352786.27955.08803.09944.162973.20744.221415.327225.05952.133626.09661.272516.138015.412515.01557.171662.03164.344192.0056.515492-.03148.170269-.05197.342037-.116556.504047-.04394.141624-.09229.280701-.153009.416096-.06312.13584-.13246.268789-.208229.398136-.102213.138135-.203113.277287-.310792.411253-.123556.1353-.25364.264787-.393175.383701-.10907.09352-.223259.180811-.331288.275212-.08292.07247-.161152.146384-.21636.243227-.07282.08652-.118083.184914-.145062.294802-.01282.103684-.04463.200151-.01085.305525.0082.105173.0178.20394.06653.30088.03612.134667.08149.267004.13812.394526.06901.146342.145875.28933.242569.419391.111936.144854.220321.292032.346268.425736.126227.173975.272705.33218.401198.504579.146996.156187.274978.328431.433558.473975.117424.122842.227468.252438.371024.345821z" sodipodi:nodetypes="ccccccccccccccccccccccccccccccccccccccccccccccccccccccccccccccccccccccccccccccsccccccccccccccccccccccccccccccccsccccccccccccccccccccccccccccccccc"/></g></svg>