<svg height="100%" style="fill-rule:evenodd;clip-rule:evenodd;stroke-linejoin:round;stroke-miterlimit:2" viewBox="0 0 512 512" width="100%" id="svg1" sodipodi:docname="instagram.svg" inkscape:version="1.3.2 (091e20ef0f, 2023-11-25, custom)" xmlns:inkscape="http://www.inkscape.org/namespaces/inkscape" xmlns:sodipodi="http://sodipodi.sourceforge.net/DTD/sodipodi-0.dtd" xmlns="http://www.w3.org/2000/svg" xmlns:svg="http://www.w3.org/2000/svg"><defs id="defs1"/><sodipodi:namedview id="namedview1" pagecolor="#ffffff" bordercolor="#cccccc" borderopacity="1" inkscape:showpageshadow="0" inkscape:pageopacity="1" inkscape:pagecheckerboard="0" inkscape:deskcolor="#d1d1d1" inkscape:zoom="1.3789062" inkscape:cx="255.63739" inkscape:cy="256" inkscape:window-width="1916" inkscape:window-height="1047" inkscape:window-x="0" inkscape:window-y="0" inkscape:window-maximized="1" inkscape:current-layer="svg1"/><path d="m256 202.66797c-29.45497.0-53.33203 23.87706-53.33203 53.33203S226.54503 309.33203 256 309.33203 309.33203 285.45497 309.33203 256 285.45497 202.66797 256 202.66797z" style="" id="path7"/><path d="m341.4082 151.39258c-10.60299.0-19.19922 8.59523-19.19922 19.19922.0 10.60399 8.59623 19.19922 19.19922 19.19922 10.60399.0 19.20117-8.59523 19.20117-19.19922.0-10.60399-8.59718-19.19922-19.20117-19.19922z" style="fill:#fff" id="path6"/><path d="m256 173.83789c-45.37695.0-82.16211 36.78516-82.16211 82.16211S210.62305 338.16211 256 338.16211c45.37695.0 82.16211-36.78516 82.16211-82.16211.0-45.37695-36.78516-82.16211-82.16211-82.16211zm0 28.83008c29.45497.0 53.33203 23.87706 53.33203 53.33203S285.45497 309.33203 256 309.33203 202.66797 285.45497 202.66797 256 226.54503 202.66797 256 202.66797z" style="fill:#fff" id="path5"/><path d="m256 124.82813c-42.72196.0-47.78231.16359-64.6543.93359-15.59998.712-24.07099 3.31877-29.70898 5.50976-7.46899 2.902-12.79944 6.36976-18.39844 11.96875-5.59899 5.598-9.0648 10.9285-11.9668 18.39649-2.19099 5.63799-4.79776 14.109-5.50976 29.70898-.77 16.87199-.93359 21.93234-.93359 64.6543.0 42.72196.16359 47.78231.93359 64.6543.712 15.59998 3.31877 24.07099 5.50976 29.70898 2.902 7.46899 6.36781 12.79849 11.9668 18.39649 5.599 5.59999 10.92945 9.06675 18.39844 11.96875 5.63799 2.19099 14.109 4.79876 29.70898 5.50976 16.86999.77 21.92934.93359 64.6543.93359s47.78531-.16359 64.6543-.93359c15.59998-.711 24.07099-3.31877 29.70898-5.50976 7.46899-2.902 12.79849-6.36876 18.39649-11.96875 5.59999-5.598 9.06675-10.9275 11.96875-18.39649 2.19099-5.63799 4.79876-14.109 5.50976-29.70898.77-16.87199.93359-21.93234.93359-64.6543.0-42.72196-.16359-47.78231-.93359-64.6543-.711-15.59998-3.31877-24.07099-5.50976-29.70898-2.902-7.46799-6.36876-12.79849-11.96875-18.39649-5.598-5.59899-10.9275-9.06675-18.39649-11.96875-5.63799-2.19099-14.109-4.79776-29.70898-5.50976-16.87199-.77-21.93234-.93359-64.6543-.93359zm85.4082 26.56445c10.60399.0 19.20117 8.59523 19.20117 19.19922.0 10.60399-8.59718 19.19922-19.20117 19.19922-10.60299.0-19.19922-8.59523-19.19922-19.19922.0-10.60399 8.59623-19.19922 19.19922-19.19922zM256 173.83789c45.37695.0 82.16211 36.78516 82.16211 82.16211S301.37695 338.16211 256 338.16211c-45.37695.0-82.16211-36.78516-82.16211-82.16211.0-45.37695 36.78516-82.16211 82.16211-82.16211z" style="" id="path4"/><path d="m256 96c-43.45296.0-48.90277.183891-65.96875.962891-17.02998.776999-28.6599 3.482499-38.83789 7.437499-10.52099 4.089-19.44485 9.56009-28.33984 18.45508-8.895 8.89499-14.36609 17.8169-18.45508 28.33789-3.955 10.17699-6.65755 21.80791-7.435549 38.83789C96.184891 207.09723 96 212.54704 96 256c0 43.45296.184891 48.90277.962891 65.96875.777999 17.02998 3.480549 28.6609 7.435549 38.83789 4.08899 10.52099 9.56008 19.44385 18.45508 28.33984 8.89499 8.895 17.81885 14.36609 28.33984 18.45508 10.17799 3.954 21.80791 6.65855 38.83789 7.43555C207.09723 415.81611 212.54704 416 256 416c43.45296.0 48.90277-.18389 65.96875-.96289 17.02998-.777 28.6609-3.48155 38.83789-7.43555 10.52099-4.08899 19.44385-9.56008 28.33984-18.45508 8.895-8.89599 14.36609-17.81885 18.45508-28.33984 3.954-10.17699 6.65855-21.80791 7.43555-38.83789C415.81611 304.90277 416 299.45296 416 256c0-43.45296-.18389-48.90277-.96289-65.96875-.777-17.02998-3.48155-28.6609-7.43555-38.83789-4.08899-10.52099-9.56008-19.4429-18.45508-28.33789-8.89599-8.89499-17.81885-14.36608-28.33984-18.45508-10.17699-3.955-21.80791-6.6605-38.83789-7.437499C304.90277 96.183891 299.45296 96 256 96zm0 28.82813c42.72196.0 47.78231.16359 64.6543.93359 15.59998.712 24.07099 3.31877 29.70898 5.50976 7.46899 2.902 12.79849 6.36976 18.39649 11.96875 5.59999 5.598 9.06675 10.9285 11.96875 18.39649 2.19099 5.63799 4.79876 14.109 5.50976 29.70898.77 16.87199.93359 21.93234.93359 64.6543.0 42.72196-.16359 47.78231-.93359 64.6543-.711 15.59998-3.31877 24.07099-5.50976 29.70898-2.902 7.46899-6.36876 12.79849-11.96875 18.39649-5.598 5.59999-10.9275 9.06675-18.39649 11.96875-5.63799 2.19099-14.109 4.79876-29.70898 5.50976-16.86899.77-21.92934.93359-64.6543.93359s-47.78431-.16359-64.6543-.93359c-15.59998-.711-24.07099-3.31877-29.70898-5.50976-7.46899-2.902-12.79944-6.36876-18.39844-11.96875-5.59899-5.598-9.0648-10.9275-11.9668-18.39649-2.19099-5.63799-4.79776-14.109-5.50976-29.70898-.77-16.87199-.93359-21.93234-.93359-64.6543.0-42.72196.16359-47.78231.93359-64.6543.712-15.59998 3.31877-24.07099 5.50976-29.70898 2.902-7.46799 6.36781-12.79849 11.9668-18.39649 5.599-5.59899 10.92945-9.06675 18.39844-11.96875 5.63799-2.19099 14.109-4.79776 29.70898-5.50976 16.87199-.77 21.93234-.93359 64.6543-.93359z" style="fill:#fff" id="path3"/><path d="M256 0C114.71014.0.0 114.71014.0 256S114.71014 512 256 512 512 397.28986 512 256C512 114.71014 397.28986.0 256 0zm0 96c43.45296.0 48.90277.183891 65.96875.962891 17.02998.776999 28.6609 3.482499 38.83789 7.437499 10.52099 4.089 19.44385 9.56009 28.33984 18.45508 8.895 8.89499 14.36609 17.8169 18.45508 28.33789 3.954 10.17699 6.65855 21.80791 7.43555 38.83789C415.81611 207.09723 416 212.54704 416 256c0 43.45296-.18389 48.90277-.96289 65.96875-.777 17.02998-3.48155 28.6609-7.43555 38.83789-4.08899 10.52099-9.56008 19.44385-18.45508 28.33984-8.89599 8.895-17.81885 14.36609-28.33984 18.45508-10.17699 3.954-21.80791 6.65855-38.83789 7.43555C304.90277 415.81611 299.45296 416 256 416c-43.45296.0-48.90277-.18389-65.96875-.96289-17.02998-.777-28.6599-3.48155-38.83789-7.43555-10.52099-4.08899-19.44485-9.56008-28.33984-18.45508-8.895-8.89599-14.36609-17.81885-18.45508-28.33984-3.955-10.17699-6.65755-21.80791-7.435549-38.83789C96.184891 304.90277 96 299.45296 96 256c0-43.45296.184891-48.90277.962891-65.96875.777999-17.02998 3.480549-28.6609 7.435549-38.83789 4.08899-10.52099 9.56008-19.4429 18.45508-28.33789 8.89499-8.89499 17.81885-14.36608 28.33984-18.45508 10.17799-3.955 21.80791-6.6605 38.83789-7.437499C207.09723 96.183891 212.54704 96 256 96z" style="" id="path2"/></svg>