<svg data-name="Layer 1" id="Layer_1" viewBox="0 0 512 512" sodipodi:docname="telegram.svg" inkscape:version="1.3.2 (091e20ef0f, 2023-11-25, custom)" xmlns:inkscape="http://www.inkscape.org/namespaces/inkscape" xmlns:sodipodi="http://sodipodi.sourceforge.net/DTD/sodipodi-0.dtd" xmlns="http://www.w3.org/2000/svg" xmlns:svg="http://www.w3.org/2000/svg"><defs id="defs1"/><sodipodi:namedview id="namedview1" pagecolor="#ffffff" bordercolor="#cccccc" borderopacity="1" inkscape:showpageshadow="0" inkscape:pageopacity="1" inkscape:pagecheckerboard="0" inkscape:deskcolor="#d1d1d1" inkscape:zoom="1.3789062" inkscape:cx="255.63739" inkscape:cy="256" inkscape:window-width="1916" inkscape:window-height="1047" inkscape:window-x="0" inkscape:window-y="0" inkscape:window-maximized="1" inkscape:current-layer="Layer_1"/><title id="title1"/><path d="M256 0C114.61514.0.0 114.61514.0 256S114.61514 512 256 512 512 397.38486 512 256 397.38486.0 256 0zm120.20312 146.96484a12.441 12.441.0 0112.85547 14.97071L343.5918 379a16.007 16.007.0 01-25.17774 9.59375l-66.13672-48.86133-40.0664 37.79883a5.429 5.429.0 01-7.74024-.29297l-.86133-.94531 6.96094-67.375 125.48438-114.65235a3.358 3.358.0 00-4.06055-5.3164L171.51562 290.51953l-69.11523-23.21289a9.393 9.393.0 01-.32031-17.69336L372.5 147.74414a12.441 12.441.0 013.70312-.7793z" style="" id="path3"/><path d="M376.20312 146.96484A12.441 12.441.0 00372.5 147.74414L102.08008 249.61328a9.393 9.393.0 00.32031 17.69336l69.11523 23.21289 160.47852-101.57031a3.358 3.358.0 014.06055 5.3164L210.57031 308.91797l-6.96094 67.375.86133.94531a5.429 5.429.0 007.74024.29297l40.0664-37.79883 66.13672 48.86133A16.007 16.007.0 00343.5918 379l45.46679-217.06445a12.441 12.441.0 00-12.85547-14.97071z" style="fill:#fff" id="path2"/></svg>