<svg height="100%" style="fill-rule:evenodd;clip-rule:evenodd;stroke-linejoin:round;stroke-miterlimit:2" viewBox="0 0 512 512" width="100%" id="svg1" sodipodi:docname="twitter.svg" inkscape:version="1.3.2 (091e20ef0f, 2023-11-25, custom)" xmlns:inkscape="http://www.inkscape.org/namespaces/inkscape" xmlns:sodipodi="http://sodipodi.sourceforge.net/DTD/sodipodi-0.dtd" xmlns="http://www.w3.org/2000/svg" xmlns:svg="http://www.w3.org/2000/svg"><defs id="defs1"/><sodipodi:namedview id="namedview1" pagecolor="#ffffff" bordercolor="#cccccc" borderopacity="1" inkscape:showpageshadow="0" inkscape:pageopacity="1" inkscape:pagecheckerboard="0" inkscape:deskcolor="#d1d1d1" inkscape:zoom="1.3789062" inkscape:cx="255.63739" inkscape:cy="256" inkscape:window-width="1916" inkscape:window-height="1047" inkscape:window-x="0" inkscape:window-y="0" inkscape:window-maximized="1" inkscape:current-layer="svg1"/><path d="m324.44727 148.22461c-33.97197.0-61.5586 27.58663-61.5586 61.55859.0 4.853.51116 9.57688 1.66016 14.04688-51.21295-2.554-96.5523-27.07423-126.94727-64.36719-5.23699 9.06799-8.30078 19.66726-8.30078 30.90625.0 21.32798 10.856 40.2299 27.45899 51.21289-10.08999-.255-19.54081-3.06316-27.8418-7.66016v.76563c0 29.88497 21.19886 54.66021 49.42383 60.4082-5.108 1.404-10.59976 2.17188-16.21875 2.17188-3.96.0-7.7901-.38339-11.6211-1.15039 7.79 24.52097 30.52273 42.2732 57.47071 42.7832-21.07298 16.47598-47.63799 26.31055-76.50196 26.31055-4.98099.0-9.8345-.25653-14.6875-.89453 26.94798 17.62398 59.38704 27.84179 94.125 27.84179 113.28289.0 175.22461-93.86973 175.22461-175.22265.0-2.682.001-5.36493-.12695-7.91993 12.00499-8.68399 22.47635-19.53974 30.77734-31.92773-10.98299 4.853-22.86096 8.17503-35.37695 9.70703 12.77199-7.66299 22.47818-19.66862 27.07617-34.09961-11.87799 7.024-25.03109 12.13141-39.08008 14.94141-11.23899-12.00499-27.20309-19.41211-44.95507-19.41211z" style="fill:#fff" id="path3"/><path d="M256 0C114.71014.0.0 114.71014.0 256S114.71014 512 256 512 512 397.28986 512 256C512 114.71014 397.28986.0 256 0zm68.44727 148.22461c17.75198.0 33.71608 7.40712 44.95507 19.41211 14.04899-2.81 27.20209-7.91741 39.08008-14.94141-4.59799 14.43099-14.30418 26.43662-27.07617 34.09961 12.51599-1.532 24.39396-4.85403 35.37695-9.70703-8.30099 12.38799-18.77235 23.24374-30.77734 31.92773.128 2.555.12695 5.23793.12695 7.91993.0 81.35292-61.94172 175.22265-175.22461 175.22265-34.73796.0-67.17702-10.21781-94.125-27.84179 4.853.638 9.70651.89453 14.6875.89453 28.86397.0 55.42898-9.83457 76.50196-26.31055-26.94798-.51-49.68071-18.26223-57.47071-42.7832 3.831.767 7.6611 1.15039 11.6211 1.15039 5.61899.0 11.11075-.76788 16.21875-2.17188-28.22497-5.74799-49.42383-30.52323-49.42383-60.4082v-.76563c8.30099 4.597 17.75181 7.40516 27.8418 7.66016-16.60299-10.98299-27.45899-29.88491-27.45899-51.21289.0-11.23899 3.06379-21.83826 8.30078-30.90625 30.39497 37.29296 75.73432 61.81319 126.94727 64.36719-1.149-4.47-1.66016-9.19388-1.66016-14.04688.0-33.97196 27.58663-61.55859 61.5586-61.55859z" style="" id="path2"/></svg>