<svg data-name="Layer 1" id="Layer_1" viewBox="0 0 512 512" sodipodi:docname="vk.svg" inkscape:version="1.3.2 (091e20ef0f, 2023-11-25, custom)" xmlns:inkscape="http://www.inkscape.org/namespaces/inkscape" xmlns:sodipodi="http://sodipodi.sourceforge.net/DTD/sodipodi-0.dtd" xmlns="http://www.w3.org/2000/svg" xmlns:svg="http://www.w3.org/2000/svg"><defs id="defs1"/><sodipodi:namedview id="namedview1" pagecolor="#ffffff" bordercolor="#cccccc" borderopacity="1" inkscape:showpageshadow="0" inkscape:pageopacity="1" inkscape:pagecheckerboard="0" inkscape:deskcolor="#d1d1d1" inkscape:zoom="1.3789062" inkscape:cx="255.63739" inkscape:cy="256" inkscape:window-width="1916" inkscape:window-height="1047" inkscape:window-x="0" inkscape:window-y="0" inkscape:window-maximized="1" inkscape:current-layer="Layer_1"/><title id="title1"/><path d="M256 0C114.61514.0.0 114.61514.0 256S114.61514 512 256 512 512 397.38486 512 256 397.38486.0 256 0zm97.06055 169.09961h35.83984a8.788 8.788.0 017.87305 12.70117c-9.04399 18.13998-26.66035 51.41743-43.23633 70.94141a13.877 13.877.0 001.62305 19.53906c10.80499 9.23199 27.67339 26.3015 45.85937 54.73047a10.305 10.305.0 01-8.65625 15.88867h-32.48437a23.41 23.41.0 01-18.31836-8.80078c-9.74199-12.23099-28.93496-33.91743-49.08594-43.23242a7.666 7.666.0 00-10.91602 6.92773v32.12891a12.974 12.974.0 01-12.97265 12.97656h-15.02149c-19.53398.0-61.60017-11.8908-95.11914-60.71875-28.55997-41.59996-41.29085-73.84049-48.71484-99.98047a10.3 10.3.0 019.92187-13.09375h32.86133a15.226 15.226.0 0114.59961 10.86133c6.111 20.43898 21.94 64.53035 49.91797 86.48633a5.788 5.788.0 009.37109-4.54102v-51.46484c0-10.17099-4.40907-20.34779-11.28906-28.30078a7.878 7.878.0 015.94727-13.04492h50.66601a9.838 9.838.0 019.83789 9.83593v69.32617a5.468 5.468.0 008.63477 4.45508c9.29999-6.61999 17.2658-16.39959 24.5918-27.39258 9.21999-13.82798 20.47124-36.68583 26.11523-48.54882a13.457 13.457.0 0112.1543-7.67969z" style="opacity:1" id="path3"/><path d="m353.06055 169.09961a13.457 13.457.0 00-12.1543 7.67969c-5.64399 11.86299-16.89524 34.72084-26.11523 48.54882-7.326 10.99299-15.29181 20.77259-24.5918 27.39258a5.468 5.468.0 01-8.63477-4.45508v-69.32617a9.838 9.838.0 00-9.83789-9.83593h-50.66601a7.878 7.878.0 00-5.94727 13.04492c6.87999 7.95299 11.28906 18.12979 11.28906 28.30078v51.46484a5.788 5.788.0 01-9.37109 4.54102c-27.97797-21.95598-43.80697-66.04735-49.91797-86.48633a15.226 15.226.0 00-14.59961-10.86133h-32.86133a10.3 10.3.0 00-9.92187 13.09375c7.42399 26.13998 20.15487 58.38051 48.71484 99.98047 33.51897 48.82795 75.58516 60.71875 95.11914 60.71875h15.02149a12.974 12.974.0 0012.97265-12.97656v-32.12891a7.666 7.666.0 0110.91602-6.92773c20.15098 9.31499 39.34395 31.00143 49.08594 43.23242a23.41 23.41.0 0018.31836 8.80078h32.48437a10.305 10.305.0 008.65625-15.88867c-18.18598-28.42897-35.05438-45.49848-45.85937-54.73047a13.877 13.877.0 01-1.62305-19.53906c16.57598-19.52398 34.19234-52.80143 43.23633-70.94141a8.788 8.788.0 00-7.87305-12.70117z" style="opacity:1;fill:#fff" id="path2"/></svg>