<?xml version="1.0" encoding="UTF-8" standalone="no"?>
<svg
   height="40px"
   viewBox="0 -960 960 960"
   width="40px"
   fill="#fff"
   version="1.1"
   id="svg1"
   sodipodi:docname="comments.svg"
   inkscape:version="1.4 (86a8ad7, 2024-10-11)"
   xmlns:inkscape="http://www.inkscape.org/namespaces/inkscape"
   xmlns:sodipodi="http://sodipodi.sourceforge.net/DTD/sodipodi-0.dtd"
   xmlns="http://www.w3.org/2000/svg"
   xmlns:svg="http://www.w3.org/2000/svg">
  <defs
     id="defs1" />
  <sodipodi:namedview
     id="namedview1"
     pagecolor="#ffffff"
     bordercolor="#cccccc"
     borderopacity="1"
     inkscape:showpageshadow="0"
     inkscape:pageopacity="1"
     inkscape:pagecheckerboard="0"
     inkscape:deskcolor="#d1d1d1"
     inkscape:zoom="20.925"
     inkscape:cx="20"
     inkscape:cy="20"
     inkscape:window-width="1920"
     inkscape:window-height="1017"
     inkscape:window-x="-8"
     inkscape:window-y="-8"
     inkscape:window-maximized="1"
     inkscape:current-layer="svg1" />
  <path
     d="M446.67-400h66.66v-126.67H640v-66.66H513.33V-720h-66.66v126.67H320v66.66h126.67V-400ZM80-80v-733.33q0-27 19.83-46.84Q119.67-880 146.67-880h666.66q27 0 46.84 19.83Q880-840.33 880-813.33v506.66q0 27-19.83 46.84Q840.33-240 813.33-240H240L80-80Zm131.33-226.67h602v-506.66H146.67v575l64.66-68.34Zm-64.66 0v-506.66 506.66Z"
     id="path1"
     style="fill:#000000" />
</svg>
