<?xml version="1.0" encoding="UTF-8" standalone="no"?>
<svg
   height="40px"
   viewBox="0 -960 960 960"
   width="40px"
   fill="#fff"
   version="1.1"
   id="svg1"
   sodipodi:docname="email.svg"
   inkscape:version="1.4 (86a8ad7, 2024-10-11)"
   xmlns:inkscape="http://www.inkscape.org/namespaces/inkscape"
   xmlns:sodipodi="http://sodipodi.sourceforge.net/DTD/sodipodi-0.dtd"
   xmlns="http://www.w3.org/2000/svg"
   xmlns:svg="http://www.w3.org/2000/svg">
  <defs
     id="defs1" />
  <sodipodi:namedview
     id="namedview1"
     pagecolor="#ffffff"
     bordercolor="#cccccc"
     borderopacity="1"
     inkscape:showpageshadow="0"
     inkscape:pageopacity="1"
     inkscape:pagecheckerboard="0"
     inkscape:deskcolor="#d1d1d1"
     inkscape:zoom="20.925"
     inkscape:cx="20"
     inkscape:cy="20"
     inkscape:window-width="1920"
     inkscape:window-height="1017"
     inkscape:window-x="-8"
     inkscape:window-y="-8"
     inkscape:window-maximized="1"
     inkscape:current-layer="svg1" />
  <path
     d="M146.67-160q-27 0-46.84-19.83Q80-199.67 80-226.67v-506.66q0-27 19.83-46.84Q119.67-800 146.67-800h666.66q27 0 46.84 19.83Q880-760.33 880-733.33v506.66q0 27-19.83 46.84Q840.33-160 813.33-160H146.67ZM480-454.67 146.67-670v443.33h666.66V-670L480-454.67Zm0-66.66 330.67-212H150l330 212ZM146.67-670v-63.33V-226.67-670Z"
     id="path1"
     style="fill:#000000" />
</svg>
