<?xml version="1.0" encoding="UTF-8" standalone="no"?>
<svg
   height="40px"
   viewBox="0 -960 960 960"
   width="40px"
   fill="#fff"
   version="1.1"
   id="svg1"
   sodipodi:docname="link.svg"
   inkscape:version="1.4 (86a8ad7, 2024-10-11)"
   xmlns:inkscape="http://www.inkscape.org/namespaces/inkscape"
   xmlns:sodipodi="http://sodipodi.sourceforge.net/DTD/sodipodi-0.dtd"
   xmlns="http://www.w3.org/2000/svg"
   xmlns:svg="http://www.w3.org/2000/svg">
  <defs
     id="defs1" />
  <sodipodi:namedview
     id="namedview1"
     pagecolor="#ffffff"
     bordercolor="#cccccc"
     borderopacity="1"
     inkscape:showpageshadow="0"
     inkscape:pageopacity="1"
     inkscape:pagecheckerboard="0"
     inkscape:deskcolor="#d1d1d1"
     inkscape:zoom="20.925"
     inkscape:cx="20"
     inkscape:cy="20"
     inkscape:window-width="1920"
     inkscape:window-height="1017"
     inkscape:window-x="-8"
     inkscape:window-y="-8"
     inkscape:window-maximized="1"
     inkscape:current-layer="svg1" />
  <path
     d="M446.67-280H280q-83 0-141.5-58.5T80-480q0-83 58.5-141.5T280-680h166.67v66.67H280q-55.56 0-94.44 38.84-38.89 38.84-38.89 94.33 0 55.49 38.89 94.49 38.88 39 94.44 39h166.67V-280ZM323.33-446.67v-66.66h313.34v66.66H323.33Zm190 166.67v-66.67H680q55.56 0 94.44-38.84 38.89-38.84 38.89-94.33 0-55.49-38.89-94.49-38.88-39-94.44-39H513.33V-680H680q83 0 141.5 58.5T880-480q0 83-58.5 141.5T680-280H513.33Z"
     id="path1"
     style="fill:#000000" />
</svg>
