<?xml version="1.0" encoding="UTF-8" standalone="no"?>
<!-- Created with Inkscape (http://www.inkscape.org/) -->

<svg
   width="499.99997mm"
   height="500mm"
   viewBox="0 0 499.99997 500"
   version="1.1"
   id="svg1"
   xml:space="preserve"
   inkscape:version="1.4 (86a8ad7, 2024-10-11)"
   sodipodi:docname="human-standing.svg"
   xmlns:inkscape="http://www.inkscape.org/namespaces/inkscape"
   xmlns:sodipodi="http://sodipodi.sourceforge.net/DTD/sodipodi-0.dtd"
   xmlns="http://www.w3.org/2000/svg"
   xmlns:svg="http://www.w3.org/2000/svg"><sodipodi:namedview
     id="namedview1"
     pagecolor="#ffffff"
     bordercolor="#cccccc"
     borderopacity="1"
     inkscape:showpageshadow="0"
     inkscape:pageopacity="1"
     inkscape:pagecheckerboard="0"
     inkscape:deskcolor="#d1d1d1"
     inkscape:document-units="mm"
     inkscape:zoom="0.37282197"
     inkscape:cx="638.3744"
     inkscape:cy="1004.5009"
     inkscape:window-width="1920"
     inkscape:window-height="1017"
     inkscape:window-x="-8"
     inkscape:window-y="-8"
     inkscape:window-maximized="1"
     inkscape:current-layer="layer2" /><defs
     id="defs1"><inkscape:path-effect
       effect="bspline"
       id="path-effect26"
       is_visible="true"
       lpeversion="1.3"
       weight="33.333333"
       steps="2"
       helper_size="0"
       apply_no_weight="true"
       apply_with_weight="true"
       only_selected="false"
       uniform="false" /><inkscape:path-effect
       effect="bspline"
       id="path-effect25"
       is_visible="true"
       lpeversion="1.3"
       weight="33.333333"
       steps="2"
       helper_size="0"
       apply_no_weight="true"
       apply_with_weight="true"
       only_selected="false"
       uniform="false" /><inkscape:path-effect
       effect="bspline"
       id="path-effect24"
       is_visible="true"
       lpeversion="1.3"
       weight="33.333333"
       steps="2"
       helper_size="0"
       apply_no_weight="true"
       apply_with_weight="true"
       only_selected="false"
       uniform="false" /><inkscape:path-effect
       effect="bspline"
       id="path-effect20"
       is_visible="true"
       lpeversion="1.3"
       weight="33.333333"
       steps="2"
       helper_size="0"
       apply_no_weight="true"
       apply_with_weight="true"
       only_selected="false"
       uniform="false" /><inkscape:path-effect
       effect="bspline"
       id="path-effect19"
       is_visible="true"
       lpeversion="1.3"
       weight="33.333333"
       steps="2"
       helper_size="0"
       apply_no_weight="true"
       apply_with_weight="true"
       only_selected="false"
       uniform="false" /><inkscape:path-effect
       effect="bspline"
       id="path-effect18"
       is_visible="true"
       lpeversion="1.3"
       weight="33.333333"
       steps="2"
       helper_size="0"
       apply_no_weight="true"
       apply_with_weight="true"
       only_selected="false"
       uniform="false" /><inkscape:path-effect
       effect="bspline"
       id="path-effect17"
       is_visible="true"
       lpeversion="1.3"
       weight="33.333333"
       steps="2"
       helper_size="0"
       apply_no_weight="true"
       apply_with_weight="true"
       only_selected="false"
       uniform="false" /><inkscape:path-effect
       effect="bspline"
       id="path-effect16"
       is_visible="true"
       lpeversion="1.3"
       weight="33.333333"
       steps="2"
       helper_size="0"
       apply_no_weight="true"
       apply_with_weight="true"
       only_selected="false"
       uniform="false" /><inkscape:path-effect
       effect="bspline"
       id="path-effect15"
       is_visible="true"
       lpeversion="1.3"
       weight="33.333333"
       steps="2"
       helper_size="0"
       apply_no_weight="true"
       apply_with_weight="true"
       only_selected="false"
       uniform="false" /><inkscape:path-effect
       effect="bspline"
       id="path-effect14"
       is_visible="true"
       lpeversion="1.3"
       weight="33.333333"
       steps="2"
       helper_size="0"
       apply_no_weight="true"
       apply_with_weight="true"
       only_selected="false"
       uniform="false" /><inkscape:path-effect
       effect="bspline"
       id="path-effect13"
       is_visible="true"
       lpeversion="1.3"
       weight="33.333333"
       steps="2"
       helper_size="0"
       apply_no_weight="true"
       apply_with_weight="true"
       only_selected="false"
       uniform="false" /><inkscape:path-effect
       effect="bspline"
       id="path-effect12"
       is_visible="true"
       lpeversion="1.3"
       weight="33.333333"
       steps="2"
       helper_size="0"
       apply_no_weight="true"
       apply_with_weight="true"
       only_selected="false"
       uniform="false" /><inkscape:path-effect
       effect="bspline"
       id="path-effect11"
       is_visible="true"
       lpeversion="1.3"
       weight="33.333333"
       steps="2"
       helper_size="0"
       apply_no_weight="true"
       apply_with_weight="true"
       only_selected="false"
       uniform="false" /><inkscape:path-effect
       effect="bspline"
       id="path-effect10"
       is_visible="true"
       lpeversion="1.3"
       weight="33.333333"
       steps="2"
       helper_size="0"
       apply_no_weight="true"
       apply_with_weight="true"
       only_selected="false"
       uniform="false" /><inkscape:path-effect
       effect="bspline"
       id="path-effect9"
       is_visible="true"
       lpeversion="1.3"
       weight="33.333333"
       steps="2"
       helper_size="0"
       apply_no_weight="true"
       apply_with_weight="true"
       only_selected="false"
       uniform="false" /><inkscape:path-effect
       effect="bspline"
       id="path-effect8"
       is_visible="true"
       lpeversion="1.3"
       weight="33.333333"
       steps="2"
       helper_size="0"
       apply_no_weight="true"
       apply_with_weight="true"
       only_selected="false"
       uniform="false" /></defs><g
     inkscape:groupmode="layer"
     id="layer2"
     inkscape:label="Layer 2"><g
       id="g26"
       transform="translate(-5.4838657,27.656254)"><path
         style="opacity:1;fill:#483737;stroke:none;stroke-width:0.264999;stroke-linecap:square;paint-order:markers fill stroke"
         d="m 134.95699,215.03225 c -10.76344,4.73119 -17.15054,10.17205 -20.46237,15.96781 -3.31183,5.79576 -3.54838,11.94617 -2.60213,20.46241 0.94626,8.51624 3.07525,19.39773 7.68822,26.96767 4.61298,7.56994 11.70962,11.82792 13.72034,17.86026 2.01072,6.03233 -1.06449,13.83862 -9.22592,23.18282 -8.16142,9.3442 -21.40846,20.22569 -28.505244,29.68814 -7.096786,9.46245 -8.043005,17.50531 -7.451591,24.36557 0.591415,6.86026 2.720416,12.53759 4.021495,15.13972 1.301078,2.60214 1.774182,2.12903 15.02176,2.01076 13.24757,-0.11828 39.26856,0.11828 52.87072,0.11827 13.60216,0 14.78493,-0.23656 15.37633,-2.01077 0.5914,-1.77422 0.5914,-5.08598 -2.24737,-7.09674 -2.83876,-2.01077 -8.51607,-2.72043 -15.1398,-4.84949 -6.62373,-2.12907 -14.19348,-5.67739 -17.15045,-10.6452 -2.95697,-4.96781 -1.30109,-11.35477 1.3011,-16.67739 2.60219,-5.32262 6.15051,-9.58061 12.18285,-14.66669 6.03234,-5.08607 14.54828,-10.99994 17.50525,-17.62367 2.95697,-6.62374 0.35488,-13.9569 -2.83871,-19.39781 -3.19359,-5.4409 -6.97845,-8.98921 -11.23657,-14.19359 -4.25812,-5.20438 -8.9892,-12.06444 -11.47308,-19.87098 -2.48387,-7.80654 -2.72042,-16.55905 1.18288,-23.41932 3.90331,-6.86026 11.94616,-11.8279 18.80643,-16.67741 6.86027,-4.84951 12.53758,-9.5806 13.95691,-13.12901 1.41932,-3.54841 -1.41933,-5.91396 -10.40873,-5.08596 -8.9894,0.828 -24.12888,4.84942 -34.89232,9.5806 z"
         id="path26"
         inkscape:path-effect="#path-effect26"
         inkscape:original-d="m 130.58064,214.32258 c -6.38709,5.44086 -12.77419,10.88172 -19.16129,16.32258 -0.23656,6.15066 -0.47311,12.30107 -0.70967,18.45161 2.12907,10.88194 4.25806,21.76343 6.38709,32.64516 7.09692,4.25815 14.19355,8.51614 21.29033,12.77419 -3.07534,7.80661 -6.15054,15.6129 -9.22581,23.41935 -13.24758,10.88195 -26.49462,21.76344 -39.741935,32.64517 -0.946256,8.04317 -1.892475,16.08603 -2.838712,24.12905 2.129075,5.6775 4.258066,11.35483 6.387097,17.03223 0.473128,-0.47313 0.946237,-0.94623 1.419355,-1.41936 26.022025,0.23657 52.043015,0.47313 78.064515,0.70969 1.18282,-0.23656 2.36559,-0.47312 3.54839,-0.70969 0,-3.31187 0,-6.62363 0,-9.93547 -5.67753,-0.70969 -11.35484,-1.41936 -17.03226,-2.12902 -7.57004,-3.54846 -15.13978,-7.09679 -22.70968,-10.64517 1.65595,-6.38723 3.31183,-12.77419 4.96775,-19.16128 3.54845,-4.25816 7.09677,-8.51615 10.64516,-12.77419 8.5163,-5.9141 17.03225,-11.82796 25.54838,-17.74196 -2.6022,-7.33348 -5.2043,-14.66664 -7.80645,-21.99999 -3.78502,-3.54846 -7.56989,-7.09676 -11.35484,-10.64517 -4.73128,-6.86036 -9.46236,-13.72042 -14.19355,-20.58064 -0.23656,-8.75286 -0.47311,-17.50537 -0.70967,-26.25806 8.04317,-4.96784 16.08602,-9.93548 24.12903,-14.90323 5.67753,-4.73127 11.35484,-9.46236 17.03226,-14.19354 -2.83877,-2.36564 -5.67742,-4.73119 -8.51613,-7.09678 -15.14009,4.02159 -30.27957,8.04301 -45.41936,12.06452 z"
         sodipodi:nodetypes="cccccccccccccccccccccccccc" /><rect
         style="opacity:1;fill:#d7eef4;stroke:none;stroke-width:0.315819;stroke-linecap:square;paint-order:markers fill stroke"
         id="rect20"
         width="277.48389"
         height="176.70969"
         x="26.967716"
         y="45.419353"
         ry="20.648521" /></g><g
       id="g25"
       transform="translate(-5.4838657,27.656254)"><path
         style="opacity:1;fill:#916f6f;stroke:none;stroke-width:0.264999;stroke-linecap:square;paint-order:markers fill stroke"
         d="m 214.19252,269.97792 c -0.58545,2.92727 1.25455,7.86183 3.26184,14.63644 2.0073,6.77462 4.1818,15.389 3.59631,23.71089 -0.58549,8.32189 -3.93087,16.3508 -7.48545,27.14002 -3.55458,10.78922 -7.31814,24.33803 -5.93808,34.20717 1.38007,9.86915 7.90356,16.0581 15.64001,19.52902 7.73645,3.47092 16.68535,4.22363 27.14001,4.55817 10.45465,0.33454 22.4144,0.25091 33.74723,-0.33456 11.33283,-0.58546 22.03806,-1.67271 27.43259,-3.97274 5.39454,-2.30003 5.47817,-5.81269 4.51633,-8.82362 -0.96184,-3.01094 -2.96907,-5.51998 -9.28371,-8.61455 -6.31464,-3.09458 -16.93623,-6.7745 -25.29992,-10.83091 -8.36369,-4.0564 -14.46903,-8.48904 -17.93994,-15.68186 -3.47091,-7.19281 -4.30726,-17.14533 -4.05633,-24.5472 0.25092,-7.40186 1.58907,-12.25267 1.33814,-17.43817 -0.25092,-5.18551 -2.09088,-10.70538 -5.56184,-15.17996 -3.47096,-4.47458 -8.57267,-7.9036 -11.79268,-11.66728 -3.22001,-3.76367 -4.55816,-7.86175 -7.06728,-9.91084 -2.50913,-2.04909 -6.18906,-2.04909 -8.99089,-1.96545 -2.80184,0.0836 -4.72543,0.2509 -7.19273,0.79454 -2.4673,0.54365 -5.47815,1.46363 -6.06361,4.39089 z"
         id="path25"
         inkscape:path-effect="#path-effect25"
         inkscape:original-d="m 211.76707,267.97066 c 1.84,4.93453 3.68,9.86909 5.52,14.80362 2.17458,8.6147 4.34909,17.22908 6.52363,25.8436 -3.34552,8.02926 -6.6909,16.05817 -10.03635,24.08727 -3.76371,13.54934 -7.52727,27.09815 -11.29091,40.64722 6.52377,6.18922 13.04727,12.37816 19.5709,18.56727 8.94926,0.75274 17.89816,1.50545 26.84724,2.25817 11.96023,-0.0836 23.91998,-0.16727 35.87996,-0.25091 10.70568,-1.0873 21.41091,-2.17453 32.11634,-3.26181 0.0836,-3.51279 0.16727,-7.02545 0.25091,-10.53817 -2.00732,-2.50915 -4.01455,-5.01819 -6.02181,-7.52726 -10.62202,-3.68009 -21.24361,-7.35999 -31.86541,-11.04 -6.10558,-4.43281 -12.21092,-8.86545 -18.31636,-13.29817 -0.83638,-9.95291 -1.67273,-19.90543 -2.50909,-29.85815 1.33821,-4.85101 2.67636,-9.70182 4.01454,-14.55272 -1.84003,-5.52011 -3.68,-11.03998 -5.51999,-16.55998 -5.10192,-3.42916 -10.20363,-6.85819 -15.30544,-10.28727 -1.33821,-4.09826 -2.67636,-8.19634 -4.01454,-12.29452 -3.68007,0 -7.36,0 -11.03999,0 -1.92368,0.16727 -3.84727,0.33454 -5.77091,0.50181 -3.01096,0.92001 -6.02181,1.83999 -9.03272,2.76 z"
         sodipodi:nodetypes="ccccccccccccccccccccc" /><rect
         style="opacity:1;fill:#d5d5ff;stroke:none;stroke-width:0.264999;stroke-linecap:square;paint-order:markers fill stroke"
         id="rect23"
         width="179.54839"
         height="109.99999"
         x="146.90323"
         y="162.51613"
         ry="18.160748" /></g><g
       id="g24"
       transform="translate(-5.4838657,27.656254)"><path
         style="opacity:1;fill:#ac9393;stroke:none;stroke-width:0.264999;stroke-linecap:square;paint-order:markers fill stroke"
         d="m 347.26881,255.01075 c -0.94623,5.67742 2.60215,16.55914 2.36555,32.05396 -0.23659,15.49482 -4.25802,35.60196 -9.16668,54.34943 -4.90866,18.74748 -10.70424,36.13423 -11.70958,45.0052 -1.00534,8.87098 2.77952,9.22581 10.46781,8.75268 7.68829,-0.47313 19.27945,-1.77417 31.40324,-1.77416 12.12379,2e-5 24.77944,1.30106 30.63428,-2.12913 5.85483,-3.43018 4.90861,-11.59131 -0.41406,-18.86557 -5.32268,-7.27426 -15.02142,-13.66124 -19.93003,-23.24201 -4.9086,-9.58078 -5.02688,-22.3547 -3.9032,-32.11283 1.12369,-9.75814 3.48924,-16.49994 2.72038,-23.47851 -0.76887,-6.97857 -4.67195,-14.19336 -7.33311,-21.3786 -2.66115,-7.18524 -4.08012,-14.34034 -6.09087,-18.30271 -2.01075,-3.96236 -4.61324,-4.73188 -8.63494,-4.88008 -4.02171,-0.14821 -9.46255,0.32491 -10.40879,6.00233 z"
         id="path24"
         inkscape:path-effect="#path-effect24"
         inkscape:original-d="m 342.77419,249.80645 c 3.54838,10.88172 7.09678,21.76344 10.64516,32.64517 -4.02158,20.10791 -8.04301,40.21505 -12.06452,60.32257 -5.7958,17.38743 -11.5914,34.77418 -17.38709,52.16128 3.78502,0.35486 7.56988,0.70969 11.35483,1.06452 11.59163,-1.30109 23.18279,-2.60215 34.77421,-3.90321 12.65616,1.30109 25.31181,2.60215 37.96774,3.90321 -0.94626,-8.16144 -1.89249,-16.32257 -2.83872,-24.48388 -9.69912,-6.3872 -19.39785,-12.77419 -29.09678,-19.16128 -0.11827,-12.77446 -0.23654,-25.54838 -0.35484,-38.32257 2.36564,-6.74208 4.7312,-13.48388 7.09679,-20.22581 -3.90332,-7.21521 -7.8064,-14.43 -11.70969,-21.64516 -1.41902,-7.15532 -2.83799,-14.31042 -4.25699,-21.46563 -2.6025,-0.76953 -5.20499,-1.53904 -7.80751,-2.30857 -5.44089,0.47312 -10.88173,0.94624 -16.32259,1.41936 z"
         sodipodi:nodetypes="ccccccccccccccc" /><rect
         style="opacity:1;fill:#f4d7e3;stroke:none;stroke-width:0.264999;stroke-linecap:square;paint-order:markers fill stroke"
         id="rect24"
         width="239.16129"
         height="183.80644"
         x="244.8387"
         y="70.967743"
         ry="18.160748" /></g></g><g
     inkscape:label="Layer 1"
     inkscape:groupmode="layer"
     id="layer1"
     transform="translate(0.634317,0.13249927)"><path
       style="opacity:1;fill:#de8787;stroke:none;stroke-width:0.264999;stroke-linecap:square;paint-order:markers fill stroke"
       d="m 112.57665,425.78825 252.41432,1.00364 c 0,0 -14.55272,-7.52726 4.51636,-7.52726 19.06907,0 31.11269,0.50181 31.11269,0.50181 0,0 9.03272,-6.52362 -3.0109,-5.01817 -12.04365,1.50546 -303.599724,1.00365 -303.599724,1.00365 0,0 -22.079979,2.50907 -1.003636,3.51271 21.07634,1.00364 19.57089,6.52362 19.57089,6.52362 z"
       id="path5" /><g
       id="g23"
       transform="translate(-5.4838657,27.656254)"><path
         style="fill:#ececec;stroke:none;stroke-width:0.264999;stroke-linecap:square;paint-order:markers fill stroke"
         d="m 238.70439,119.80298 c 0,0 5.85484,16.67742 -3.37097,20.75807 -9.22581,4.08064 9.93549,1.77419 9.93549,1.77419 l 12.06451,-1.06451 c 0,0 -5.67742,-15.08065 -3.54839,-18.45162 2.12904,-3.37097 -15.08064,-3.01613 -15.08064,-3.01613 z"
         id="path21" /><g
         id="g1"
         transform="matrix(1.1579684,0,0,1.1579684,-39.871836,-18.327494)"><path
           style="opacity:1;fill:#ffffff;stroke:none;stroke-width:0.264999;stroke-linecap:square;paint-order:markers fill stroke"
           d="m 241.75068,118.9308 c 0,0 1.12909,6.52363 4.26545,8.02908 3.13636,1.50545 8.5309,2.13273 8.78181,1.38 5.54381,-4.42594 6.19706,-9.05805 5.89636,-16.55998 -0.50182,-6.14727 -1.25454,-8.15454 -1.25454,-8.15454 l -4.14,-3.763637 c 0,0 -10.03636,1.254547 -10.66363,1.254547 -0.62727,0 -4.89272,1.25454 -4.89272,1.25454 z"
           id="path27"
           sodipodi:nodetypes="csssccscc" /><path
           style="opacity:1;fill:#1a1a1a;stroke:none;stroke-width:0.264999;stroke-linecap:square;paint-order:markers fill stroke"
           d="m 239.4925,95.596275 c 0,0 -2.38363,-7.02545 10.16181,-4.516361 12.54544,2.509089 13.04726,2.258179 13.42363,0.501817 0.37636,-1.75636 2.13272,1.756362 2.13272,2.258182 0,0.501816 2.38363,3.512722 -1.25455,7.276357 -3.63817,3.76363 -6.39817,3.63818 -6.39817,3.63818 -10.69482,-5.540537 -8.2741,-1.21316 -10.28727,-1.25454 -3.17558,-0.0653 -7.65272,-0.87819 -5.39454,1.12908 3.99371,3.53457 2.49075,12.92778 -1.25454,8.78181 -1.1336,-1.25488 1.66225,5.04579 2.15765,8.01719 0.34267,2.05533 -1.33135,1.34001 -2.40856,0.2628 -2.63453,-2.63454 -3.51272,-8.15453 -4.3909,-10.28726 -0.87818,-2.13273 -3.88909,-7.27636 -3.88909,-8.02908 0,-0.75273 -2.13272,-5.394541 2.00727,-6.398177 4.14,-1.003636 5.39454,-1.379998 5.39454,-1.379998 z"
           id="path28"
           sodipodi:nodetypes="csssscssssssssc" /></g></g><g
       id="g22"
       transform="translate(-5.4838657,27.656254)"><path
         style="opacity:1;fill:#ffccaa;stroke:none;stroke-width:0.264999;stroke-linecap:square;paint-order:markers fill stroke"
         d="m 273.57135,232.78168 c -36.54839,2.12902 -52.16129,3.54838 -52.16129,3.54838 0,0 -1.7742,1.41936 -1.41936,22 0.35484,20.58064 -0.70968,118.81411 -0.70968,118.81411 l 12.41936,-0.70967 13.83871,-121.29799 c 0,0 3.90322,-0.35483 3.90322,2.48388 0,2.83872 6.03226,118.45928 6.03226,118.45928 0,0 12.06452,3.90321 12.06452,0.70966 0,-3.19354 6.74193,-136.91089 6.74193,-136.91089 z"
         id="path4"
         sodipodi:nodetypes="ccscccscscc" /><path
         style="opacity:1;fill:#222228;stroke:none;stroke-width:0.264999;stroke-linecap:square;paint-order:markers fill stroke"
         d="m 236.4895,139.09295 c -23.83634,11.03999 -26.59634,20.32362 -26.59634,20.32362 0,0 -15.05453,37.63633 -13.79999,44.66178 1.25455,7.02545 27.59998,36.13087 27.59998,36.13087 l 7.77817,-3.26181 -18.06544,-33.62179 c 0,0 7.52727,-27.59997 11.79272,-32.36724 4.26545,-4.76727 5.7709,-0.50182 5.7709,-0.50182"
         id="path1"
         sodipodi:nodetypes="ccscccsc" /><path
         style="opacity:1;fill:#222228;stroke:none;stroke-width:0.264999;stroke-linecap:square;paint-order:markers fill stroke"
         d="m 256.56221,137.5875 c 0,0 19.8218,5.26909 21.57816,11.2909 1.75635,6.02181 11.2909,52.18904 9.03271,59.4654 -2.25817,7.27635 -13.54907,33.37087 -13.54907,33.37087 l -9.28363,-4.26545 c 0,0 9.28362,-32.86906 10.78908,-38.63996 1.55268,-5.95191 -1.00363,-33.11997 -1.00363,-33.11997"
         id="path2"
         sodipodi:nodetypes="cssccsc" /><path
         style="opacity:1;fill:#222228;stroke:none;stroke-width:0.264999;stroke-linecap:square;paint-order:markers fill stroke"
         d="m 219.63586,166.80023 c 0,0 7.80645,59.25807 4.25807,67.41935 -3.54839,8.16129 50.74193,-2.48388 50.74193,-2.48388 0,0 8.51613,-69.90322 1.7742,-76.99999 -6.74194,-7.09678 -22,-18.09678 -22,-18.09678 0,0 -10.64516,-5.67741 -22,3.54839 -11.35484,9.22581 -12.7742,26.61291 -12.7742,26.61291 z"
         id="path3"
         sodipodi:nodetypes="cscscsc" /><path
         style="opacity:1;fill:#4d4d4d;stroke:none;stroke-width:0.264999;stroke-linecap:square;paint-order:markers fill stroke"
         d="m 219.63586,377.14417 c -13.12903,7.98388 -14.54838,8.33872 -14.19354,10.46774 0.35483,2.12905 26.43548,0.53225 26.43548,0.53225 l -0.53226,-11.35483 z"
         id="path6"
         sodipodi:nodetypes="csccc" /><path
         style="opacity:1;fill:#4d4d4d;stroke:none;stroke-width:0.264999;stroke-linecap:square;paint-order:markers fill stroke"
         d="m 254.94231,375.90224 c 0,0 -3.37096,10.29033 -1.24193,11.70969 2.12903,1.41933 26.25807,0.53224 26.25807,0.53224 0,0 3.19354,-1.77418 -0.17743,-4.08063 -3.37095,-2.30646 -12.41935,-7.45164 -12.41935,-7.45164 z"
         id="path7"
         sodipodi:nodetypes="cscscc" /></g><g
       id="g21"
       transform="translate(-5.4838657,27.656254)"><path
         style="opacity:1;fill:#aaaaff;stroke:none;stroke-width:0.264999;stroke-linecap:square;paint-order:markers fill stroke"
         d="m 309.32171,332.15464 c 6.52377,-10.7893 10.87276,-12.9638 15.97464,-13.38197 5.10187,-0.41817 10.95628,0.91999 13.96719,3.76366 3.01091,2.84368 3.17818,7.19269 0.50177,18.40014 -2.67642,11.20744 -8.1963,29.2725 -16.22548,44.6617 -8.02919,15.38919 -18.56716,28.10166 -25.09081,34.87621 -6.52365,6.77455 -9.0327,7.6109 -10.45452,6.52359 -1.42183,-1.08731 -1.75637,-4.09813 -2.00728,-11.96008 -0.25091,-7.86195 -0.41818,-20.57441 3.84727,-36.63256 4.26545,-16.05814 12.96345,-35.46138 19.48722,-46.25069 z"
         id="path8"
         inkscape:path-effect="#path-effect8"
         inkscape:original-d="m 311.4963,323.53993 c 4.34917,-2.17461 8.69818,-4.34908 13.04727,-6.52364 5.85465,1.33821 11.70906,2.67637 17.5636,4.01455 0.16729,4.34917 0.33456,8.69818 0.50183,13.04726 -5.52011,18.06581 -11.04,36.13087 -16.55998,54.1963 -10.53838,12.71296 -21.07636,25.42543 -31.61453,38.13815 -2.50912,0.83638 -5.01817,1.67273 -7.52726,2.5091 -0.33454,-3.01099 -0.66908,-6.02181 -1.00365,-9.03272 -0.16727,-12.71299 -0.33454,-25.42545 -0.50181,-38.13815 8.69817,-19.40359 17.39617,-38.80683 26.09453,-58.21085 z"
         sodipodi:nodetypes="cccccccccc"
         transform="translate(14.818569,-65.916874)" /><path
         style="opacity:1;fill:#aaaaff;stroke:none;stroke-width:0.264999;stroke-linecap:square;paint-order:markers fill stroke"
         d="m 269.13451,411.94347 c -0.79455,-9.03272 -0.54363,-10.45453 -0.16726,-12.42001 0.37637,-1.96547 0.87818,-4.47451 1.84001,-6.14725 0.96183,-1.67274 2.38362,-2.50908 4.47455,-2.96909 2.09094,-0.46 4.85089,-0.54363 6.56544,0.54367 1.71454,1.08731 2.38361,3.34542 2.84362,8.8655 0.46,5.52008 0.7109,14.30174 0.66909,19.65447 -0.0418,5.35273 -0.37636,7.27633 0.25093,9.03272 0.62728,1.75638 2.21635,3.34544 2.29997,7.36004 0.0836,4.0146 -1.33817,10.45446 -2.59273,14.17629 -1.25455,3.72184 -2.34179,4.72544 -4.09819,4.97634 -1.7564,0.25091 -4.18178,-0.25089 -5.5618,-0.5018 -1.38001,-0.25091 -1.71454,-0.25091 -2.80183,-8.57289 -1.08729,-8.32198 -2.92726,-24.96527 -3.7218,-33.99799 z"
         id="path9"
         inkscape:path-effect="#path-effect9"
         inkscape:original-d="m 268.08905,404.33257 c 0.25094,-1.42182 0.50184,-2.84363 0.75274,-4.26545 0.50184,-2.50913 1.00365,-5.01817 1.50546,-7.52727 1.42184,-0.83637 2.84363,-1.67272 4.26545,-2.50909 2.76005,-0.0836 5.52,-0.16727 8.27998,-0.25091 0.6691,2.25825 1.33818,4.51636 2.00728,6.77455 0.25091,8.78197 0.50181,17.56363 0.75272,26.34544 -0.33454,1.92365 -0.66908,3.84725 -1.00362,5.77091 1.58911,1.58911 3.17818,3.17817 4.76726,4.76726 -1.42184,6.44011 -2.84363,12.87997 -4.26545,19.31998 -1.08731,1.00364 -2.17453,2.00726 -3.26181,3.0109 -2.42552,-0.50183 -4.8509,-1.00364 -7.27636,-1.50545 -0.33457,0 -0.6691,0 -1.00364,0 -1.84002,-16.64396 -3.67999,-33.28725 -5.52001,-49.93087 z"
         transform="translate(14.818569,-65.916874)" /><path
         style="opacity:1;fill:#aaaaff;stroke:none;stroke-width:0.264999;stroke-linecap:square;paint-order:markers fill stroke"
         d="m 336.67082,382.41987 c 4.43272,-2.67637 7.44363,-3.68 9.70182,-3.59635 2.2582,0.0837 3.76363,1.25454 4.89272,3.17819 1.12909,1.92365 1.8818,4.59997 1.17087,7.90365 -0.71094,3.30368 -2.88543,7.23449 -5.85455,10.45451 -2.96912,3.22002 -6.73268,5.72906 -13.63278,9.07455 -6.90009,3.3455 -16.93625,7.52723 -23.37627,10.99816 -6.44002,3.47093 -9.2836,6.23088 -11.20725,7.02541 -1.92364,0.79454 -2.92726,-0.37635 -0.20902,-4.47459 2.71824,-4.09825 9.15812,-11.12358 13.50723,-16.47633 4.34911,-5.35276 6.60725,-9.03268 10.66366,-13.04726 4.05642,-4.01458 9.91085,-8.36358 14.34357,-11.03994 z"
         id="path10"
         inkscape:path-effect="#path-effect10"
         inkscape:original-d="m 338.09264,380.74714 c 3.01091,-1.00362 6.02181,-2.00726 9.03272,-3.01091 1.50548,1.17094 3.01091,2.34183 4.51636,3.51274 0.75274,2.67639 1.50545,5.35271 2.25816,8.02907 -2.17458,3.931 -4.34908,7.86181 -6.52362,11.79272 -3.76369,2.50915 -7.52726,5.01817 -11.2909,7.52726 -10.03655,4.1819 -20.0727,8.36364 -30.10906,12.54544 -2.84369,2.76005 -5.68727,5.52 -8.53091,8.28 -1.00364,-1.17094 -2.00726,-2.34183 -3.0109,-3.51272 6.44012,-7.02558 12.88,-14.05091 19.31998,-21.07636 2.25825,-3.68006 4.51636,-7.35999 6.77455,-11.03998 5.85465,-4.34917 11.70908,-8.69817 17.56362,-13.04726 z"
         transform="translate(14.818569,-65.916874)" /><path
         style="opacity:1;fill:#aaaaff;stroke:none;stroke-width:0.264999;stroke-linecap:square;paint-order:markers fill stroke"
         d="m 290.21087,435.69618 c -1.54727,4.59999 -3.30363,11.95998 -3.38726,15.51452 -0.0836,3.55454 1.50543,3.30364 3.55455,3.22001 2.04912,-0.0836 4.55816,0 6.23089,-0.62728 1.67272,-0.62729 2.50907,-1.96545 3.34545,-3.72183 0.83638,-1.75639 1.67272,-3.93088 3.51275,-6.02181 1.84003,-2.09093 4.68361,-4.09816 8.57274,-7.15092 3.88913,-3.05276 8.82357,-7.15087 11.70903,-10.24543 2.88545,-3.09456 3.7218,-5.18543 3.55453,-7.19271 -0.16728,-2.00729 -1.33816,-3.93089 -5.81279,-2.29994 -4.47462,1.63096 -12.25264,6.81631 -17.01994,9.49267 -4.76729,2.67636 -6.52359,2.84363 -7.69451,2.5509 -1.17092,-0.29273 -1.75637,-1.04544 -2.71819,-0.50179 -0.96183,0.54366 -2.29998,2.38362 -3.84725,6.98361 z"
         id="path11"
         inkscape:path-effect="#path-effect11"
         inkscape:original-d="m 290.41997,432.93617 c -1.75639,7.36 -3.51274,14.71999 -5.2691,22.07998 1.58911,-0.2509 3.17817,-0.5018 4.76726,-0.75271 2.50915,0.0836 5.01819,0.16727 7.52726,0.25091 0.83638,-1.33821 1.67273,-2.67637 2.5091,-4.01455 0.83638,-2.17459 1.67272,-4.34909 2.5091,-6.52362 2.84369,-2.00732 5.68727,-4.01455 8.53088,-6.02181 4.93464,-4.09827 9.86909,-8.19637 14.80362,-12.29453 0.8364,-2.09095 1.67275,-4.18182 2.5091,-6.27274 -1.17094,-1.92365 -2.3418,-3.84726 -3.51272,-5.77091 -7.77832,5.18557 -15.55636,10.3709 -23.33453,15.55636 -1.75641,0.16727 -3.51271,0.33454 -5.26909,0.50181 -0.58545,-0.75274 -1.17089,-1.50545 -1.75636,-2.25816 -1.33821,1.84002 -2.67637,3.67998 -4.01452,5.51997 z"
         transform="translate(14.818569,-65.916874)" /></g><g
       id="g20"
       transform="translate(-5.4838657,27.656254)"><path
         style="opacity:1;fill:#aaaaff;stroke:none;stroke-width:0.264999;stroke-linecap:square;paint-order:markers fill stroke"
         d="m 124.62375,368.01266 c -2.48388,-2.06989 -2.83871,-3.96237 -2.18816,-5.26345 0.65055,-1.30107 2.30644,-2.01075 5.02691,-1.00534 2.72047,1.0054 6.50534,3.72577 8.16124,6.15052 1.65591,2.42475 1.1828,4.55375 -1.36026,4.49459 -2.54305,-0.0591 -7.15586,-2.30643 -9.63973,-4.37632 z"
         id="path12"
         inkscape:path-effect="#path-effect12"
         inkscape:original-d="m 122.49471,367.83523 c -0.35483,-1.89246 -0.70967,-3.78494 -1.06451,-5.6774 1.65594,-0.70969 3.31183,-1.41936 4.96774,-2.12905 3.78502,2.7205 7.56989,5.44087 11.35484,8.16129 -0.47313,2.12907 -0.94624,4.25807 -1.41936,6.38712 -4.61299,-2.24737 -9.2258,-4.49464 -13.83871,-6.74196 z"
         transform="translate(14.818569,-65.916874)" /><path
         style="opacity:1;fill:#aaaaff;stroke:none;stroke-width:0.264999;stroke-linecap:square;paint-order:markers fill stroke"
         d="m 136.39256,356.30298 c -0.0591,-4.19892 1.36022,-5.38172 2.89787,-5.91397 1.53765,-0.53226 3.19353,-0.41398 4.43547,0.65055 1.24194,1.06453 2.06988,3.07525 2.01074,6.86025 -0.0591,3.785 -1.00537,9.34403 -2.18818,12.47844 -1.18281,3.13442 -2.60213,3.84408 -4.08064,0.59132 -1.47852,-3.25277 -3.01612,-10.46766 -3.07526,-14.66659 z"
         id="path13"
         inkscape:path-effect="#path-effect13"
         inkscape:original-d="m 134.91407,353.28685 c 1.41935,-1.18279 2.83871,-2.36558 4.25806,-3.54838 1.65595,0.11827 3.31183,0.23654 4.96774,0.35484 0.82798,2.01078 1.65592,4.0215 2.48387,6.03226 -0.94625,5.55924 -1.89247,11.11827 -2.8387,16.6774 -1.41939,0.70969 -2.83871,1.41936 -4.25807,2.12905 -1.53766,-7.21522 -3.07527,-14.43011 -4.6129,-21.64517 z"
         transform="translate(14.818569,-65.916874)" /><path
         style="opacity:1;fill:#aaaaff;stroke:none;stroke-width:0.264999;stroke-linecap:square;paint-order:markers fill stroke"
         d="m 149.2259,366.82986 c 2.12903,-3.01613 4.37634,-2.42474 5.85484,-1.47848 1.4785,0.94625 2.18816,2.2473 1.89245,4.13979 -0.2957,1.8925 -1.59675,4.37632 -3.07526,7.03765 -1.47852,2.66132 -3.13439,5.49996 -4.96775,6.62361 -1.83335,1.12365 -3.84407,0.53227 -3.84405,-3.07533 2e-5,-3.60759 2.01074,-10.23111 4.13977,-13.24724 z"
         id="path14"
         inkscape:path-effect="#path-effect14"
         inkscape:original-d="m 149.10762,363.22233 c 2.24731,0.59139 4.49462,1.18279 6.74193,1.77419 0.70969,1.30111 1.41936,2.60215 2.12903,3.90324 -1.3011,2.48391 -2.60215,4.96773 -3.90322,7.45162 -1.65595,2.83876 -3.31183,5.6774 -4.96774,8.51611 -2.0108,-0.59139 -4.02151,-1.18279 -6.03226,-1.77419 2.01079,-6.62379 4.0215,-13.24731 6.03226,-19.87097 z"
         transform="translate(14.818569,-65.916874)" /><path
         style="opacity:1;fill:#aaaaff;stroke:none;stroke-width:0.264999;stroke-linecap:square;paint-order:markers fill stroke"
         d="m 136.15283,382.67078 c -1.79818,0.41818 -3.05273,2.00727 -2.67634,3.88911 0.37638,1.88183 2.38361,4.05634 5.56184,5.97999 3.17822,1.92365 7.52721,3.59634 10.03631,4.18179 2.5091,0.58545 3.17817,0.0836 1.79814,-2.25821 -1.38003,-2.34186 -4.80905,-6.5236 -7.69453,-8.99088 -2.88547,-2.46727 -5.22724,-3.21998 -7.02542,-2.8018 z"
         id="path15"
         inkscape:path-effect="#path-effect15"
         inkscape:original-d="m 135.60919,381.49988 c -1.25454,1.58908 -2.50909,3.17817 -3.76363,4.76726 2.00731,2.17458 4.01454,4.34909 6.02181,6.52362 4.34918,1.67277 8.69817,3.34547 13.04726,5.01819 0.66911,-0.50183 1.33818,-1.00364 2.00727,-1.50545 -3.42915,-4.1819 -6.85817,-8.36364 -10.28726,-12.54546 -2.34186,-0.75274 -4.68363,-1.50545 -7.02545,-2.25816 z"
         transform="translate(14.818569,-65.916874)" /><path
         style="opacity:1;fill:#aaaaff;stroke:none;stroke-width:0.264999;stroke-linecap:square;paint-order:markers fill stroke"
         d="m 116.24739,389.82168 c -0.87818,1.88183 -2.04908,4.30726 -1.79816,6.44001 0.25093,2.13275 1.92361,3.97271 6.23095,5.93819 4.30734,1.96547 11.24901,4.05633 15.5563,4.97633 4.30729,0.91999 5.97998,0.66908 6.64907,-0.25093 0.66908,-0.92001 0.33454,-2.50907 -2.13277,-5.60365 -2.46731,-3.09459 -7.06722,-7.6945 -11.16544,-10.62178 -4.09821,-2.92728 -7.6945,-4.1818 -9.78541,-4.13998 -2.09091,0.0418 -2.67636,1.37999 -3.55454,3.26181 z"
         id="path16"
         inkscape:path-effect="#path-effect16"
         inkscape:original-d="m 116.54012,389.27804 c -1.17091,2.42547 -2.34182,4.8509 -3.51272,7.27636 1.67275,1.84005 3.34545,3.67999 5.01817,5.52001 6.94195,2.09094 13.88362,4.18179 20.82544,6.27271 1.67276,-0.25093 3.34545,-0.50183 5.01817,-0.75274 -0.33455,-1.58911 -0.66909,-3.17817 -1.00363,-4.76726 -4.60009,-4.60007 -9.19999,-9.19999 -13.79999,-13.79998 -3.59643,-1.25457 -7.19272,-2.5091 -10.78908,-3.76364 -0.58546,1.3382 -1.17091,2.67636 -1.75636,4.01454 z"
         transform="translate(14.818569,-65.916874)" /><path
         style="opacity:1;fill:#aaaaff;stroke:none;stroke-width:0.264999;stroke-linecap:square;paint-order:markers fill stroke"
         d="m 176.6746,409.76894 c -2.42545,1.08728 -4.43271,3.34545 -6.27273,7.73642 -1.84002,4.39097 -3.5127,10.91445 -3.38723,16.39268 0.12547,5.47822 2.04907,9.91087 4.18181,13.21452 2.13275,3.30365 4.47453,5.47815 5.97998,6.5236 1.50546,1.04546 2.17454,0.96182 3.26183,0.79455 1.08728,-0.16727 2.5927,-0.41817 3.30361,-1.12909 0.71091,-0.71093 0.62728,-1.88181 0.37636,-4.55822 -0.25091,-2.67641 -0.66909,-6.85815 -0.29271,-11.2491 0.37638,-4.39094 1.54726,-8.99085 1.83998,-13.79998 0.29272,-4.80914 -0.29272,-9.8272 -2.00729,-12.37811 -1.71457,-2.55092 -4.55815,-2.63455 -6.98361,-1.54727 z"
         id="path17"
         inkscape:path-effect="#path-effect17"
         inkscape:original-d="m 176.25643,408.59802 c -2.00728,2.2582 -4.01455,4.51636 -6.02182,6.77456 -1.67276,6.52375 -3.34545,13.04723 -5.01817,19.57088 1.92367,4.4328 3.84727,8.86545 5.7709,13.29817 2.34186,2.17458 4.68363,4.34909 7.02545,6.52362 0.6691,-0.0836 1.33818,-0.16727 2.00727,-0.2509 1.50548,-0.25091 3.0109,-0.50181 4.51636,-0.75272 -0.0836,-1.17094 -0.16728,-2.34182 -0.25091,-3.51274 -0.41819,-4.1819 -0.83636,-8.36364 -1.25455,-12.54543 1.17094,-4.6001 2.34182,-9.20001 3.51273,-13.8 -0.58547,-5.01828 -1.17091,-10.03634 -1.75636,-15.05453 -2.84369,-0.0836 -5.68727,-0.16727 -8.5309,-0.25091 z"
         transform="translate(14.818569,-65.916874)" /><path
         style="opacity:1;fill:#aaaaff;stroke:none;stroke-width:0.264999;stroke-linecap:square;paint-order:markers fill stroke"
         d="m 136.86373,436.28163 c -2.84363,0.41818 -5.93817,1.42181 -7.35999,2.96911 -1.42181,1.54729 -1.17091,3.63816 0.71094,5.68727 1.88185,2.04912 5.3945,4.05634 9.61819,5.72908 4.22368,1.67274 9.15813,3.01089 12.2945,3.63816 3.13638,0.62726 4.47453,0.54363 8.07095,0.50182 3.59642,-0.0418 9.45084,-0.0418 11.9181,-0.75274 2.46726,-0.71092 1.54728,-2.13272 0.12544,-3.34545 -1.42183,-1.21273 -3.34543,-2.21635 -6.90002,-3.51273 -3.55459,-1.29638 -8.73994,-2.88543 -12.41996,-4.76727 -3.68002,-1.88184 -5.85452,-4.05634 -8.23818,-5.22725 -2.38366,-1.1709 -4.97633,-1.33818 -7.81997,-0.92 z"
         id="path18"
         inkscape:path-effect="#path-effect18"
         inkscape:original-d="m 137.11464,435.69617 c -3.09454,1.00365 -6.18908,2.00729 -9.28362,3.01091 0.25091,2.09095 0.50181,4.18182 0.75272,6.27274 3.5128,2.00729 7.02545,4.01452 10.53818,6.02181 4.93463,1.33821 9.86908,2.67634 14.80362,4.01452 1.33821,-0.0836 2.67636,-0.16727 4.01454,-0.2509 5.85466,0 11.70908,0 17.56362,0 -0.92002,-1.42184 -1.84,-2.84364 -2.76,-4.26545 -1.92367,-1.00365 -3.84727,-2.00727 -5.7709,-3.01091 -5.18555,-1.58911 -10.3709,-3.17817 -15.55635,-4.76726 -2.17459,-2.17459 -4.34909,-4.34909 -6.52363,-6.52362 -2.59278,-0.1673 -5.18545,-0.33457 -7.77818,-0.50184 z"
         transform="translate(14.818569,-65.916874)" /><path
         style="opacity:1;fill:#aaaaff;stroke:none;stroke-width:0.264999;stroke-linecap:square;paint-order:markers fill stroke"
         d="m 132.68193,411.81803 c -3.26181,1.29636 -5.9382,3.55454 -5.89635,5.85456 0.0419,2.30001 2.8018,4.64179 8.61461,8.78184 5.81281,4.14006 14.67808,10.07812 20.23992,13.63267 5.56183,3.55455 7.81996,4.72543 9.2836,4.97633 1.46365,0.2509 2.13273,-0.41817 1.92362,-2.46729 -0.2091,-2.04912 -1.29635,-5.47815 -1.75635,-8.27998 -0.45999,-2.80183 -0.29272,-4.97634 -0.75273,-7.10908 -0.46001,-2.13274 -1.54726,-4.22361 -3.30365,-6.98365 -1.75639,-2.76004 -4.18179,-6.18904 -7.19273,-8.02905 -3.01095,-1.84 -6.60723,-2.0909 -10.32908,-2.04908 -3.72186,0.0418 -7.56905,0.37637 -10.83086,1.67273 z"
         id="path19"
         inkscape:path-effect="#path-effect19"
         inkscape:original-d="m 132.09647,410.85622 c -2.67636,2.25816 -5.35273,4.51636 -8.02909,6.77452 2.76006,2.34185 5.52,4.68363 8.28,7.02546 8.86562,5.93828 17.73089,11.87635 26.59634,17.81452 2.25822,1.17094 4.51635,2.3418 6.77453,3.51272 0.66911,-0.66911 1.33818,-1.33819 2.00727,-2.00726 -1.08729,-3.42916 -2.17454,-6.85819 -3.26181,-10.28727 0.16727,-2.17458 0.33454,-4.34909 0.50182,-6.52362 -1.0873,-2.09095 -2.17455,-4.18182 -3.26182,-6.27274 -2.4255,-3.42916 -4.8509,-6.85816 -7.27636,-10.28726 -3.59643,-0.25091 -7.19271,-0.50181 -10.78908,-0.75272 -3.84734,0.33454 -7.69453,0.66908 -11.5418,1.00365 z"
         transform="translate(14.818569,-65.916874)" /><path
         style="opacity:1;fill:#aaaaff;stroke:none;stroke-width:0.264999;stroke-linecap:square;paint-order:markers fill stroke"
         d="m 161.62007,386.93623 c -2.34181,0.25091 -4.26544,1.17091 -5.7709,3.22002 -1.50547,2.04912 -2.59272,5.22724 -3.42909,8.57272 -0.83637,3.34549 -1.42182,6.85815 0.37641,10.20363 1.79822,3.34548 5.97995,6.5236 8.44723,9.15817 2.46728,2.63456 3.21999,4.72543 3.84727,5.51996 0.62728,0.79454 1.12908,0.29273 1.42181,-2.46731 0.29273,-2.76005 0.37636,-7.77813 1.08728,-11.70906 0.71093,-3.93093 2.04908,-6.77451 2.46726,-10.24546 0.41817,-3.47095 -0.0836,-7.56903 -1.71457,-9.82722 -1.63094,-2.25818 -4.39088,-2.67636 -6.7327,-2.42545 z"
         id="path20"
         inkscape:path-effect="#path-effect20"
         inkscape:original-d="m 161.20189,386.26714 c -1.92363,0.92001 -3.84726,1.83999 -5.7709,2.76 -1.08729,3.17823 -2.17454,6.35635 -3.26181,9.53452 -0.58547,3.5128 -1.17091,7.02546 -1.75637,10.53817 4.1819,3.17826 8.36363,6.35638 12.54545,9.53456 0.75274,2.09094 1.50545,4.18181 2.25818,6.27271 0.50182,-0.50184 1.00363,-1.00364 1.50545,-1.50545 0.0836,-5.01828 0.16727,-10.03636 0.25091,-15.05453 1.33821,-2.84369 2.67636,-5.68727 4.01454,-8.53091 -0.50183,-4.09826 -1.00364,-8.19634 -1.50545,-12.29452 -2.76006,-0.4182 -5.52,-0.83638 -8.28,-1.25455 z"
         transform="translate(14.818569,-65.916874)" /></g></g></svg>
