<?xml version="1.0" encoding="UTF-8" standalone="no"?>
<svg
   data-name="Layer 1"
   id="Layer_1"
   viewBox="0 0 512 512"
   version="1.1"
   sodipodi:docname="telegram.svg"
   inkscape:version="1.3.2 (091e20ef0f, 2023-11-25, custom)"
   xmlns:inkscape="http://www.inkscape.org/namespaces/inkscape"
   xmlns:sodipodi="http://sodipodi.sourceforge.net/DTD/sodipodi-0.dtd"
   xmlns="http://www.w3.org/2000/svg"
   xmlns:svg="http://www.w3.org/2000/svg">
  <defs
     id="defs1" />
  <sodipodi:namedview
     id="namedview1"
     pagecolor="#ffffff"
     bordercolor="#cccccc"
     borderopacity="1"
     inkscape:showpageshadow="0"
     inkscape:pageopacity="1"
     inkscape:pagecheckerboard="0"
     inkscape:deskcolor="#d1d1d1"
     inkscape:zoom="1.3789062"
     inkscape:cx="255.63739"
     inkscape:cy="256"
     inkscape:window-width="1916"
     inkscape:window-height="1047"
     inkscape:window-x="0"
     inkscape:window-y="0"
     inkscape:window-maximized="1"
     inkscape:current-layer="Layer_1" />
  <title
     id="title1" />
  <path
     d="M 256,0 C 114.61514,0 0,114.61514 0,256 0,397.38486 114.61514,512 256,512 397.38486,512 512,397.38486 512,256 512,114.61514 397.38486,0 256,0 Z m 120.20312,146.96484 a 12.441,12.441 0 0 1 12.85547,14.97071 L 343.5918,379 a 16.007,16.007 0 0 1 -25.17774,9.59375 l -66.13672,-48.86133 -40.0664,37.79883 a 5.429,5.429 0 0 1 -7.74024,-0.29297 l -0.86133,-0.94531 6.96094,-67.375 125.48438,-114.65235 a 3.358,3.358 0 0 0 -4.06055,-5.3164 L 171.51562,290.51953 102.40039,267.30664 a 9.393,9.393 0 0 1 -0.32031,-17.69336 L 372.5,147.74414 a 12.441,12.441 0 0 1 3.70312,-0.7793 z"
     style=""
     id="path3" />
  <path
     d="M 376.20312,146.96484 A 12.441,12.441 0 0 0 372.5,147.74414 L 102.08008,249.61328 a 9.393,9.393 0 0 0 0.32031,17.69336 l 69.11523,23.21289 160.47852,-101.57031 a 3.358,3.358 0 0 1 4.06055,5.3164 l -125.48438,114.65235 -6.96094,67.375 0.86133,0.94531 a 5.429,5.429 0 0 0 7.74024,0.29297 l 40.0664,-37.79883 66.13672,48.86133 A 16.007,16.007 0 0 0 343.5918,379 l 45.46679,-217.06445 a 12.441,12.441 0 0 0 -12.85547,-14.97071 z"
     style="fill:#ffffff"
     id="path2" />
</svg>
