<svg xmlns="http://www.w3.org/2000/svg" height="24" viewBox="0 -960 960 960" width="24"><path d="M120-2e2q-33 0-56.5-23.5T40-280v-4e2q0-33 23.5-56.5T120-760h4e2q33 0 56.5 23.5T6e2-680v4e2q0 33-23.5 56.5T520-2e2H120zm6e2-320q-17 0-28.5-11.5T680-560v-160q0-17 11.5-28.5T720-760h160q17 0 28.5 11.5T920-720v160q0 17-11.5 28.5T880-520H720zm40-80h80v-80h-80v80zM120-280h4e2v-4e2H120v4e2zm40-80h320L375-5e2l-75 1e2-55-73-85 113zm560 160q-17 0-28.5-11.5T680-240v-160q0-17 11.5-28.5T720-440h160q17 0 28.5 11.5T920-4e2v160q0 17-11.5 28.5T880-2e2H720zm40-80h80v-80h-80v80zm-640 0v-4e2 4e2zm640-320v-80 80zm0 320v-80 80z"/></svg>