<svg xmlns="http://www.w3.org/2000/svg" xmlns:xlink="http://www.w3.org/1999/xlink" width="256" height="256" viewBox="0 0 256 256"><defs/><g style="stroke:none;stroke-width:0;stroke-dasharray:none;stroke-linecap:butt;stroke-linejoin:miter;stroke-miterlimit:10;fill:none;fill-rule:nonzero;opacity:1" transform="translate(1.4065934065934016 1.4065934065934016) scale(2.81 2.81)"><path d="M39.027 49.508c0-2.483-2.025-4.508-4.508-4.508-2.483.0-4.508 2.025-4.508 4.508.0 2.483 2.014 4.485 4.508 4.508C37.002 54.016 39.027 51.991 39.027 49.508z" style="stroke:none;stroke-width:1;stroke-dasharray:none;stroke-linecap:butt;stroke-linejoin:miter;stroke-miterlimit:10;fill:#000;fill-rule:nonzero;opacity:1" transform="matrix(1 0 0 1 0 0)" stroke-linecap="round"/><path d="M54.395 60.258c-2.74 1.957-6.051 2.919-9.407 2.74-3.355.157-6.655-.85-9.362-2.83-.459-.369-1.097-.369-1.544.0-.515.425-.593 1.196-.168 1.711 3.2 2.405 7.114 3.636 11.119 3.468 4.005.167 7.92-1.063 11.119-3.468v.179c.492-.481.503-1.286.022-1.778C55.692 59.788 54.887 59.777 54.395 60.258z" style="stroke:none;stroke-width:1;stroke-dasharray:none;stroke-linecap:butt;stroke-linejoin:miter;stroke-miterlimit:10;fill:#000;fill-rule:nonzero;opacity:1" transform="matrix(1 0 0 1 0 0)" stroke-linecap="round"/><path d="M55.347 45.156c-2.483.0-4.508 2.025-4.508 4.508.0 2.483 2.025 4.508 4.508 4.508l-.034.168c.079.0.146.0.224.0 2.483-.101 4.418-2.192 4.318-4.676.0-2.483-2.025-4.508-4.508-4.508z" style="stroke:none;stroke-width:1;stroke-dasharray:none;stroke-linecap:butt;stroke-linejoin:miter;stroke-miterlimit:10;fill:#000;fill-rule:nonzero;opacity:1" transform="matrix(1 0 0 1 0 0)" stroke-linecap="round"/><path d="M45 0C20.147.0.0 20.147.0 45s20.147 45 45 45 45-20.147 45-45C90 20.147 69.853.0 45 0zM71.375 50.985c.045.66.045 1.32.0 1.98.0 10.089-11.745 18.277-26.23 18.277s-26.23-8.199-26.23-18.277c-.045-.66-.045-1.32.0-1.98-.66-.291-1.252-.705-1.767-1.186-2.651-2.483-2.774-6.644-.291-9.284 2.483-2.651 6.644-2.774 9.284-.291 5.19-3.512 11.286-5.436 17.55-5.537l3.322-15.615c0-.011.0-.011.0-.022.168-.761.918-1.231 1.667-1.063l11.029 2.204c.704-1.231 1.979-2.059 3.4-2.204 2.472-.269 4.686 1.521 4.955 3.993s-1.521 4.687-3.993 4.955c-2.472.269-4.687-1.521-4.955-3.993l-9.631-2.025-2.919 14.038c6.186.134 12.204 2.047 17.327 5.537 1.163-1.107 2.695-1.767 4.306-1.823 3.635-.123 6.678 2.707 6.812 6.331C75.056 47.528 73.635 49.855 71.375 50.985z" style="stroke:none;stroke-width:1;stroke-dasharray:none;stroke-linecap:butt;stroke-linejoin:miter;stroke-miterlimit:10;fill:#000;fill-rule:nonzero;opacity:1" transform="matrix(1 0 0 1 0 0)" stroke-linecap="round"/></g></svg>