<?xml version="1.0" encoding="UTF-8" standalone="no"?>
<svg
   data-name="Layer 1"
   id="Layer_1"
   viewBox="0 0 512 512"
   version="1.1"
   sodipodi:docname="vk.svg"
   inkscape:version="1.3.2 (091e20ef0f, 2023-11-25, custom)"
   xmlns:inkscape="http://www.inkscape.org/namespaces/inkscape"
   xmlns:sodipodi="http://sodipodi.sourceforge.net/DTD/sodipodi-0.dtd"
   xmlns="http://www.w3.org/2000/svg"
   xmlns:svg="http://www.w3.org/2000/svg">
  <defs
     id="defs1" />
  <sodipodi:namedview
     id="namedview1"
     pagecolor="#ffffff"
     bordercolor="#cccccc"
     borderopacity="1"
     inkscape:showpageshadow="0"
     inkscape:pageopacity="1"
     inkscape:pagecheckerboard="0"
     inkscape:deskcolor="#d1d1d1"
     inkscape:zoom="1.3789062"
     inkscape:cx="255.63739"
     inkscape:cy="256"
     inkscape:window-width="1916"
     inkscape:window-height="1047"
     inkscape:window-x="0"
     inkscape:window-y="0"
     inkscape:window-maximized="1"
     inkscape:current-layer="Layer_1" />
  <title
     id="title1" />
  <path
     d="M 256,0 C 114.61514,0 0,114.61514 0,256 0,397.38486 114.61514,512 256,512 397.38486,512 512,397.38486 512,256 512,114.61514 397.38486,0 256,0 Z m 97.06055,169.09961 h 35.83984 a 8.788,8.788 0 0 1 7.87305,12.70117 c -9.04399,18.13998 -26.66035,51.41743 -43.23633,70.94141 a 13.877,13.877 0 0 0 1.62305,19.53906 c 10.80499,9.23199 27.67339,26.3015 45.85937,54.73047 a 10.305,10.305 0 0 1 -8.65625,15.88867 h -32.48437 a 23.41,23.41 0 0 1 -18.31836,-8.80078 c -9.74199,-12.23099 -28.93496,-33.91743 -49.08594,-43.23242 a 7.666,7.666 0 0 0 -10.91602,6.92773 v 32.12891 a 12.974,12.974 0 0 1 -12.97265,12.97656 h -15.02149 c -19.53398,0 -61.60017,-11.8908 -95.11914,-60.71875 -28.55997,-41.59996 -41.29085,-73.84049 -48.71484,-99.98047 a 10.3,10.3 0 0 1 9.92187,-13.09375 h 32.86133 a 15.226,15.226 0 0 1 14.59961,10.86133 c 6.111,20.43898 21.94,64.53035 49.91797,86.48633 a 5.788,5.788 0 0 0 9.37109,-4.54102 v -51.46484 c 0,-10.17099 -4.40907,-20.34779 -11.28906,-28.30078 a 7.878,7.878 0 0 1 5.94727,-13.04492 h 50.66601 a 9.838,9.838 0 0 1 9.83789,9.83593 v 69.32617 a 5.468,5.468 0 0 0 8.63477,4.45508 c 9.29999,-6.61999 17.2658,-16.39959 24.5918,-27.39258 9.21999,-13.82798 20.47124,-36.68583 26.11523,-48.54882 a 13.457,13.457 0 0 1 12.1543,-7.67969 z"
     style="opacity:1"
     id="path3" />
  <path
     d="m 353.06055,169.09961 a 13.457,13.457 0 0 0 -12.1543,7.67969 c -5.64399,11.86299 -16.89524,34.72084 -26.11523,48.54882 -7.326,10.99299 -15.29181,20.77259 -24.5918,27.39258 a 5.468,5.468 0 0 1 -8.63477,-4.45508 v -69.32617 a 9.838,9.838 0 0 0 -9.83789,-9.83593 h -50.66601 a 7.878,7.878 0 0 0 -5.94727,13.04492 c 6.87999,7.95299 11.28906,18.12979 11.28906,28.30078 v 51.46484 a 5.788,5.788 0 0 1 -9.37109,4.54102 C 189.05328,244.4991 173.22428,200.40773 167.11328,179.96875 a 15.226,15.226 0 0 0 -14.59961,-10.86133 h -32.86133 a 10.3,10.3 0 0 0 -9.92187,13.09375 c 7.42399,26.13998 20.15487,58.38051 48.71484,99.98047 33.51897,48.82795 75.58516,60.71875 95.11914,60.71875 h 15.02149 a 12.974,12.974 0 0 0 12.97265,-12.97656 v -32.12891 a 7.666,7.666 0 0 1 10.91602,-6.92773 c 20.15098,9.31499 39.34395,31.00143 49.08594,43.23242 a 23.41,23.41 0 0 0 18.31836,8.80078 h 32.48437 a 10.305,10.305 0 0 0 8.65625,-15.88867 c -18.18598,-28.42897 -35.05438,-45.49848 -45.85937,-54.73047 a 13.877,13.877 0 0 1 -1.62305,-19.53906 c 16.57598,-19.52398 34.19234,-52.80143 43.23633,-70.94141 a 8.788,8.788 0 0 0 -7.87305,-12.70117 z"
     style="opacity:1;fill:#ffffff"
     id="path2" />
</svg>
