<svg xmlns="http://www.w3.org/2000/svg" xmlns:xlink="http://www.w3.org/1999/xlink" xml:space="preserve" width="1156.274" height="779.972"><g style="opacity:.3" transform="translate(-1267.985 -921.16)"><circle cx="1844.907" cy="1294.542" r="373.382" style="opacity:.8;fill:#ffc2db"/><circle cx="1554.043" cy="1448.547" r="218.77" style="opacity:.6;fill:#ffc2db" transform="rotate(-45.001 1554.033 1448.572)"/><circle cx="2138.2" cy="1448.547" r="218.77" style="opacity:.6;fill:#ffc2db" transform="rotate(-45.001 2138.194 1448.579)"/><circle cx="2207.083" cy="1225.811" r="149.887" style="opacity:.5;fill:#ffc2db" transform="rotate(-45.001 2207.08 1225.842)"/><circle cx="1485.16" cy="1225.811" r="149.887" style="opacity:.5;fill:#ffc2db" transform="rotate(-45.001 1485.153 1225.834)"/></g><g style="opacity:.5" transform="translate(-1267.985 -921.16)"><ellipse cx="1846.122" cy="1669.092" rx="406.044" ry="32.04" style="opacity:.5;fill:#ffaee0"/></g><g style="opacity:.8"><g style="opacity:.8"><path d="M2220.996 1560.307c2.363-8.652 3.933-17.505 8.488-25.182 10.779-18.165 29.006-29.994 49.017-35.834 54.342-15.859 59.413-56.434 66.659-36.147s-7.97 42.198 5.072 58.051 2.67 45.56-18.228 52.081-95.721 56.14-95.721 95.816h-56.322c-2.881 0-2.884-21.697-2.766-23.319 1.046-14.394 6.66-27.054 15.258-38.523 8.14-10.859 17.017-21.371 23.457-33.381 2.316-4.319 3.816-8.912 5.086-13.562" style="fill:#ef8ec8" transform="translate(-1267.985 -921.16)"/><g style="opacity:.8"><path d="M2261.689 1586.055a63.04 63.04 0 0 1 5.212-28.37c1.955-4.479 4.44-8.736 7.344-12.678l.541-.743c.178-.25.361-.495.558-.729l1.158-1.425c.754-.966 1.588-1.863 2.401-2.778.799-.93 1.686-1.773 2.541-2.648.849-.878 1.755-1.712 2.659-2.535 7.306-6.552 15.626-11.432 22.831-17.506l1.373-1.156 1.394-1.155 2.791-2.27c1.854-1.506 3.692-3.014 5.45-4.602 1.769-1.577 3.44-3.254 4.956-5.072.391-.446.729-.93 1.099-1.395.361-.471.67-.975 1.013-1.463.327-.496.612-1.017.923-1.529.276-.528.532-1.068.807-1.604-.186.569-.362 1.147-.57 1.714-.239.552-.456 1.12-.718 1.667-.282.534-.542 1.086-.852 1.608-.318.515-.61 1.054-.954 1.554-1.334 2.037-2.908 3.904-4.548 5.692-1.654 1.777-3.4 3.454-5.159 5.093l-2.638 2.441-2.617 2.45c-3.56 3.336-7.424 6.268-11.238 9.16-1.908 1.447-3.817 2.874-5.675 4.345-1.868 1.458-3.691 2.953-5.43 4.525-3.467 3.142-6.697 6.575-9.564 10.276a72 72 0 0 0-7.496 11.877 71.8 71.8 0 0 0-5.047 13.194c-1.274 4.566-2.061 9.282-2.545 14.062" style="fill:#fff" transform="translate(-1267.985 -921.16)"/></g></g><path d="M2420.973 1595.805c-7.816 24.501-29.11 38.133-53.352 43.504-68.94 15.265-101.216 24.904-111.936 28.354a29.8 29.8 0 0 1-9.114 1.43h-55.742l20.288-62.476s27.05-61.755 90.811-49.723c63.754 12.036 87.906-34.735 103.367-48.062 3.274-2.824 15.742-14.803 17.691-5.26.419 2.039-.074 4.139-.493 6.179-5.853 28.693 7.625 57.397-1.52 86.054" style="fill:#ef8ec8" transform="translate(-1267.985 -921.16)"/><path d="M2397.328 1557.336c-.272 1.023-.533 2.053-.835 3.073l-.493 1.52c-.171.503-.315 1.016-.52 1.51l-.58 1.493-.295.748-.332.728c-.443.973-.869 1.959-1.385 2.902-1.969 3.817-4.478 7.376-7.376 10.6-2.915 3.214-6.266 6.028-9.848 8.48s-7.403 4.539-11.342 6.33c-.99.429-1.976.872-2.972 1.291l-3.012 1.191c-2.026.735-4.062 1.453-6.118 2.08-.513.161-1.027.332-1.543.483l-1.55.446c-1.033.292-2.066.597-3.11.849l-3.123.785-3.136.708c-8.383 1.821-16.859 3.022-25.343 3.888-2.123.188-4.243.409-6.367.56l-3.187.248c-1.06.077-2.123.141-3.187.205-1.057.067-2.137.121-3.173.195l-3.103.235-1.553.114c-.517.037-1.027.117-1.543.174l-3.086.362-.771.091-.765.127-3.059.503-.765.124c-.255.043-.507.107-.758.158l-3.029.647-.758.161-.748.195-1.492.396c-2.013.48-3.948 1.174-5.917 1.784l-2.888 1.087-.724.272-.705.309-1.412.621c-.47.211-.943.409-1.409.627l-1.375.691-1.379.694-.345.171-.335.194-.667.383c-1.798.996-3.525 2.113-5.216 3.284a56 56 0 0 0-9.261 8.168c-.342.386-.708.758-1.037 1.154l-.99 1.198-.496.604-.466.621-.933 1.248c-1.184 1.707-2.314 3.462-3.324 5.293a51 51 0 0 0-2.69 5.676c-.788 1.949-1.459 3.955-1.919 6.025.399-4.233 1.684-8.369 3.365-12.311.832-1.983 1.865-3.874 2.945-5.743l.859-1.369.433-.688.459-.664.929-1.332c.312-.443.657-.859.983-1.291a55 55 0 0 1 9.164-9.221c3.408-2.714 7.128-5.025 11.019-6.974l1.466-.721.735-.356.748-.319 3.006-1.278c2.043-.728 4.079-1.513 6.169-2.093l1.56-.466.782-.232.788-.191 3.163-.765c.262-.06.527-.134.792-.185l.798-.151 1.593-.302 1.597-.298.798-.151.802-.114 3.21-.446c.537-.067 1.07-.158 1.61-.205l1.61-.144 3.224-.285c1.073-.094 2.107-.161 3.16-.242l3.147-.225 3.143-.262c2.096-.158 4.186-.386 6.276-.584a382 382 0 0 0 6.259-.678c2.08-.265 4.166-.503 6.236-.818 4.156-.55 8.279-1.268 12.381-2.056l3.069-.617 3.053-.691c1.02-.218 2.019-.5 3.032-.745l1.516-.379c.503-.134 1.003-.282 1.503-.419 4.009-1.114 7.967-2.388 11.804-3.945 7.668-3.086 14.961-7.212 20.982-12.901 3.019-2.831 5.662-6.065 7.933-9.573 1.154-1.744 2.157-3.589 3.103-5.468.255-.463.456-.949.681-1.426l.661-1.439c.218-.483.399-.979.601-1.466z" style="fill:#ef8ec8" transform="translate(-1267.985 -921.16)"/><path d="M2397.328 1557.336c-.272 1.023-.533 2.053-.835 3.073l-.493 1.52c-.171.503-.315 1.016-.52 1.51l-.58 1.493-.295.748-.332.728c-.443.973-.869 1.959-1.385 2.902-1.969 3.817-4.478 7.376-7.376 10.6-2.915 3.214-6.266 6.028-9.848 8.48s-7.403 4.539-11.342 6.33c-.99.429-1.976.872-2.972 1.291l-3.012 1.191c-2.026.735-4.062 1.453-6.118 2.08-.513.161-1.027.332-1.543.483l-1.55.446c-1.033.292-2.066.597-3.11.849l-3.123.785-3.136.708c-8.383 1.821-16.859 3.022-25.343 3.888-2.123.188-4.243.409-6.367.56l-3.187.248c-1.06.077-2.123.141-3.187.205-1.057.067-2.137.121-3.173.195l-3.103.235-1.553.114c-.517.037-1.027.117-1.543.174l-3.086.362-.771.091-.765.127-3.059.503-.765.124c-.255.043-.507.107-.758.158l-3.029.647-.758.161-.748.195-1.492.396c-2.013.48-3.948 1.174-5.917 1.784l-2.888 1.087-.724.272-.705.309-1.412.621c-.47.211-.943.409-1.409.627l-1.375.691-1.379.694-.345.171-.335.194-.667.383c-1.798.996-3.525 2.113-5.216 3.284a56 56 0 0 0-9.261 8.168c-.342.386-.708.758-1.037 1.154l-.99 1.198-.496.604-.466.621-.933 1.248c-1.184 1.707-2.314 3.462-3.324 5.293a51 51 0 0 0-2.69 5.676c-.788 1.949-1.459 3.955-1.919 6.025.399-4.233 1.684-8.369 3.365-12.311.832-1.983 1.865-3.874 2.945-5.743l.859-1.369.433-.688.459-.664.929-1.332c.312-.443.657-.859.983-1.291a55 55 0 0 1 9.164-9.221c3.408-2.714 7.128-5.025 11.019-6.974l1.466-.721.735-.356.748-.319 3.006-1.278c2.043-.728 4.079-1.513 6.169-2.093l1.56-.466.782-.232.788-.191 3.163-.765c.262-.06.527-.134.792-.185l.798-.151 1.593-.302 1.597-.298.798-.151.802-.114 3.21-.446c.537-.067 1.07-.158 1.61-.205l1.61-.144 3.224-.285c1.073-.094 2.107-.161 3.16-.242l3.147-.225 3.143-.262c2.096-.158 4.186-.386 6.276-.584a382 382 0 0 0 6.259-.678c2.08-.265 4.166-.503 6.236-.818 4.156-.55 8.279-1.268 12.381-2.056l3.069-.617 3.053-.691c1.02-.218 2.019-.5 3.032-.745l1.516-.379c.503-.134 1.003-.282 1.503-.419 4.009-1.114 7.967-2.388 11.804-3.945 7.668-3.086 14.961-7.212 20.982-12.901 3.019-2.831 5.662-6.065 7.933-9.573 1.154-1.744 2.157-3.589 3.103-5.468.255-.463.456-.949.681-1.426l.661-1.439c.218-.483.399-.979.601-1.466z" style="opacity:.8;fill:#fff" transform="translate(-1267.985 -921.16)"/><g style="opacity:.8"><path d="M1471.247 1560.307c-2.363-8.652-3.933-17.505-8.488-25.182-10.779-18.165-29.006-29.994-49.017-35.834-54.342-15.859-59.413-56.434-66.659-36.147s7.97 42.198-5.072 58.051-2.67 45.56 18.228 52.081 95.721 56.14 95.721 95.816h56.321c2.881 0 2.884-21.697 2.766-23.319-1.046-14.394-6.66-27.054-15.258-38.523-8.14-10.859-17.017-21.371-23.457-33.381-2.315-4.319-3.814-8.912-5.085-13.562" style="fill:#ef8ec8" transform="translate(-1267.985 -921.16)"/><g style="opacity:.8"><path d="M1430.554 1586.055a63.06 63.06 0 0 0-5.212-28.37c-1.955-4.479-4.44-8.736-7.345-12.678l-.541-.743c-.178-.25-.361-.495-.558-.729l-1.158-1.425c-.754-.966-1.588-1.863-2.401-2.778-.799-.93-1.685-1.773-2.54-2.648-.849-.878-1.755-1.712-2.659-2.535-7.307-6.552-15.627-11.432-22.831-17.506l-1.373-1.156-1.394-1.155-2.791-2.27c-1.854-1.506-3.692-3.014-5.45-4.602-1.769-1.577-3.44-3.254-4.956-5.072-.391-.446-.729-.93-1.099-1.395-.361-.471-.67-.975-1.012-1.463-.327-.496-.612-1.017-.923-1.529-.276-.528-.532-1.068-.808-1.604.186.569.362 1.147.57 1.714.239.552.457 1.12.718 1.667.283.534.543 1.086.852 1.608.318.515.61 1.054.954 1.554 1.334 2.037 2.909 3.904 4.548 5.692 1.654 1.777 3.4 3.454 5.16 5.093l2.638 2.441 2.617 2.45c3.56 3.336 7.424 6.268 11.238 9.16 1.908 1.447 3.817 2.874 5.675 4.345 1.868 1.458 3.691 2.953 5.43 4.525 3.467 3.142 6.697 6.575 9.565 10.276a72 72 0 0 1 7.496 11.877 71.8 71.8 0 0 1 5.046 13.194c1.274 4.566 2.06 9.282 2.544 14.062" style="fill:#fff" transform="translate(-1267.985 -921.16)"/></g></g><path d="M1271.27 1595.805c7.816 24.501 29.11 38.133 53.352 43.504 68.94 15.265 101.216 24.904 111.936 28.354a29.7 29.7 0 0 0 9.114 1.43h55.742l-20.288-62.476s-27.05-61.755-90.811-49.723c-63.754 12.036-87.906-34.735-103.367-48.062-3.274-2.824-15.742-14.803-17.691-5.26-.419 2.039.074 4.139.493 6.179 5.854 28.693-7.625 57.397 1.52 86.054" style="fill:#ef8ec8" transform="translate(-1267.985 -921.16)"/><path d="M1294.915 1557.336c.272 1.023.533 2.053.835 3.073l.493 1.52c.171.503.315 1.016.52 1.51l.58 1.493.295.748.332.728c.443.973.869 1.959 1.385 2.902 1.969 3.817 4.478 7.376 7.376 10.6 2.915 3.214 6.266 6.028 9.849 8.48s7.403 4.539 11.341 6.33c.99.429 1.976.872 2.972 1.291l3.012 1.191c2.026.735 4.062 1.453 6.118 2.08.513.161 1.026.332 1.543.483l1.55.446c1.033.292 2.066.597 3.109.849l3.123.785 3.136.708c8.383 1.821 16.859 3.022 25.343 3.888 2.123.188 4.243.409 6.367.56l3.187.248c1.06.077 2.123.141 3.187.205 1.057.067 2.137.121 3.173.195l3.103.235 1.553.114c.516.037 1.026.117 1.543.174l3.086.362.771.091.765.127 3.059.503.765.124c.255.043.506.107.758.158l3.029.647.758.161.748.195 1.493.396c2.013.48 3.948 1.174 5.917 1.784l2.888 1.087.724.272.704.309 1.412.621c.47.211.943.409 1.409.627l1.375.691 1.379.694.345.171.335.194.668.383c1.798.996 3.526 2.113 5.216 3.284a56 56 0 0 1 9.262 8.168c.342.386.708.758 1.036 1.154l.99 1.198.497.604.466.621.933 1.248c1.184 1.707 2.315 3.462 3.324 5.293a51 51 0 0 1 2.69 5.676c.788 1.949 1.459 3.955 1.919 6.025-.399-4.233-1.684-8.369-3.365-12.311-.832-1.983-1.865-3.874-2.945-5.743l-.859-1.369-.433-.688-.46-.664-.929-1.332c-.312-.443-.657-.859-.983-1.291a55 55 0 0 0-9.164-9.221c-3.408-2.714-7.128-5.025-11.019-6.974l-1.466-.721-.735-.356-.748-.319-3.006-1.278c-2.043-.728-4.079-1.513-6.169-2.093l-1.56-.466-.782-.232-.788-.191-3.163-.765c-.262-.06-.527-.134-.792-.185l-.798-.151-1.593-.302-1.597-.298-.798-.151-.802-.114-3.21-.446c-.537-.067-1.07-.158-1.61-.205l-1.61-.144-3.224-.285c-1.073-.094-2.107-.161-3.16-.242l-3.147-.225-3.143-.262c-2.097-.158-4.186-.386-6.276-.584a382 382 0 0 1-6.259-.678c-2.08-.265-4.166-.503-6.236-.818-4.156-.55-8.279-1.268-12.381-2.056l-3.069-.617-3.052-.691c-1.02-.218-2.019-.5-3.032-.745l-1.516-.379c-.503-.134-1.003-.282-1.503-.419-4.009-1.114-7.967-2.388-11.804-3.945-7.668-3.086-14.961-7.212-20.982-12.901-3.019-2.831-5.662-6.065-7.933-9.573-1.154-1.744-2.157-3.589-3.103-5.468-.255-.463-.456-.949-.681-1.426l-.661-1.439c-.218-.483-.399-.979-.6-1.466z" style="fill:#ef8ec8" transform="translate(-1267.985 -921.16)"/><path d="M1294.915 1557.336c.272 1.023.533 2.053.835 3.073l.493 1.52c.171.503.315 1.016.52 1.51l.58 1.493.295.748.332.728c.443.973.869 1.959 1.385 2.902 1.969 3.817 4.478 7.376 7.376 10.6 2.915 3.214 6.266 6.028 9.849 8.48s7.403 4.539 11.341 6.33c.99.429 1.976.872 2.972 1.291l3.012 1.191c2.026.735 4.062 1.453 6.118 2.08.513.161 1.026.332 1.543.483l1.55.446c1.033.292 2.066.597 3.109.849l3.123.785 3.136.708c8.383 1.821 16.859 3.022 25.343 3.888 2.123.188 4.243.409 6.367.56l3.187.248c1.06.077 2.123.141 3.187.205 1.057.067 2.137.121 3.173.195l3.103.235 1.553.114c.516.037 1.026.117 1.543.174l3.086.362.771.091.765.127 3.059.503.765.124c.255.043.506.107.758.158l3.029.647.758.161.748.195 1.493.396c2.013.48 3.948 1.174 5.917 1.784l2.888 1.087.724.272.704.309 1.412.621c.47.211.943.409 1.409.627l1.375.691 1.379.694.345.171.335.194.668.383c1.798.996 3.526 2.113 5.216 3.284a56 56 0 0 1 9.262 8.168c.342.386.708.758 1.036 1.154l.99 1.198.497.604.466.621.933 1.248c1.184 1.707 2.315 3.462 3.324 5.293a51 51 0 0 1 2.69 5.676c.788 1.949 1.459 3.955 1.919 6.025-.399-4.233-1.684-8.369-3.365-12.311-.832-1.983-1.865-3.874-2.945-5.743l-.859-1.369-.433-.688-.46-.664-.929-1.332c-.312-.443-.657-.859-.983-1.291a55 55 0 0 0-9.164-9.221c-3.408-2.714-7.128-5.025-11.019-6.974l-1.466-.721-.735-.356-.748-.319-3.006-1.278c-2.043-.728-4.079-1.513-6.169-2.093l-1.56-.466-.782-.232-.788-.191-3.163-.765c-.262-.06-.527-.134-.792-.185l-.798-.151-1.593-.302-1.597-.298-.798-.151-.802-.114-3.21-.446c-.537-.067-1.07-.158-1.61-.205l-1.61-.144-3.224-.285c-1.073-.094-2.107-.161-3.16-.242l-3.147-.225-3.143-.262c-2.097-.158-4.186-.386-6.276-.584a382 382 0 0 1-6.259-.678c-2.08-.265-4.166-.503-6.236-.818-4.156-.55-8.279-1.268-12.381-2.056l-3.069-.617-3.052-.691c-1.02-.218-2.019-.5-3.032-.745l-1.516-.379c-.503-.134-1.003-.282-1.503-.419-4.009-1.114-7.967-2.388-11.804-3.945-7.668-3.086-14.961-7.212-20.982-12.901-3.019-2.831-5.662-6.065-7.933-9.573-1.154-1.744-2.157-3.589-3.103-5.468-.255-.463-.456-.949-.681-1.426l-.661-1.439c-.218-.483-.399-.979-.6-1.466z" style="opacity:.8;fill:#fff" transform="translate(-1267.985 -921.16)"/></g><g style="opacity:.3"><g style="opacity:.8"><path d="M1795.392 1173.28a1.67 1.67 0 0 1-1.168-.483c-1.079-1.079-.209-2.183.713-3.353.576-.732 1.456-1.809 2.615-3.201 2.127-2.556 5.215-6.203 9.441-11.15 7.847-9.186 18.569-21.623 28.938-33.65a18298 18298 0 0 0 20.653-23.982 12640 12640 0 0 0-21.528 21.964c-49.391 50.469-49.834 50.472-51.151 50.479-.434 0-.879-.178-1.186-.486-1.081-1.081-.179-2.238.547-3.167.491-.63 1.215-1.513 2.214-2.701 1.812-2.156 4.474-5.25 8.137-9.459 6.847-7.865 16.255-18.547 26.216-29.855 12.047-13.677 26.438-30.013 37.575-42.863-8.824 8.966-19.396 19.822-29.368 30.063-13.197 13.552-26.843 27.565-37.243 38.056-17.877 18.034-18.536 18.039-19.532 18.045h-.01c-.432 0-.891-.187-1.197-.492-1.289-1.289-.355-2.411 3.575-7.135 2.362-2.838 5.825-6.861 10.588-12.3 8.851-10.107 20.568-23.251 32.974-37.168 10.774-12.086 22.818-25.597 32.547-36.669-10.954 11.051-24.524 24.899-36.634 37.257-49.299 50.309-49.601 50.311-50.873 50.317h-.01c-.432 0-.865-.177-1.17-.483-1.281-1.28-.496-2.214 3.859-7.392 2.516-2.991 6.194-7.234 11.244-12.972 9.377-10.655 22.262-25.065 34.722-39.002 9.457-10.577 19.42-21.72 28.045-31.444-7.572 7.707-15.971 16.302-23.985 24.503-56.056 57.36-59.235 60.1-60.829 60.109-.415-.01-.891-.182-1.198-.49-1.276-1.276-.475-2.226 3.97-7.499 2.576-3.056 6.337-7.391 11.499-13.254 9.58-10.882 22.697-25.557 35.381-39.749 9.716-10.871 19.968-22.341 28.742-32.238-11.214 11.305-24.597 24.904-36.632 37.134-48.155 48.932-48.306 48.933-49.486 48.938-.428.035-.861-.173-1.168-.48-1.182-1.182-.164-2.521 1.245-4.375.997-1.312 2.535-3.212 4.571-5.646 3.691-4.412 9-10.568 16.232-18.822 13.244-15.114 30.306-34.254 45.359-51.141l.086-.096-4.204 4.295c-14.715 15.032-31.393 32.071-44.254 45.003-22.379 22.505-23.108 22.509-24.118 22.514h-.01c-.432 0-.888-.185-1.193-.491-1.102-1.102-.155-2.317.681-3.388.592-.759 1.465-1.821 2.671-3.246 2.185-2.582 5.386-6.269 9.786-11.271 8.2-9.323 19.239-21.707 30.927-34.819 11.81-13.249 25.032-28.083 35.625-40.121-9.155 9.3-19.995 20.423-30.235 30.933-49.902 51.211-52.569 53.492-54.116 53.502-.445 0-.891-.182-1.199-.489-1.265-1.264-.42-2.279 3.642-7.153 2.381-2.856 5.858-6.907 10.633-12.382 8.861-10.162 21.002-23.866 32.743-37.119 8.461-9.551 17.364-19.6 25.155-28.458-8.447 8.536-18.061 18.299-27.2 27.579-47.965 48.708-48.147 48.709-49.333 48.714h-.01c-.431 0-.857-.175-1.162-.48-1.136-1.137-.573-1.807 2.136-5.023a746 746 0 0 1 6.371-7.418c5.392-6.218 13.014-14.92 21.082-24.134 12.949-14.786 29.734-33.952 41.857-48.096-11.422 11.466-26.294 26.623-38.677 39.243-31.498 32.101-31.498 32.101-32.561 32.106h-.01a1.64 1.64 0 0 1-1.156-.479c-1.078-1.077-.236-2.181.739-3.458.611-.8 1.544-1.973 2.774-3.486 2.245-2.76 5.487-6.667 9.911-11.944 8.169-9.742 18.873-22.368 29.225-34.579 4.12-4.859 8.276-9.762 12.176-14.371-5.41 5.525-11.165 11.435-16.496 16.909-36.863 37.854-37.203 37.856-38.464 37.864-.463-.023-.881-.178-1.189-.485-1.142-1.143-.551-1.914 2.291-5.619 1.542-2.011 3.789-4.86 6.87-8.71 5.706-7.132 13.435-16.651 20.91-25.858 3.876-4.774 7.91-9.742 11.674-14.393l-4.103 4.207c-32.366 33.198-32.733 33.2-33.947 33.208-.432-.029-.881-.178-1.188-.486-1.012-1.011-.402-1.986.935-4.122a265 265 0 0 1 3.404-5.241c2.827-4.271 6.653-9.937 10.353-15.417 1.701-2.52 3.466-5.133 5.137-7.617-5.066 5.136-5.184 5.137-5.876 5.14h-.01c-.431 0-.848-.172-1.153-.478a1.626 1.626 0 0 1 .273-2.521c.781-.691 5.064-5.049 8.217-8.259 7.589-7.724 7.589-7.724 8.381-7.728.45 0 .853.17 1.16.477.998.998.39 1.964-.82 3.888a254 254 0 0 1-3.07 4.714c-2.561 3.862-5.953 8.886-9.544 14.205-2.574 3.813-5.405 8.006-7.893 11.724 6.666-6.688 15.799-16.055 23.309-23.758 23.265-23.863 23.33-23.864 24.406-23.87.417.001.864.172 1.172.48 1.129 1.128.506 1.939-2.118 5.35-1.433 1.863-3.526 4.513-6.398 8.1-5.332 6.659-12.675 15.703-19.776 24.449-5.153 6.347-10.809 13.313-15.808 19.512a6689 6689 0 0 0 20.532-21.025c38.761-39.802 39.155-39.805 40.461-39.814.401 0 .885.179 1.192.487 1.057 1.057.194 2.167-.5 3.059-.447.576-1.118 1.408-1.983 2.464a987 987 0 0 1-7.219 8.662c-6.042 7.189-14.191 16.801-22.818 26.978-6.943 8.19-14.525 17.134-21.342 25.214l7.613-7.757c56.352-57.432 56.915-57.435 58.273-57.441h.01c.432 0 .874.181 1.179.486 1.151 1.151.188 2.446-1.032 4.085-.857 1.152-2.18 2.818-3.931 4.952-3.17 3.863-7.732 9.252-13.948 16.475-11.379 13.224-26.031 29.956-38.959 44.719l-2.342 2.674c6.006-6.085 12.363-12.541 18.488-18.76 51.981-52.786 52.268-52.787 53.472-52.792.462.025.865.175 1.171.481 1.272 1.272.411 2.305-3.722 7.269-2.431 2.919-5.98 7.055-10.851 12.643-9.036 10.364-21.355 24.27-33.269 37.719-8.808 9.942-18.1 20.432-26.067 29.498 9.024-9.172 19.596-20.022 29.598-30.286 49.796-51.102 52.457-53.379 54-53.389h.01c.432 0 .884.184 1.189.489 1.271 1.271.66 2.107-4.503 8.273-2.906 3.471-7.129 8.362-12.91 14.955-10.678 12.177-24.779 27.998-38.417 43.296a13692 13692 0 0 0-22.221 24.969c13.057-13.15 29.302-29.746 42.974-43.712 41.023-41.908 41.145-41.909 42.319-41.915h.01c.432 0 .857.175 1.162.48 1.082 1.082.159 2.224-.514 3.058-.45.558-1.13 1.365-2.013 2.395a859 859 0 0 1-7.45 8.517c-6.305 7.141-15.211 17.131-24.64 27.708-14.294 16.035-32.593 36.562-46.487 52.434 7.62-7.712 16.357-16.59 24.984-25.357 61.339-62.329 61.778-62.331 63.081-62.336.443.014.871.177 1.177.483 1.283 1.283.469 2.248-4.046 7.607-2.624 3.114-6.452 7.528-11.704 13.495-9.743 11.069-23.027 25.932-35.874 40.306-9.935 11.117-20.443 22.873-29.298 32.866 10.89-11.016 23.977-24.408 35.722-36.426 49.619-50.774 49.977-50.776 51.309-50.784.443.01.877.177 1.184.485 1.298 1.298.377 2.395-4.05 7.668-2.636 3.141-6.485 7.586-11.767 13.59-9.792 11.133-23.107 26.024-35.982 40.425a12423 12423 0 0 0-24.769 27.756c7.097-7.214 14.836-15.111 22.245-22.671 54.987-56.114 57.858-58.613 59.33-58.62h.01c.432 0 .875.181 1.18.487 1.289 1.29.402 2.462-4.006 7.785-2.638 3.187-6.495 7.68-11.792 13.737-9.809 11.217-23.063 26.087-35.881 40.465-9.225 10.349-18.98 21.292-27.196 30.601 10.145-10.286 22.341-22.809 33.281-34.043 47.409-48.684 49.757-50.696 51.25-50.706h.01c.432 0 .881.183 1.186.488 1.254 1.254.658 2.14-4.606 8.514-2.967 3.593-7.263 8.635-13.133 15.413-10.805 12.479-24.702 28.255-38.141 43.512-4.151 4.712-8.334 9.46-12.32 13.993 7.391-7.512 15.398-15.694 22.774-23.231 45.535-46.528 45.873-46.53 47.13-46.537.458.027.874.177 1.181.484 1.081 1.08.24 2.15-.735 3.389-.593.753-1.497 1.861-2.688 3.294-2.185 2.627-5.355 6.372-9.69 11.448-8.044 9.418-18.967 22.088-29.531 34.342-6.11 7.087-12.482 14.478-18.351 21.305 4.313-4.4 8.8-8.988 13.141-13.427 46.51-47.556 46.957-47.559 48.281-47.566h.01c.432 0 .875.181 1.18.486 1.052 1.052.192 2.188-.5 3.101-.461.608-1.153 1.485-2.046 2.594a900 900 0 0 1-7.412 9.033c-6.179 7.459-14.359 17.235-23.02 27.585-6.787 8.112-14.277 17.062-20.743 24.836 8.16-8.248 17.711-18.012 25.875-26.357 27.069-27.67 27.089-27.67 28.159-27.677h.01c.431 0 .853.174 1.158.479 1.03 1.03.232 2.137-.472 3.114-.457.635-1.142 1.547-2.02 2.693a887 887 0 0 1-7.197 9.215c-5.929 7.516-13.691 17.253-21.197 26.67-2.175 2.728-4.364 5.473-6.484 8.136 31.526-32.096 31.76-32.097 32.864-32.102h.01c.431 0 .86.176 1.165.481a1.627 1.627 0 0 1-.495 2.641c-2.221 1.734-19.298 19.121-31.829 31.88-19.136 19.485-19.136 19.485-20.046 19.489h-.01c-.431 0-.849-.172-1.154-.478-1.069-1.069-.641-1.624 1.734-4.702a804 804 0 0 1 5.215-6.65 7597 7597 0 0 1 16.484-20.723c5.019-6.296 10.501-13.174 15.434-19.39-2.911 2.971-5.97 6.098-9.004 9.199-44.203 45.185-44.69 45.188-45.992 45.195a1.7 1.7 0 0 1-1.189-.487c-1.275-1.275-1.275-1.275 11.515-16.73 7.072-8.545 16.548-19.87 25.713-30.823 5.21-6.227 10.664-12.745 15.599-18.663-8.405 8.507-18.33 18.655-27.268 27.795-38.68 39.551-38.899 39.552-40.111 39.558h-.01zm-53.674-128.722a1.619 1.619 0 0 0 0 0" style="fill:#f9a5e9" transform="translate(-1267.985 -921.16)"/></g><g style="opacity:.8"><path d="M2208.508 1357.565c-.317 0-.633-.13-.857-.354-.792-.792-.153-1.602.523-2.46.423-.537 1.069-1.327 1.919-2.349a891 891 0 0 1 6.928-8.182c5.758-6.741 13.626-15.867 21.235-24.693 5.07-5.88 10.381-12.041 15.155-17.598a9862 9862 0 0 0-15.798 16.117c-36.243 37.035-36.569 37.036-37.534 37.042-.319 0-.645-.131-.87-.356-.793-.793-.131-1.642.401-2.324.361-.462.892-1.111 1.625-1.982a574 574 0 0 1 5.971-6.941c5.024-5.772 11.928-13.61 19.238-21.908 8.84-10.036 19.4-22.024 27.573-31.453-6.475 6.579-14.232 14.546-21.551 22.06-9.684 9.944-19.698 20.227-27.329 27.926-13.118 13.234-13.602 13.237-14.333 13.241h-.01c-.317 0-.654-.137-.878-.361-.946-.946-.261-1.769 2.624-5.236 1.733-2.082 4.274-5.035 7.769-9.026 6.495-7.416 15.093-17.062 24.196-27.274 7.906-8.869 16.744-18.783 23.884-26.908-8.038 8.109-17.996 18.271-26.882 27.339-36.176 36.917-36.398 36.918-37.331 36.923h-.01c-.317 0-.635-.13-.858-.354-.94-.94-.364-1.624 2.832-5.424 1.846-2.195 4.545-5.309 8.25-9.519 6.881-7.818 16.336-18.393 25.479-28.62 6.939-7.761 14.25-15.938 20.579-23.074-5.556 5.656-11.72 11.963-17.601 17.981-41.135 42.092-43.467 44.102-44.636 44.108-.305 0-.654-.134-.879-.359-.937-.937-.349-1.634 2.913-5.503 1.89-2.242 4.65-5.423 8.438-9.725 7.03-7.985 16.655-18.754 25.963-29.168a8376 8376 0 0 0 21.091-23.656c-8.229 8.296-18.049 18.275-26.881 27.249-35.336 35.907-35.448 35.907-36.313 35.911-.314.026-.632-.127-.857-.352-.867-.867-.12-1.85.914-3.21.732-.963 1.86-2.357 3.354-4.143 2.708-3.237 6.604-7.755 11.911-13.811 9.719-11.091 22.239-25.136 33.285-37.527l.063-.071-3.085 3.152c-10.798 11.031-23.037 23.534-32.474 33.024-16.422 16.514-16.957 16.517-17.698 16.521h-.01c-.317 0-.652-.136-.875-.36-.809-.809-.114-1.7.5-2.486a82 82 0 0 1 1.96-2.382c1.603-1.895 3.952-4.6 7.181-8.271 6.018-6.841 14.118-15.929 22.694-25.55 8.666-9.722 18.369-20.607 26.142-29.441-6.719 6.824-14.672 14.987-22.187 22.699-36.619 37.579-38.575 39.253-39.711 39.26-.327 0-.654-.133-.88-.359-.928-.928-.308-1.672 2.672-5.249 1.747-2.096 4.299-5.068 7.803-9.086 6.503-7.457 15.411-17.513 24.027-27.238 6.209-7.009 12.742-14.383 18.458-20.883-6.198 6.264-13.253 13.428-19.96 20.238-35.197 35.742-35.331 35.743-36.201 35.746h-.01a1.22 1.22 0 0 1-.853-.352c-.834-.834-.42-1.326 1.568-3.686a535 535 0 0 1 4.676-5.443 5418 5418 0 0 1 15.47-17.709c9.502-10.85 21.818-24.915 30.715-35.293-8.381 8.413-19.294 19.536-28.381 28.797-23.113 23.556-23.113 23.556-23.893 23.56h-.01c-.317 0-.625-.127-.848-.351-.791-.79-.173-1.6.542-2.538.448-.587 1.133-1.448 2.036-2.558 1.647-2.026 4.026-4.892 7.273-8.765 5.994-7.148 13.849-16.414 21.446-25.375 3.023-3.566 6.073-7.164 8.935-10.545-3.97 4.055-8.193 8.391-12.104 12.408-27.051 27.777-27.3 27.779-28.226 27.785-.34-.017-.646-.13-.872-.356-.838-.839-.404-1.404 1.681-4.123a434 434 0 0 1 5.041-6.391c4.187-5.234 9.859-12.219 15.344-18.974 2.845-3.503 5.804-7.148 8.566-10.562l-3.011 3.087c-23.75 24.361-24.019 24.362-24.91 24.368-.317-.022-.646-.131-.872-.357-.742-.742-.295-1.457.686-3.025.558-.892 1.375-2.15 2.498-3.846 2.074-3.134 4.882-7.292 7.597-11.313 1.249-1.849 2.544-3.767 3.769-5.589-3.717 3.769-3.804 3.769-4.312 3.772h-.01a1.197 1.197 0 0 1-.646-2.201c.573-.507 3.716-3.705 6.03-6.06 5.569-5.668 5.569-5.668 6.15-5.671.331 0 .626.125.851.35.732.732.287 1.441-.602 2.854-.502.798-1.239 1.93-2.253 3.459a1638 1638 0 0 1-7.003 10.423c-1.889 2.798-3.967 5.875-5.792 8.603 4.892-4.907 11.594-11.781 17.104-17.434 17.072-17.511 17.119-17.511 17.909-17.516.306.001.634.126.86.352.828.828.371 1.423-1.554 3.926a418 418 0 0 1-4.695 5.944c-3.912 4.886-9.301 11.523-14.512 17.941-3.781 4.657-7.932 9.769-11.6 14.318 4.611-4.692 9.983-10.208 15.067-15.428 28.443-29.207 28.732-29.209 29.691-29.216.294 0 .649.131.875.357.776.775.142 1.59-.367 2.245-.328.422-.82 1.033-1.455 1.808a724 724 0 0 1-5.297 6.356 6907 6907 0 0 1-16.744 19.797 10949 10949 0 0 0-15.661 18.502l5.586-5.692c41.352-42.144 41.764-42.146 42.761-42.151h.01c.317 0 .641.133.865.357.845.845.138 1.795-.757 2.997-.629.846-1.599 2.068-2.884 3.634-2.326 2.835-5.674 6.789-10.235 12.089-8.35 9.704-19.102 21.982-28.589 32.815l-1.719 1.963c4.407-4.465 9.072-9.203 13.567-13.766 38.144-38.735 38.354-38.736 39.238-38.739.339.019.635.128.859.353.933.933.302 1.691-2.731 5.334-1.784 2.142-4.388 5.177-7.963 9.277-6.63 7.605-15.67 17.81-24.413 27.678a7626 7626 0 0 0-19.129 21.646c6.622-6.73 14.38-14.692 21.72-22.224 36.541-37.499 38.493-39.17 39.625-39.177h.01c.317 0 .649.135.873.359.933.932.484 1.546-3.305 6.071-2.133 2.547-5.231 6.137-9.473 10.974-7.835 8.936-18.183 20.545-28.19 31.771-5.617 6.302-11.305 12.683-16.306 18.322 9.581-9.649 21.502-21.828 31.534-32.076 30.103-30.752 30.193-30.753 31.054-30.757h.01c.317 0 .629.129.853.352.794.794.117 1.632-.377 2.244a86 86 0 0 1-1.477 1.757 623 623 0 0 1-5.467 6.25c-4.627 5.24-11.162 12.571-18.081 20.332-10.489 11.767-23.917 26.829-34.112 38.476 5.591-5.659 12.003-12.174 18.334-18.607 45.011-45.738 45.333-45.739 46.29-45.743.325.01.639.13.864.355.941.941.344 1.65-2.969 5.582-1.925 2.285-4.735 5.524-8.588 9.903-7.15 8.123-16.897 19.029-26.324 29.577a8220 8220 0 0 0-21.499 24.117c7.991-8.084 17.594-17.911 26.213-26.73 36.411-37.258 36.673-37.26 37.65-37.266.325.01.644.13.869.356.952.952.276 1.757-2.972 5.627-1.935 2.304-4.759 5.567-8.635 9.973-7.186 8.17-16.956 19.097-26.404 29.664a9206 9206 0 0 0-18.176 20.368c5.208-5.294 10.887-11.089 16.323-16.636 40.35-41.176 42.457-43.01 43.537-43.016h.01c.317 0 .642.133.866.357.946.947.295 1.806-2.939 5.713-1.936 2.338-4.766 5.636-8.653 10.081-7.198 8.231-16.924 19.143-26.33 29.694-6.77 7.594-13.928 15.624-19.956 22.455 7.445-7.548 16.394-16.738 24.421-24.981 34.789-35.724 36.512-37.201 37.608-37.208h.01c.317 0 .646.134.87.358.92.92.483 1.57-3.38 6.247-2.177 2.636-5.33 6.336-9.637 11.31-7.929 9.157-18.126 20.733-27.988 31.929-3.046 3.458-6.116 6.942-9.041 10.268a9293 9293 0 0 0 16.712-17.047c33.414-34.143 33.662-34.144 34.584-34.149.336.02.641.13.866.355.794.793.176 1.578-.539 2.487-.435.553-1.099 1.366-1.972 2.417a921 921 0 0 1-7.111 8.401c-5.903 6.911-13.918 16.208-21.67 25.2-4.483 5.2-9.159 10.624-13.466 15.634 3.165-3.229 6.458-6.595 9.643-9.853 34.13-34.897 34.457-34.899 35.429-34.905h.01c.317 0 .642.133.866.357.772.772.141 1.606-.367 2.275-.338.446-.847 1.09-1.501 1.903a673 673 0 0 1-5.439 6.628c-4.534 5.473-10.537 12.647-16.892 20.242-4.981 5.953-10.477 12.52-15.221 18.225 5.988-6.052 12.997-13.217 18.987-19.341 19.863-20.305 19.878-20.305 20.664-20.309h.01c.317 0 .626.128.85.352.756.756.171 1.569-.346 2.285a90 90 0 0 1-1.482 1.976 655 655 0 0 1-5.281 6.762 5393 5393 0 0 1-15.555 19.57c-1.596 2.002-3.202 4.016-4.758 5.97 23.134-23.552 23.306-23.553 24.116-23.556h.01c.317 0 .631.129.855.353a1.193 1.193 0 0 1-.364 1.938c-1.63 1.272-14.161 14.031-23.356 23.394-14.042 14.298-14.042 14.298-14.71 14.301h-.01c-.316 0-.623-.126-.847-.351-.785-.784-.47-1.192 1.273-3.45a570 570 0 0 1 3.827-4.88c3.201-4.049 7.553-9.508 12.096-15.207 3.683-4.62 7.706-9.667 11.326-14.228-2.136 2.18-4.381 4.475-6.607 6.75-32.437 33.157-32.794 33.159-33.749 33.164a1.24 1.24 0 0 1-.873-.357c-.935-.936-.935-.936 8.45-12.276 5.189-6.27 12.143-14.581 18.868-22.618 3.823-4.569 7.826-9.352 11.447-13.695-6.167 6.242-13.451 13.69-20.01 20.396-28.384 29.022-28.544 29.023-29.434 29.028h-.01zm-39.387-94.457" style="fill:#f9a5e9" transform="translate(-1267.985 -921.16)"/></g><g style="opacity:.8"><path d="M1452.721 1449.802a.82.82 0 0 1-.57-.235c-.526-.526-.102-1.065.348-1.635.281-.357.71-.882 1.275-1.561a576 576 0 0 1 4.605-5.438c3.827-4.48 9.057-10.546 14.114-16.412 3.369-3.908 6.9-8.003 10.073-11.696a6154 6154 0 0 0-10.5 10.712c-24.089 24.615-24.305 24.616-24.947 24.619a.83.83 0 0 1-.579-.237c-.527-.527-.087-1.092.267-1.545.24-.307.593-.738 1.08-1.318.884-1.051 2.182-2.56 3.969-4.613a3700 3700 0 0 1 12.786-14.561c5.876-6.67 12.894-14.638 18.326-20.905a4023 4023 0 0 0-14.323 14.662c-6.436 6.609-13.091 13.443-18.164 18.56-8.719 8.796-9.04 8.798-9.526 8.801a.85.85 0 0 1-.584-.24c-.629-.629-.173-1.176 1.744-3.48 1.152-1.384 2.841-3.346 5.164-5.999 4.317-4.929 10.031-11.34 16.082-18.127 5.254-5.894 11.128-12.484 15.874-17.884-5.342 5.39-11.961 12.143-17.867 18.171-24.044 24.536-24.191 24.537-24.812 24.54a.82.82 0 0 1-.571-.236c-.625-.624-.242-1.079 1.882-3.605 1.227-1.459 3.021-3.528 5.484-6.327 4.573-5.196 10.857-12.225 16.935-19.021 4.612-5.159 9.471-10.593 13.678-15.336-3.693 3.759-7.789 7.951-11.698 11.95-27.339 27.975-28.889 29.311-29.667 29.316a.87.87 0 0 1-.584-.239c-.623-.622-.232-1.086 1.936-3.657 1.256-1.49 3.091-3.604 5.608-6.464 4.672-5.307 11.069-12.465 17.256-19.386a5577 5577 0 0 0 14.018-15.723 6901 6901 0 0 0-17.866 18.111c-23.485 23.865-23.559 23.865-24.135 23.868-.209.017-.42-.084-.57-.234-.576-.577-.08-1.23.607-2.134a82 82 0 0 1 2.229-2.753c1.8-2.152 4.389-5.154 7.916-9.18 6.459-7.371 14.781-16.706 22.122-24.942l.042-.047-2.051 2.095c-7.177 7.332-15.311 15.641-21.583 21.949-10.914 10.976-11.27 10.978-11.763 10.98a.85.85 0 0 1-.582-.239c-.538-.537-.076-1.13.332-1.653.288-.37.715-.888 1.303-1.583a411 411 0 0 1 4.773-5.497c4-4.547 9.383-10.587 15.083-16.982 5.76-6.462 12.208-13.696 17.375-19.568a4436 4436 0 0 0-14.746 15.086c-24.338 24.976-25.639 26.089-26.393 26.094a.84.84 0 0 1-.585-.239c-.617-.617-.205-1.112 1.776-3.489 1.161-1.393 2.857-3.368 5.186-6.039 4.322-4.956 10.243-11.64 15.969-18.104a5064 5064 0 0 0 12.268-13.88c-4.12 4.163-8.809 8.925-13.266 13.451-23.393 23.755-23.482 23.756-24.061 23.758a.8.8 0 0 1-.567-.234c-.554-.555-.279-.881 1.042-2.45.689-.818 1.706-2.002 3.108-3.618a3733 3733 0 0 1 10.282-11.77c6.316-7.211 14.501-16.559 20.414-23.457-5.57 5.592-12.824 12.984-18.863 19.139-15.362 15.656-15.362 15.656-15.88 15.659a.8.8 0 0 1-.564-.233c-.526-.525-.115-1.064.36-1.687.298-.39.753-.962 1.353-1.7a540 540 0 0 1 4.834-5.825c3.984-4.751 9.205-10.909 14.253-16.865 2.009-2.37 4.036-4.761 5.938-7.009a4541 4541 0 0 0-8.045 8.247c-17.979 18.462-18.144 18.463-18.76 18.467a.86.86 0 0 1-.58-.237c-.557-.557-.269-.933 1.118-2.741.752-.981 1.848-2.37 3.35-4.248 2.783-3.479 6.553-8.121 10.198-12.611 1.891-2.328 3.858-4.751 5.693-7.02l-2.001 2.052c-15.785 16.191-15.964 16.192-16.556 16.196-.211-.014-.43-.087-.58-.237-.494-.493-.196-.969.456-2.01.371-.593.914-1.429 1.66-2.556 1.379-2.083 3.245-4.846 5.049-7.519.83-1.229 1.691-2.504 2.505-3.715-2.471 2.505-2.528 2.505-2.866 2.507a.793.793 0 0 1-.43-1.463c.381-.337 2.469-2.463 4.007-4.028 3.701-3.767 3.701-3.767 4.087-3.769.22 0 .416.083.566.233.487.487.19.958-.4 1.897-.334.531-.823 1.282-1.497 2.299a1072 1072 0 0 1-4.655 6.928 1730 1730 0 0 0-3.849 5.718c3.251-3.262 7.705-7.83 11.368-11.587 11.347-11.638 11.378-11.639 11.903-11.642a.83.83 0 0 1 .571.234c.551.55.247.946-1.033 2.609-.699.909-1.72 2.201-3.12 3.95-2.6 3.248-6.182 7.659-9.645 11.924a3861 3861 0 0 0-7.71 9.516c3.065-3.119 6.635-6.785 10.014-10.254 18.904-19.412 19.097-19.413 19.734-19.418.196 0 .431.087.581.238.516.515.094 1.057-.244 1.492-.218.281-.545.687-.967 1.202a465 465 0 0 1-3.521 4.224 4505 4505 0 0 1-11.129 13.157c-3.386 3.994-7.084 8.356-10.409 12.297l3.713-3.783c27.484-28.01 27.758-28.012 28.421-28.015a.83.83 0 0 1 .575.237c.561.561.092 1.193-.503 1.992a70 70 0 0 1-1.917 2.415c-1.546 1.884-3.771 4.513-6.802 8.035-5.55 6.449-12.696 14.61-19.001 21.81l-1.142 1.304c2.929-2.968 6.03-6.116 9.017-9.15 25.352-25.745 25.492-25.745 26.079-25.747a.84.84 0 0 1 .571.235c.62.62.201 1.124-1.815 3.545-1.185 1.424-2.917 3.441-5.292 6.166-4.407 5.055-10.415 11.837-16.226 18.396a5000 5000 0 0 0-12.713 14.386c4.401-4.473 9.557-9.765 14.436-14.771 24.286-24.923 25.584-26.034 26.336-26.038h.01c.211 0 .431.09.58.239.62.62.322 1.028-2.196 4.035-1.417 1.693-3.477 4.078-6.296 7.294-5.207 5.939-12.085 13.655-18.736 21.116-3.733 4.189-7.514 8.43-10.837 12.178 6.368-6.413 14.291-14.508 20.959-21.319 20.007-20.439 20.067-20.439 20.639-20.442.211 0 .418.085.567.234.528.528.078 1.085-.251 1.491-.22.272-.551.666-.982 1.168-.807.94-1.995 2.299-3.633 4.154-3.075 3.483-7.419 8.355-12.017 13.513-6.971 7.82-15.896 17.832-22.672 25.573 3.716-3.761 7.978-8.091 12.185-12.367 29.916-30.399 30.13-30.4 30.766-30.402.216.01.425.086.574.236.625.625.229 1.097-1.973 3.71-1.28 1.519-3.147 3.672-5.708 6.582-4.752 5.399-11.231 12.648-17.496 19.658-4.846 5.422-9.971 11.156-14.289 16.029 5.311-5.373 11.694-11.904 17.422-17.766 24.2-24.763 24.375-24.764 25.024-24.768.216 0 .428.087.578.237.633.633.184 1.168-1.975 3.74-1.286 1.532-3.163 3.7-5.739 6.628-4.776 5.43-11.269 12.692-17.549 19.715-4.048 4.528-8.294 9.276-12.08 13.537 3.462-3.518 7.236-7.37 10.849-11.057 26.818-27.367 28.218-28.586 28.936-28.589.211 0 .427.088.576.237.629.629.196 1.201-1.954 3.797-1.287 1.554-3.168 3.746-5.751 6.7-4.784 5.471-11.248 12.723-17.5 19.735-4.499 5.048-9.257 10.385-13.264 14.924 4.948-5.016 10.896-11.124 16.231-16.603 23.122-23.744 24.267-24.725 24.995-24.73.211 0 .43.089.578.238.612.612.321 1.044-2.247 4.152-1.447 1.752-3.542 4.211-6.405 7.517-5.27 6.086-12.047 13.78-18.602 21.221a6780 6780 0 0 0-6.008 6.825c3.604-3.664 7.51-7.654 11.107-11.33 22.208-22.693 22.373-22.693 22.986-22.697a.86.86 0 0 1 .576.236c.527.527.117 1.048-.358 1.653-.289.367-.73.908-1.311 1.606a610 610 0 0 1-4.726 5.583c-3.923 4.593-9.251 10.773-14.403 16.749-2.98 3.457-6.087 7.061-8.95 10.391 2.103-2.146 4.292-4.383 6.409-6.548 22.684-23.194 22.901-23.195 23.547-23.199.211 0 .427.088.575.237.513.513.093 1.067-.244 1.512-.225.297-.563.724-.998 1.265a439 439 0 0 1-3.615 4.405 3880 3880 0 0 1-11.227 13.453c-3.31 3.956-6.963 8.321-10.117 12.113 3.979-4.023 8.638-8.785 12.619-12.855 13.202-13.495 13.212-13.495 13.734-13.498.21 0 .416.085.565.234.503.502.113 1.042-.23 1.519-.223.31-.557.755-.985 1.313a424 424 0 0 1-3.51 4.494 3528 3528 0 0 1-10.338 13.007l-3.162 3.968c15.375-15.654 15.49-15.654 16.028-15.656.21 0 .419.086.568.235a.793.793 0 0 1-.242 1.288c-1.083.846-9.412 9.326-15.523 15.548-9.333 9.503-9.333 9.503-9.777 9.505a.8.8 0 0 1-.563-.233c-.521-.521-.313-.792.846-2.293.603-.781 1.477-1.895 2.543-3.243 2.128-2.691 5.02-6.319 8.04-10.107 2.448-3.071 5.122-6.425 7.527-9.457l-4.391 4.487c-21.559 22.037-21.796 22.039-22.431 22.042a.85.85 0 0 1-.58-.237c-.622-.622-.622-.622 5.616-8.159 3.449-4.167 8.07-9.691 12.54-15.033 2.541-3.037 5.201-6.216 7.608-9.102-4.099 4.149-8.94 9.099-13.299 13.556-18.865 19.289-18.971 19.29-19.563 19.293.01.01 0 .01 0 .01zm-26.178-62.78" style="fill:#f9a5e9" transform="translate(-1267.985 -921.16)"/></g></g><g transform="translate(-1267.985 -921.16)"><linearGradient id="a" x1="1817.876" x2="1894.187" y1="1205.349" y2="1916.669" gradientUnits="userSpaceOnUse"><stop offset="0" style="stop-color:#fbe7ff"/><stop offset="1" style="stop-color:#fad0ff"/></linearGradient><path d="M2068.298 1669.092H1601.96c-13.937 0-25.235-11.298-25.235-25.235v-555.38c0-13.937 11.298-25.235 25.235-25.235h466.338c13.937 0 25.235 11.298 25.235 25.235v555.38c-.001 13.937-11.299 25.235-25.235 25.235" style="fill:url(#a)"/><linearGradient id="b" x1="1879.424" x2="1838.749" y1="1335.503" y2="1494.03" gradientTransform="rotate(6.136 3910.188 887.655)" gradientUnits="userSpaceOnUse"><stop offset="0" style="stop-color:#ff2e2e"/><stop offset="1" style="stop-color:#730000"/></linearGradient><path d="M1879.675 1148.371c2.45-4.713 3.562-9.907 2.143-15.693-2.568-10.474-12.053-18.504-22.953-18.504-12.146-.001-22.926 10.096-23.646 22.241.625-12.293-12.157-22.241-23.722-22.241-13.08 0-23.683 10.603-23.684 23.684 0 14.399 14.039 24.759 23.72 33.389 1.683 1.501 13.271 12.934 19.581 19.546 2.319 2.43 6.193 2.449 8.526.033 9.218-9.546 18.531-18.852 28.176-28.022 4.514-4.291 9.06-9.048 11.859-14.433" style="opacity:.8;fill:url(#b)"/><linearGradient id="c" x1="1676.41" x2="1676.09" y1="1232.775" y2="1253.943" gradientUnits="userSpaceOnUse"><stop offset="0" style="stop-color:#fbe7ff"/><stop offset="1" style="stop-color:#fad0ff"/></linearGradient><path d="M1622.09 1234.653h108.298v18.926H1622.09z" style="fill:url(#c)"/><linearGradient id="d" x1="1862.408" x2="1862.025" y1="1272.613" y2="1297.884" gradientUnits="userSpaceOnUse"><stop offset="0" style="stop-color:#fbe7ff"/><stop offset="1" style="stop-color:#fad0ff"/></linearGradient><path d="M1676.239 1276.69h371.929v18.926h-371.929z" style="fill:url(#d)"/><linearGradient id="e" x1="1835.34" x2="1834.945" y1="1305.148" y2="1331.262" gradientUnits="userSpaceOnUse"><stop offset="0" style="stop-color:#fbe7ff"/><stop offset="1" style="stop-color:#fad0ff"/></linearGradient><path d="M1622.09 1309.677h426.078v18.926H1622.09z" style="fill:url(#e)"/><linearGradient id="f" x1="1835.34" x2="1834.945" y1="1338.135" y2="1364.248" gradientUnits="userSpaceOnUse"><stop offset="0" style="stop-color:#fbe7ff"/><stop offset="1" style="stop-color:#fad0ff"/></linearGradient><path d="M1622.09 1342.663h426.078v18.926H1622.09z" style="fill:url(#f)"/><linearGradient id="g" x1="1782.638" x2="1782.268" y1="1372" y2="1396.474" gradientUnits="userSpaceOnUse"><stop offset="0" style="stop-color:#fbe7ff"/><stop offset="1" style="stop-color:#fad0ff"/></linearGradient><path d="M1622.09 1375.65h320.7v18.926h-320.7z" style="fill:url(#g)"/><linearGradient id="h" x1="1862.408" x2="1862.025" y1="1437.546" y2="1462.817" gradientUnits="userSpaceOnUse"><stop offset="0" style="stop-color:#fbe7ff"/><stop offset="1" style="stop-color:#fad0ff"/></linearGradient><path d="M1676.239 1441.623h371.929v18.926h-371.929z" style="fill:url(#h)"/><linearGradient id="i" x1="1782.638" x2="1782.268" y1="1470.96" y2="1495.434" gradientUnits="userSpaceOnUse"><stop offset="0" style="stop-color:#fbe7ff"/><stop offset="1" style="stop-color:#fad0ff"/></linearGradient><path d="M1622.09 1474.609h320.7v18.926h-320.7z" style="fill:url(#i)"/><linearGradient id="j" x1="2338.651" x2="2311.805" y1="1331.287" y2="1435.919" gradientTransform="rotate(-20.528 2710.177 2509.482)" gradientUnits="userSpaceOnUse"><stop offset="0" style="stop-color:#ff2e2e"/><stop offset="1" style="stop-color:#730000"/></linearGradient><path d="M1980.277 1544.729c.049-3.505-.833-6.898-3.383-9.891-4.616-5.417-12.589-7.344-19.018-4.116-7.164 3.597-10.532 12.744-7.36 20.121-3.272-7.436-13.757-9.518-20.578-6.093-7.715 3.874-10.828 13.268-6.955 20.983 4.265 8.492 15.613 10.445 23.878 12.668 1.437.387 11.658 3.699 17.338 5.73a3.9 3.9 0 0 0 5.039-2.506c2.61-8.36 5.347-16.607 8.32-24.872 1.39-3.867 2.663-8.019 2.719-12.024" style="opacity:.5;fill:url(#j)"/><linearGradient id="k" x1="2062.348" x2="2048.482" y1="1868.76" y2="1922.803" gradientTransform="rotate(12.157 3519.247 1471.27)" gradientUnits="userSpaceOnUse"><stop offset="0" style="stop-color:#ff2e2e"/><stop offset="1" style="stop-color:#730000"/></linearGradient><path d="M2022.557 1565.388c.999-1.51 1.562-3.231 1.287-5.243-.496-3.643-3.425-6.704-7.12-7.094-4.118-.434-8.133 2.604-8.811 6.695.651-4.145-3.327-7.975-7.248-8.388a8.075 8.075 0 0 0-8.876 7.183c-.514 4.881 3.875 8.896 6.849 12.167.517.569 4.037 4.859 5.94 7.326a2.013 2.013 0 0 0 2.889.316 315 315 0 0 1 10.554-8.493c1.683-1.293 3.395-2.743 4.536-4.469" style="opacity:.5;fill:url(#k)"/><linearGradient id="l" x1="2025.792" x2="1882.998" y1="1579.928" y2="1675.124" gradientUnits="userSpaceOnUse"><stop offset="0" style="stop-color:#ff2e2e"/><stop offset="1" style="stop-color:#730000"/></linearGradient><path d="M1921.317 1625.666c7.027-7.101 14.243-14.037 22.041-20.377 3.908-3.164 7.989-6.108 12.173-8.909 4.203-2.784 8.597-5.332 13.242-7.462a60 60 0 0 1 7.186-2.775 40.5 40.5 0 0 1 7.633-1.648c2.628-.369 5.419-.259 8.09.319 2.677.593 5.314 1.723 7.563 3.517a14.8 14.8 0 0 1 2.943 3.151 15.7 15.7 0 0 1 1.956 3.823c.962 2.718 1.142 5.764.398 8.593-.739 2.845-2.23 5.285-3.999 7.371-1.781 2.075-3.819 3.828-6.015 5.332a47 47 0 0 1-6.852 3.818c-2.385 1.081-4.883 1.973-7.537 2.531-2.646.515-5.542.751-8.481-.177-1.452-.465-2.871-1.278-3.998-2.382-1.142-1.11-1.946-2.411-2.518-3.824a8.8 8.8 0 0 1-.512-4.759c.267-1.582.922-2.983 1.699-4.191 1.58-2.424 3.616-4.207 5.696-5.802 4.203-3.147 8.78-5.448 13.458-7.442 9.383-4.054 19.726-5.863 29.851-5.256 2.532.158 5.051.453 7.542.89 2.516.456 5.023 1.182 7.295 2.457 1.111.679 2.184 1.454 3.031 2.478.833 1.028 1.415 2.261 1.623 3.559.29 2.638-.73 5.108-2.078 7.182 1.172-2.182 1.91-4.713 1.43-7.065a6.9 6.9 0 0 0-1.675-3.056c-.817-.853-1.843-1.485-2.898-2.031-2.178-1.004-4.561-1.57-6.973-1.853a66 66 0 0 0-7.366-.422 64.3 64.3 0 0 0-14.58 1.541c-2.381.54-4.74 1.167-7.045 1.957a70 70 0 0 0-6.781 2.729 79 79 0 0 0-6.499 3.369c-2.103 1.213-4.141 2.521-6.001 3.985-1.844 1.462-3.562 3.095-4.669 4.899-.552.896-.932 1.821-1.059 2.708a4.7 4.7 0 0 0 .339 2.575c.384.886.94 1.736 1.595 2.36.663.636 1.463 1.096 2.385 1.388 1.85.588 4.11.473 6.326.012 4.463-.991 8.895-3.157 12.802-5.78 3.819-2.59 7.257-6.109 8.346-10.169.542-2.002.435-4.156-.25-6.146a11.5 11.5 0 0 0-1.425-2.831c-.615-.877-1.281-1.662-2.11-2.339-1.632-1.358-3.669-2.312-5.849-2.841a19.4 19.4 0 0 0-6.788-.392c-2.351.214-4.699.699-7.014 1.354a56.5 56.5 0 0 0-6.859 2.387c-4.507 1.866-8.833 4.238-13.08 6.761a170 170 0 0 0-12.397 8.195c-8.067 5.796-15.658 12.292-23.335 18.688" style="opacity:.5;fill:url(#l)"/><linearGradient id="m" x1="2007.866" x2="1760.54" y1="1171.298" y2="1301.434" gradientUnits="userSpaceOnUse"><stop offset="0" style="stop-color:#ff2e2e"/><stop offset="1" style="stop-color:#730000"/></linearGradient><path d="m1880.572 1183.123 1.626-.741.819-.365.84-.313 1.689-.621 1.729-.515c2.325-.611 4.721-1.073 7.155-1.199a36.4 36.4 0 0 1 7.313.27c2.424.339 4.82.874 7.169 1.558 4.676 1.436 9.118 3.457 13.407 5.636 4.296 2.177 8.406 4.6 12.549 6.846 4.137 2.252 8.281 4.388 12.508 6.128 4.239 1.734 8.529 3.003 12.91 3.468 4.363.451 8.74.11 12.811-1.209 2.034-.655 4.009-1.503 5.854-2.61.949-.557 1.925-1.203 2.887-1.799l2.855-1.949c3.803-2.655 7.544-5.586 11.583-8.349 4.042-2.724 8.435-5.351 13.403-6.871a35.05 35.05 0 0 1 15.31-1.263c5.088.575 10.04 2.375 14.363 5.134a31.3 31.3 0 0 1 5.934 4.905c1.818 1.977 3.309 4.267 4.052 7.014.362 1.366.516 2.865.265 4.378a8.23 8.23 0 0 1-1.944 4.101c-.992 1.126-2.175 1.913-3.348 2.519a19.7 19.7 0 0 1-3.608 1.418c-1.251.348-2.565.57-3.91.567a11.3 11.3 0 0 1-2.017-.181 9 9 0 0 1-.975-.236 7 7 0 0 1-.95-.306c-1.251-.462-2.489-1.2-3.411-2.306-.91-1.115-1.384-2.586-1.288-3.967.169-2.766 2.02-5.143 4.441-6.037 1.21-.448 2.535-.464 3.726-.157 1.201.307 2.255.954 3.165 1.716-1.015-.618-2.121-1.089-3.261-1.232-1.136-.137-2.284.04-3.252.55-1.961.973-3.198 3.17-3.07 5.166.048 1.001.484 1.886 1.129 2.563.677.663 1.584 1.117 2.583 1.383 2.033.587 4.115.305 6.139-.47 2.004-.773 4.07-1.884 5.116-3.299 1.066-1.395 1.144-3.167.506-4.991-.642-1.809-1.868-3.582-3.343-5.007a26.5 26.5 0 0 0-5.235-3.882 29 29 0 0 0-6.015-2.574c-2.094-.632-4.23-1.106-6.427-1.241-4.382-.428-8.72.016-12.815 1.424-4.112 1.361-7.968 3.679-11.736 6.32-3.787 2.624-7.516 5.574-11.489 8.376l-3.039 2.051c-1.059.651-2.068 1.312-3.17 1.951a33.3 33.3 0 0 1-7.153 3.13c-5.001 1.523-10.305 1.867-15.369 1.2-5.064-.669-9.935-2.256-14.402-4.302-4.501-2.019-8.699-4.469-12.776-6.98-4.074-2.519-8.066-5.061-12.081-7.488-4.015-2.424-8.12-4.626-12.42-6.324a48 48 0 0 0-6.594-2.077c-2.247-.531-4.546-.795-6.862-.925-4.641-.224-9.337.582-13.876 2.014" style="opacity:.6;fill:url(#m)"/><linearGradient id="n" x1="3514.809" x2="3267.482" y1="1171.298" y2="1301.434" gradientTransform="matrix(-1 0 0 1 5177.38 0)" gradientUnits="userSpaceOnUse"><stop offset="0" style="stop-color:#ff2e2e"/><stop offset="1" style="stop-color:#730000"/></linearGradient><path d="m1789.866 1183.123-1.626-.741-.819-.365-.84-.313-1.689-.621-1.729-.515c-2.325-.611-4.721-1.073-7.155-1.199a36.4 36.4 0 0 0-7.313.27c-2.424.339-4.82.874-7.169 1.558-4.676 1.436-9.119 3.457-13.407 5.636-4.296 2.177-8.406 4.6-12.549 6.846-4.137 2.252-8.281 4.388-12.508 6.128-4.239 1.734-8.529 3.003-12.91 3.468-4.363.451-8.739.11-12.812-1.209-2.033-.655-4.009-1.503-5.854-2.61-.949-.557-1.925-1.203-2.887-1.799l-2.855-1.949c-3.803-2.655-7.544-5.586-11.583-8.349-4.042-2.724-8.435-5.351-13.403-6.871a35.05 35.05 0 0 0-15.31-1.263c-5.088.575-10.04 2.375-14.363 5.134a31.3 31.3 0 0 0-5.934 4.905c-1.817 1.977-3.309 4.267-4.052 7.014-.362 1.366-.516 2.865-.265 4.378a8.23 8.23 0 0 0 1.944 4.101c.992 1.126 2.175 1.913 3.348 2.519a19.7 19.7 0 0 0 3.608 1.418c1.251.348 2.565.57 3.91.567a11.3 11.3 0 0 0 2.017-.181c.339-.058.658-.146.975-.236a7 7 0 0 0 .95-.306c1.251-.462 2.489-1.2 3.411-2.306.91-1.115 1.384-2.586 1.288-3.967-.169-2.766-2.02-5.143-4.441-6.037-1.21-.448-2.535-.464-3.726-.157-1.201.307-2.255.954-3.165 1.716 1.014-.618 2.121-1.089 3.26-1.232 1.136-.137 2.284.04 3.252.55 1.961.973 3.198 3.17 3.07 5.166-.048 1.001-.484 1.886-1.129 2.563-.677.663-1.584 1.117-2.583 1.383-2.033.587-4.115.305-6.139-.47-2.004-.773-4.07-1.884-5.116-3.299-1.066-1.395-1.144-3.167-.506-4.991.643-1.809 1.868-3.582 3.343-5.007a26.5 26.5 0 0 1 5.235-3.882 29 29 0 0 1 6.015-2.574c2.094-.632 4.23-1.106 6.427-1.241 4.382-.428 8.72.016 12.815 1.424 4.112 1.361 7.968 3.679 11.736 6.32 3.787 2.624 7.516 5.574 11.489 8.376l3.039 2.051c1.059.651 2.068 1.312 3.169 1.951a33.3 33.3 0 0 0 7.153 3.13c5.001 1.523 10.305 1.867 15.369 1.2 5.064-.669 9.935-2.256 14.402-4.302 4.501-2.019 8.699-4.469 12.776-6.98 4.074-2.519 8.066-5.061 12.081-7.488 4.014-2.424 8.12-4.626 12.42-6.324a48 48 0 0 1 6.594-2.077c2.247-.531 4.546-.795 6.862-.925 4.644-.224 9.34.582 13.879 2.014" style="opacity:.6;fill:url(#n)"/></g><g transform="translate(-1267.985 -921.16)"><linearGradient id="o" x1="-1069.444" x2="-1068.335" y1="1190.032" y2="1203.178" gradientTransform="rotate(-6.996 4219.933 -24652.405)" gradientUnits="userSpaceOnUse"><stop offset="0" style="stop-color:#f0877e"/><stop offset="1" style="stop-color:#fabeb2"/></linearGradient><path d="M2128.679 1653.088s-7.77 7.946-18.478 3.542c-.519-4.037-1.532-9.144-2.931-15.058 3.951 1.353 10.833 2.203 20.016-2.403 1.07 8.407 1.658 13.862 1.393 13.919" style="fill:url(#o)"/><linearGradient id="p" x1="4643.404" x2="4644.154" y1="1677.378" y2="1652.622" gradientTransform="matrix(-1 0 0 1 6765.856 0)" gradientUnits="userSpaceOnUse"><stop offset="0" style="stop-color:#a23200"/><stop offset="1" style="stop-color:#5c2100"/></linearGradient><path d="M2110.202 1656.629s-3.108 5.283-4.555 11.168c-.541 2.202 1.34 3.284 3.166 3.723 9.981 2.396 18.76 2.964 28.308-1.273 1.331-.591 1.979-2.112 1.523-3.495-1.214-3.681-4.158-10.527-9.965-13.664 0 0-6.318 4.89-18.477 3.541" style="fill:url(#p)"/><linearGradient id="q" x1="5835.672" x2="5828.828" y1="1748.759" y2="1772.712" gradientTransform="scale(-1 1)rotate(-4.502 437.862 101899.994)" gradientUnits="userSpaceOnUse"><stop offset="0" style="stop-color:#f0877e"/><stop offset="1" style="stop-color:#fabeb2"/></linearGradient><path d="M2037.099 1642.198s-.118 7.01-.357 10.513c-.105 1.536 15.981 9.549 19.771-.884l-1.949-8.494-13.412-5.254z" style="fill:url(#q)"/><linearGradient id="r" x1="4639.079" x2="4592.012" y1="725.674" y2="789.999" gradientTransform="scale(-1 1)rotate(15.332 -2092.978 -23507.984)" gradientUnits="userSpaceOnUse"><stop offset="0" style="stop-color:#a23200"/><stop offset="1" style="stop-color:#5c2100"/></linearGradient><path d="M2003.642 1669.483c31.285 2.5 48.856 1.179 54.125.629a2.08 2.08 0 0 0 1.865-1.923c.536-8.094-2.046-14.165-2.873-15.876l-2.447 1.532c-.956.592-2.022.99-3.11 1.258-3.992.983-7.339-.406-11.102-1.554-7.817-2.383-16.668-4.572-24.662-1.754-4.959 1.75-8.611 5.588-10.42 10.484-.149.397-1.873 7.163-1.376 7.204" style="fill:url(#r)"/><linearGradient id="s" x1="2628.799" x2="2621.993" y1="1400.722" y2="1250.011" gradientTransform="matrix(-1 0 0 1 4772.685 0)" gradientUnits="userSpaceOnUse"><stop offset="0" style="stop-color:#e75b00"/><stop offset="1" style="stop-color:#ffa345"/></linearGradient><path d="M2114.781 1342.767s3.587 1.22 7.151 9.219c7.366-5.869 20.844-15.127 27.86-21.426 12.122-10.885 19.691-15.715 28.718-29.667 4.638-7.18-.169-15.862-4.813-21.59-11.687-14.421-22.505-29.526-34.254-43.908a348 348 0 0 0-8.999-10.608c-1.175-1.328-8.377-7.643-8.219-8.857 0 0-.893 6.925-1.593 15.02-.61 7.021-1.073 14.93-.678 19.946.621 7.874 8.592 16.342 13.139 22.25 5.321 6.908 12.201 13.207 17.042 20.375.83 1.226 1.203 2.316 1.249 3.316.13 3.254-3.276 5.587-5.982 8.852-3.813 4.604-7.62 9.219-11.422 13.828-6.399 7.749-12.777 15.516-19.199 23.25" style="fill:url(#s)"/><linearGradient id="t" x1="1798.617" x2="2157.498" y1="1247.62" y2="1247.62" gradientUnits="userSpaceOnUse"><stop offset="0" style="stop-color:#a23200"/><stop offset="1" style="stop-color:#5c2100"/></linearGradient><path d="M1805.168 1278.408c20.595 56.965 83.695 86.555 140.661 65.959 25.054-9.058 44.809-26.34 57.332-47.703l141.931 66.555a8.68 8.68 0 0 0 6.657.305 8.706 8.706 0 0 0 .736-16.072l-141.727-66.459c9.368-23.95 10.441-51.257 1.03-77.285-20.595-56.966-83.695-86.555-140.661-65.96s-86.554 83.694-65.959 140.66m16.378-5.922c-17.33-47.935 7.568-101.032 55.503-118.362s101.032 7.568 118.362 55.503c17.33 47.934-7.569 101.031-55.503 118.362-47.935 17.33-101.032-7.568-118.362-55.503" style="fill:url(#t)"/><linearGradient id="u" x1="1913.489" x2="1887.775" y1="1176.419" y2="1508.133" gradientUnits="userSpaceOnUse"><stop offset="0" style="stop-color:#fbe7ff"/><stop offset="1" style="stop-color:#fad0ff"/></linearGradient><circle cx="1908.479" cy="1241.057" r="92.44" style="fill:url(#u)"/><defs><ellipse id="v" cx="1908.479" cy="1241.057" rx="92.439" ry="92.44" transform="rotate(-88.315 1908.458 1241.009)"/></defs><clipPath id="w"><use xlink:href="#v" style="overflow:visible"/></clipPath><g clip-path="url(#w)"><linearGradient id="x" x1="1868.966" x2="1818.029" y1="1219.294" y2="1417.817" gradientTransform="rotate(6.136 3910.188 887.655)" gradientUnits="userSpaceOnUse"><stop offset="0" style="stop-color:#ff2e2e"/><stop offset="1" style="stop-color:#730000"/></linearGradient><path d="M1890.891 1039.903c3.068-5.902 4.46-12.406 2.684-19.652-3.216-13.116-15.094-23.172-28.744-23.173-15.211-.001-28.709 12.643-29.612 27.853.783-15.395-15.224-27.852-29.707-27.853-16.38 0-29.658 13.278-29.659 29.66.001 18.032 17.581 31.006 29.704 41.812 2.108 1.879 16.619 16.197 24.521 24.478 2.904 3.043 7.755 3.067 10.677.041 11.544-11.955 23.206-23.608 35.284-35.092 5.654-5.374 11.346-11.331 14.852-18.074" style="opacity:.8;fill:url(#x)"/><linearGradient id="y" x1="1636.343" x2="1635.943" y1="1145.601" y2="1172.109" gradientUnits="userSpaceOnUse"><stop offset="0" style="stop-color:#fbe7ff"/><stop offset="1" style="stop-color:#fad0ff"/></linearGradient><path d="M1568.319 1147.953h135.62v23.701h-135.62z" style="fill:url(#y)"/><linearGradient id="z" x1="1869.267" x2="1868.789" y1="1195.49" y2="1227.136" gradientUnits="userSpaceOnUse"><stop offset="0" style="stop-color:#fbe7ff"/><stop offset="1" style="stop-color:#fad0ff"/></linearGradient><path d="M1636.129 1200.595h465.764v23.701h-465.764z" style="fill:url(#z)"/><linearGradient id="A" x1="1835.371" x2="1834.876" y1="1236.233" y2="1268.935" gradientUnits="userSpaceOnUse"><stop offset="0" style="stop-color:#fbe7ff"/><stop offset="1" style="stop-color:#fad0ff"/></linearGradient><path d="M1568.319 1241.904h533.574v23.701h-533.574z" style="fill:url(#A)"/><linearGradient id="B" x1="1835.371" x2="1834.876" y1="1277.542" y2="1310.244" gradientUnits="userSpaceOnUse"><stop offset="0" style="stop-color:#fbe7ff"/><stop offset="1" style="stop-color:#fad0ff"/></linearGradient><path d="M1568.319 1283.213h533.574v23.701h-533.574z" style="fill:url(#B)"/><linearGradient id="C" x1="1769.372" x2="1768.909" y1="1319.951" y2="1350.6" gradientUnits="userSpaceOnUse"><stop offset="0" style="stop-color:#fbe7ff"/><stop offset="1" style="stop-color:#fad0ff"/></linearGradient><path d="M1568.319 1324.522h401.611v23.701h-401.611z" style="fill:url(#C)"/><linearGradient id="D" x1="1869.267" x2="1868.789" y1="1402.034" y2="1433.681" gradientUnits="userSpaceOnUse"><stop offset="0" style="stop-color:#fbe7ff"/><stop offset="1" style="stop-color:#fad0ff"/></linearGradient><path d="M1636.129 1407.14h465.764v23.701h-465.764z" style="fill:url(#D)"/><linearGradient id="E" x1="1769.372" x2="1768.909" y1="1443.878" y2="1474.526" gradientUnits="userSpaceOnUse"><stop offset="0" style="stop-color:#fbe7ff"/><stop offset="1" style="stop-color:#fad0ff"/></linearGradient><path d="M1568.319 1448.449h401.611v23.701h-401.611z" style="fill:url(#E)"/><linearGradient id="F" x1="2369.286" x2="2335.666" y1="1331.457" y2="1462.487" gradientTransform="rotate(-20.528 2710.177 2509.482)" gradientUnits="userSpaceOnUse"><stop offset="0" style="stop-color:#ff2e2e"/><stop offset="1" style="stop-color:#730000"/></linearGradient><path d="M2016.874 1536.259c.062-4.39-1.044-8.638-4.237-12.386-5.781-6.784-15.765-9.197-23.816-5.155-8.972 4.504-13.189 15.959-9.217 25.198-4.097-9.312-17.228-11.919-25.77-7.63-9.661 4.851-13.561 16.615-8.709 26.277 5.34 10.635 19.552 13.081 29.903 15.865 1.8.484 14.599 4.632 21.712 7.175a4.884 4.884 0 0 0 6.31-3.138c3.268-10.47 6.696-20.797 10.418-31.147 1.742-4.844 3.336-10.044 3.406-15.059" style="opacity:.5;fill:url(#F)"/><linearGradient id="G" x1="2104.451" x2="2087.086" y1="1853.179" y2="1920.856" gradientTransform="rotate(12.157 3519.247 1471.27)" gradientUnits="userSpaceOnUse"><stop offset="0" style="stop-color:#ff2e2e"/><stop offset="1" style="stop-color:#730000"/></linearGradient><path d="M2069.821 1562.13c1.251-1.891 1.956-4.047 1.612-6.566-.621-4.562-4.289-8.395-8.917-8.883-5.157-.544-10.185 3.26-11.034 8.385.816-5.191-4.166-9.987-9.076-10.504-5.553-.585-10.529 3.442-11.115 8.996-.644 6.113 4.852 11.14 8.576 15.237.648.712 5.055 6.085 7.438 9.175a2.523 2.523 0 0 0 3.618.396 396 396 0 0 1 13.216-10.636c2.11-1.623 4.253-3.439 5.682-5.6" style="opacity:.5;fill:url(#G)"/><linearGradient id="H" x1="2073.872" x2="1895.052" y1="1580.338" y2="1699.551" gradientUnits="userSpaceOnUse"><stop offset="0" style="stop-color:#ff2e2e"/><stop offset="1" style="stop-color:#730000"/></linearGradient><path d="M1943.039 1637.615c8.8-8.893 17.836-17.578 27.602-25.519 4.894-3.962 10.005-7.649 15.245-11.156 5.264-3.486 10.766-6.677 16.583-9.345 2.899-1.35 5.914-2.497 8.998-3.475a51 51 0 0 1 9.558-2.064c3.291-.462 6.786-.324 10.131.399 3.352.743 6.654 2.158 9.471 4.404 1.405 1.106 2.669 2.483 3.685 3.946a19.7 19.7 0 0 1 2.449 4.787c1.204 3.404 1.431 7.218.499 10.761-.926 3.563-2.792 6.618-5.008 9.231-2.23 2.599-4.782 4.794-7.532 6.678-2.735 1.849-5.595 3.417-8.58 4.781-2.986 1.354-6.115 2.471-9.439 3.17-3.314.645-6.94.941-10.621-.222-1.819-.582-3.595-1.601-5.007-2.983-1.43-1.389-2.436-3.02-3.153-4.789-.749-1.836-.991-3.989-.641-5.96.335-1.981 1.154-3.736 2.128-5.249 1.978-3.035 4.528-5.268 7.133-7.266 5.263-3.941 10.995-6.823 16.854-9.319 11.751-5.077 24.703-7.342 37.382-6.582 3.171.198 6.325.567 9.444 1.114 3.151.571 6.29 1.48 9.136 3.077 1.391.851 2.735 1.821 3.796 3.103 1.043 1.288 1.772 2.832 2.032 4.457.363 3.304-.914 6.397-2.603 8.994 1.468-2.733 2.392-5.902 1.791-8.847a8.6 8.6 0 0 0-2.097-3.827c-1.023-1.068-2.307-1.859-3.629-2.544-2.727-1.258-5.712-1.967-8.732-2.32a83 83 0 0 0-9.225-.528 80.6 80.6 0 0 0-18.259 1.93c-2.981.676-5.936 1.461-8.823 2.451a88 88 0 0 0-8.492 3.418c-2.778 1.292-5.512 2.685-8.139 4.219-2.634 1.519-5.185 3.157-7.515 4.991-2.308 1.831-4.46 3.876-5.846 6.135-.691 1.121-1.167 2.28-1.326 3.391a5.87 5.87 0 0 0 .425 3.225c.481 1.109 1.177 2.174 1.997 2.956.83.796 1.833 1.373 2.987 1.738 2.317.736 5.147.593 7.922.015 5.589-1.241 11.139-3.953 16.032-7.239 4.783-3.243 9.088-7.651 10.451-12.734.68-2.507.544-5.205-.313-7.696a14.4 14.4 0 0 0-1.784-3.545c-.769-1.098-1.604-2.081-2.642-2.929-2.043-1.7-4.595-2.895-7.324-3.558-2.75-.642-5.593-.842-8.501-.49-2.945.268-5.884.875-8.783 1.696-2.9.814-5.779 1.793-8.589 2.989-5.644 2.337-11.061 5.307-16.38 8.467-5.31 3.197-10.505 6.607-15.525 10.262-10.103 7.257-19.61 15.392-29.223 23.401" style="opacity:.5;fill:url(#H)"/><linearGradient id="I" x1="2051.424" x2="1741.699" y1="1068.614" y2="1231.582" gradientUnits="userSpaceOnUse"><stop offset="0" style="stop-color:#ff2e2e"/><stop offset="1" style="stop-color:#730000"/></linearGradient><path d="m1892.014 1083.423 2.037-.928 1.026-.458 1.051-.392 2.115-.778 2.165-.644c2.911-.765 5.912-1.344 8.96-1.502a45.7 45.7 0 0 1 9.158.337c3.035.424 6.036 1.095 8.977 1.951 5.856 1.798 11.419 4.329 16.79 7.058 5.379 2.727 10.527 5.76 15.715 8.574 5.181 2.82 10.37 5.495 15.664 7.674 5.308 2.172 10.681 3.76 16.167 4.343 5.464.565 10.944.138 16.044-1.514 2.547-.821 5.02-1.883 7.33-3.269 1.188-.698 2.411-1.507 3.615-2.253l3.576-2.441c4.763-3.325 9.447-6.996 14.505-10.455 5.061-3.411 10.563-6.701 16.785-8.605a43.9 43.9 0 0 1 19.172-1.582c6.372.72 12.573 2.975 17.986 6.429a39.1 39.1 0 0 1 7.432 6.142c2.276 2.476 4.144 5.344 5.074 8.783.453 1.71.646 3.588.332 5.483-.297 1.894-1.189 3.729-2.434 5.135-1.242 1.41-2.724 2.396-4.192 3.154a24.7 24.7 0 0 1-4.518 1.776c-1.566.436-3.213.714-4.897.71a14 14 0 0 1-2.525-.226 12 12 0 0 1-1.221-.295 9 9 0 0 1-1.19-.383c-1.567-.578-3.117-1.503-4.271-2.888-1.14-1.397-1.734-3.239-1.613-4.968.211-3.464 2.53-6.441 5.562-7.56 1.515-.561 3.174-.58 4.666-.197 1.503.385 2.824 1.194 3.964 2.148-1.271-.774-2.656-1.364-4.083-1.543-1.422-.171-2.86.05-4.073.689-2.455 1.219-4.005 3.97-3.844 6.469.06 1.254.606 2.361 1.414 3.21.847.831 1.983 1.399 3.235 1.731 2.546.735 5.153.382 7.688-.588 2.509-.969 5.097-2.359 6.407-4.131 1.335-1.747 1.433-3.965.633-6.25-.804-2.265-2.34-4.485-4.186-6.27a33.2 33.2 0 0 0-6.556-4.861 36.4 36.4 0 0 0-7.533-3.224c-2.623-.792-5.297-1.385-8.049-1.555-5.488-.536-10.92.02-16.048 1.784-5.15 1.705-9.978 4.607-14.696 7.915-4.742 3.286-9.412 6.98-14.388 10.489l-3.806 2.569c-1.326.815-2.59 1.643-3.969 2.443a41.8 41.8 0 0 1-8.957 3.92c-6.263 1.907-12.905 2.338-19.246 1.502-6.341-.838-12.442-2.825-18.035-5.387-5.637-2.529-10.893-5.597-15.999-8.741-5.102-3.155-10.101-6.338-15.129-9.377-5.027-3.035-10.169-5.793-15.553-7.92a60 60 0 0 0-8.257-2.6c-2.814-.665-5.692-.996-8.593-1.158-5.819-.279-11.7.73-17.384 2.525" style="opacity:.6;fill:url(#I)"/><linearGradient id="J" x1="3558.366" x2="3248.641" y1="1068.614" y2="1231.582" gradientTransform="matrix(-1 0 0 1 5177.38 0)" gradientUnits="userSpaceOnUse"><stop offset="0" style="stop-color:#ff2e2e"/><stop offset="1" style="stop-color:#730000"/></linearGradient><path d="m1778.424 1083.423-2.037-.928-1.026-.458-1.051-.392-2.115-.778-2.165-.644c-2.911-.765-5.912-1.344-8.96-1.502a45.7 45.7 0 0 0-9.158.337c-3.036.424-6.036 1.095-8.977 1.951-5.856 1.798-11.419 4.329-16.79 7.058-5.379 2.727-10.527 5.76-15.715 8.574-5.181 2.82-10.37 5.495-15.664 7.674-5.308 2.172-10.681 3.76-16.167 4.343-5.464.565-10.944.138-16.044-1.514-2.547-.821-5.02-1.883-7.33-3.269-1.189-.698-2.411-1.507-3.615-2.253l-3.576-2.441c-4.763-3.325-9.447-6.996-14.505-10.455-5.061-3.411-10.563-6.701-16.785-8.605a43.9 43.9 0 0 0-19.172-1.582c-6.372.72-12.573 2.975-17.986 6.429a39 39 0 0 0-7.431 6.142c-2.276 2.476-4.144 5.344-5.074 8.783-.453 1.71-.646 3.588-.332 5.483.297 1.894 1.189 3.729 2.434 5.135 1.242 1.41 2.724 2.396 4.192 3.154 1.48.75 2.941 1.331 4.518 1.776 1.566.436 3.213.714 4.897.71a14 14 0 0 0 2.525-.226c.424-.073.824-.183 1.222-.295.4-.102.797-.221 1.19-.383 1.567-.578 3.117-1.503 4.271-2.888 1.14-1.397 1.734-3.239 1.613-4.968-.211-3.464-2.53-6.441-5.562-7.56-1.515-.561-3.174-.58-4.665-.197-1.504.385-2.825 1.194-3.964 2.148 1.271-.774 2.656-1.364 4.083-1.543 1.422-.171 2.86.05 4.073.689 2.455 1.219 4.005 3.97 3.844 6.469-.061 1.254-.607 2.361-1.414 3.21-.848.831-1.983 1.399-3.235 1.731-2.546.735-5.153.382-7.688-.588-2.509-.969-5.098-2.359-6.407-4.131-1.335-1.747-1.433-3.965-.633-6.25.805-2.265 2.34-4.485 4.186-6.27a33.2 33.2 0 0 1 6.556-4.861 36.4 36.4 0 0 1 7.533-3.224c2.622-.792 5.297-1.385 8.049-1.555 5.488-.536 10.92.02 16.048 1.784 5.15 1.705 9.978 4.607 14.696 7.915 4.742 3.286 9.412 6.98 14.388 10.489l3.806 2.569c1.326.815 2.59 1.643 3.969 2.443a41.8 41.8 0 0 0 8.957 3.92c6.263 1.907 12.905 2.338 19.246 1.502 6.341-.838 12.442-2.825 18.035-5.387 5.637-2.529 10.893-5.597 15.999-8.741 5.102-3.155 10.101-6.338 15.128-9.377 5.027-3.035 10.169-5.793 15.553-7.92a60 60 0 0 1 8.257-2.6c2.814-.665 5.692-.996 8.593-1.158 5.817-.279 11.698.73 17.382 2.525" style="opacity:.6;fill:url(#J)"/></g><linearGradient id="K" x1="2794.969" x2="2818.817" y1="1348.16" y2="1332.262" gradientTransform="matrix(-1 0 0 1 4772.685 0)" gradientUnits="userSpaceOnUse"><stop offset="0" style="stop-color:#f0877e"/><stop offset="1" style="stop-color:#fabeb2"/></linearGradient><path d="M1952.509 1340.316c-1.377.243-3.16-1.053-1.62-1.296.365-.061 1.073-.236 1.958-.479 2.228-.608 5.564-1.621 7.218-2.147.439-.135.763-.236.912-.29.533-.182 1.978-1.188 2.748-2.141.594-.709.804-1.391-.034-1.668-1.945-.648-2.269-1.864-2.107-2.431s2.431.648 3.484.567 5.071 1.553 5.071 1.553l2.829 2.377-.081.344 2.066 2.046-3.829 5.861s-3.18.297-5.571 0-6.806-1.161-9.237-.614c-1.499.338-2.701.452-3.498.371h-.01c-.486-.047-.817-.175-.972-.365l-.01-.01c-.338-.432 2.917-1.499 3.896-1.81q.16-.053.229-.074c.014-.01.02-.01.034-.014-.187.001-2.172-.012-3.482.217z" style="fill:url(#K)"/><linearGradient id="L" x1="2640.69" x2="2633.884" y1="1400.185" y2="1249.475" gradientTransform="matrix(-1 0 0 1 4772.685 0)" gradientUnits="userSpaceOnUse"><stop offset="0" style="stop-color:#e75b00"/><stop offset="1" style="stop-color:#ffa345"/></linearGradient><path d="M2119.955 1250.895c.621 7.874 8.592 16.342 13.139 22.25 5.321 6.908 12.201 13.207 17.042 20.375.83 1.226 1.203 2.316 1.249 3.316.13 3.254-3.276 5.587-5.982 8.852 17.167-6.361 12.117-18.036-5.372-38.92-17.489-20.889-15.099-41.213-15.099-41.213l-4.299 5.395c-.611 7.021-1.074 14.929-.678 19.945" style="opacity:.5;fill:url(#L)"/><linearGradient id="M" x1="2692.045" x2="2669.574" y1="1652.242" y2="1360.123" gradientTransform="matrix(-1 0 0 1 4772.685 0)" gradientUnits="userSpaceOnUse"><stop offset="0" style="stop-color:#a23200"/><stop offset="1" style="stop-color:#5c2100"/></linearGradient><path d="M2060.281 1350.963c3.231 13.235 6.259 31.876 9.117 52.793 2.954 21.64 5.722 45.721 8.338 68.785 4.186 36.898 7.987 71.18 11.546 88.652 7.92 38.948 18.691 85.762 18.691 85.762s15.303 7.685 19.511-5.787c-2.062-17.878-4.869-111.332 1.412-186.584 6.276-75.253-19.392-108.75-19.392-108.75s-61.148-43.722-49.223 5.129" style="fill:url(#M)"/><linearGradient id="N" x1="2698.052" x2="2698.052" y1="1177.026" y2="1217.697" gradientTransform="matrix(-1 0 0 1 4772.685 0)" gradientUnits="userSpaceOnUse"><stop offset="0" style="stop-color:#f0877e"/><stop offset="1" style="stop-color:#fabeb2"/></linearGradient><path d="M2066.389 1172.96s5.578 31.141-7.617 33.545c0 0 16.336 17.401 31.722-6.314 0 0-3.074-16.251 0-28.988z" style="fill:url(#N)"/><linearGradient id="O" x1="-1725.64" x2="-1728.423" y1="1238.777" y2="1221.306" gradientTransform="translate(3767.879)" gradientUnits="userSpaceOnUse"><stop offset="0" style="stop-color:#e75b00"/><stop offset="1" style="stop-color:#ffa345"/></linearGradient><path d="M2043.736 1215.941c-.114.316-3.862 10.622-7.206 19.226 2.27-7.931 4.932-15.916 7.206-19.226" style="fill:url(#O)"/><linearGradient id="P" x1="-1714.478" x2="-1714.565" y1="1274.741" y2="1274.196" gradientTransform="translate(3767.879)" gradientUnits="userSpaceOnUse"><stop offset="0" style="stop-color:#e75b00"/><stop offset="1" style="stop-color:#ffa345"/></linearGradient><path d="M2052.648 1274.156c.135.034.606.16 1.373.345-.564-.101-1.028-.214-1.373-.345" style="opacity:.3;fill:url(#P)"/><linearGradient id="Q" x1="2711.74" x2="2689.376" y1="1649.183" y2="1358.458" gradientTransform="matrix(-1 0 0 1 4772.685 0)" gradientUnits="userSpaceOnUse"><stop offset="0" style="stop-color:#a23200"/><stop offset="1" style="stop-color:#5c2100"/></linearGradient><path d="M2069.398 1403.756c2.954 21.64 5.722 45.721 8.338 68.785 17.805-28.843 7.586-84.297 7.586-84.297z" style="opacity:.5;fill:url(#Q)"/><linearGradient id="R" x1="2734.24" x2="2711.877" y1="1647.668" y2="1356.942" gradientTransform="matrix(-1 0 0 1 4772.685 0)" gradientUnits="userSpaceOnUse"><stop offset="0" style="stop-color:#a23200"/><stop offset="1" style="stop-color:#5c2100"/></linearGradient><path d="M2062.904 1509.512a17.1 17.1 0 0 0-.108 7.611c9.676 45.639-7.827 128.772-7.827 128.772-11.196 5.503-18.237-.631-18.237-.631.523-50.978-7.632-59.708-9.676-161.064-1.456-72.031 5.049-112.142 8.937-129.32 1.577-6.993 2.726-10.185 2.726-10.185l27.325-7.943s1.054 1.227 2.687 3.456c4.363 5.965 12.837 19.088 16.185 34.957.972 4.6 1.512 9.438 1.395 14.397-.596 24.974-18.954 101.67-23.407 119.95" style="fill:url(#R)"/><linearGradient id="S" x1="2701.881" x2="2695.074" y1="1397.421" y2="1246.711" gradientTransform="matrix(-1 0 0 1 4772.685 0)" gradientUnits="userSpaceOnUse"><stop offset="0" style="stop-color:#e75b00"/><stop offset="1" style="stop-color:#ffa345"/></linearGradient><path d="M2028.851 1257.928c0 4.276.904 8.315 2.497 11.857 1.48 3.299 2.757 6.677 3.768 10.134l.01.011a68 68 0 0 1 2.288 11.185c.028.203.045.418.073.621q.086.753.164 1.514c.243 2.226.469 4.468.684 6.699v.017c1.751 17.664 2.389 35.164.587 44.529.085.045.689.384 1.785.892.011.01.023.01.034.011 6.067 2.802 26.837 10.682 56.6 3.903a118 118 0 0 0 12.162-3.469s0-.01.01-.023c.141-.503 2.277-8.479 4.965-20.465 2.502-11.156 5.49-25.787 7.778-41.112l.017-.096c.588-3.915 1.124-7.88 1.599-11.84.011-.073.017-.147.028-.22v-.01c.288-2.435.559-4.858.796-7.276.045-.452.091-.909.124-1.356 1.486-15.805 1.684-31.006-.672-42.597-.599-2.96-2.355-5.558-4.841-7.276-6.648-4.598-20.646-13.54-28.809-13.376 0 0-4.175 3.79-18.381 4.338-8.36 0-6.609-3.446-6.264-4.276-1.209 2.666-5.383 5.18-7.666 6.637a37 37 0 0 1-3.785 2.124c-.017.017-.028.023-.045.023-.209.107-.424.209-.633.305-.01 0-.023.011-.028.017-3.095 1.536-8.027 3.971-9.902 6.954-.407.655-.678 1.378-.949 2.096-1.926 5.157-4.033 10.332-5.875 15.579-1.226 3.48-2.785 6.818-4.581 10.038-2.23 4.007-3.53 8.78-3.53 13.904z" style="fill:url(#S)"/><linearGradient id="T" x1="2794.207" x2="2795.466" y1="1259.934" y2="1259.148" gradientTransform="matrix(-1 0 0 1 4772.685 0)" gradientUnits="userSpaceOnUse"><stop offset="0" style="stop-color:#f0877e"/><stop offset="1" style="stop-color:#fabeb2"/></linearGradient><path d="M1977.634 1259.182c-.085.102-.158.203-.232.305.39.164.616.254.655.271-.011-.023-.051-.073-.107-.153-.073-.096-.18-.242-.316-.423" style="fill:url(#T)"/><linearGradient id="U" x1="2836.349" x2="2837.005" y1="1206.151" y2="1205.742" gradientTransform="matrix(-1 0 0 1 4772.685 0)" gradientUnits="userSpaceOnUse"><stop offset="0" style="stop-color:#f0877e"/><stop offset="1" style="stop-color:#fabeb2"/></linearGradient><path d="M1936.466 1205.501" style="fill:url(#U)"/><linearGradient id="V" x1="2795.013" x2="2794.895" y1="1259.969" y2="1259.263" gradientTransform="matrix(-1 0 0 1 4772.685 0)" gradientUnits="userSpaceOnUse"><stop offset="0" style="stop-color:#e75b00"/><stop offset="1" style="stop-color:#ffa345"/></linearGradient><path d="M1977.402 1259.487c.39.164.616.254.655.271-.011-.023-.051-.073-.107-.153-.073-.096-.181-.243-.316-.424-.085.102-.158.204-.232.306" style="fill:url(#V)"/><linearGradient id="W" x1="2848.798" x2="2848.757" y1="1209.391" y2="1209.159" gradientTransform="matrix(-1 0 0 1 4772.685 0)" gradientUnits="userSpaceOnUse"><stop offset="0" style="stop-color:#f0877e"/><stop offset="1" style="stop-color:#fabeb2"/></linearGradient><path d="M1923.541 1209.139c.226.13.469.243.723.328a4.6 4.6 0 0 1-.723-.328" style="fill:url(#W)"/><linearGradient id="X" x1="2794.586" x2="2795.34" y1="1260.262" y2="1258.956" gradientTransform="matrix(-1 0 0 1 4772.685 0)" gradientUnits="userSpaceOnUse"><stop offset="0" style="stop-color:#f0877e"/><stop offset="1" style="stop-color:#fabeb2"/></linearGradient><path d="M1977.634 1259.182c-.085.102-.158.203-.232.305.39.164.616.254.655.271-.011-.023-.051-.073-.107-.153-.073-.096-.18-.242-.316-.423" style="fill:url(#X)"/><linearGradient id="Y" x1="2836.554" x2="2836.83" y1="1206.189" y2="1205.71" gradientTransform="matrix(-1 0 0 1 4772.685 0)" gradientUnits="userSpaceOnUse"><stop offset="0" style="stop-color:#f0877e"/><stop offset="1" style="stop-color:#fabeb2"/></linearGradient><path d="M1936.466 1205.501" style="fill:url(#Y)"/><linearGradient id="Z" x1="2694.938" x2="2688.132" y1="1397.735" y2="1247.024" gradientTransform="matrix(-1 0 0 1 4772.685 0)" gradientUnits="userSpaceOnUse"><stop offset="0" style="stop-color:#e75b00"/><stop offset="1" style="stop-color:#ffa345"/></linearGradient><path d="M2040.736 1345.399c6.067 2.802 26.837 10.682 56.6 3.903a118 118 0 0 0 12.162-3.469s0-.01.01-.023c.141-.503 2.277-8.479 4.965-20.465 2.502-11.156 5.49-25.787 7.778-41.112-.514 2.723-11.857 60.719-47.614 61.939-22.452.769-30.801-.033-33.897-.773z" style="opacity:.5;fill:url(#Z)"/><linearGradient id="aa" x1="2737.016" x2="2730.21" y1="1395.834" y2="1245.124" gradientTransform="matrix(-1 0 0 1 4772.685 0)" gradientUnits="userSpaceOnUse"><stop offset="0" style="stop-color:#e75b00"/><stop offset="1" style="stop-color:#ffa345"/></linearGradient><path d="M2035.121 1279.93a68 68 0 0 1 2.288 11.185c.028.203.045.418.073.621q.086.753.164 1.514c7.129 4.321 8.355 20.635 7.62 11.264-.802-10.231-9.862-24.155-10.145-24.584" style="fill:url(#aa)"/><linearGradient id="ab" x1="2744.488" x2="2737.683" y1="1395.48" y2="1244.799" gradientTransform="matrix(-1 0 0 1 4772.685 0)" gradientUnits="userSpaceOnUse"><stop offset="0" style="stop-color:#e75b00"/><stop offset="1" style="stop-color:#ffa345"/></linearGradient><path d="M2032.165 1308.479a.5.5 0 0 1-.014-.115c-.074 0-.087.027.014.115" style="fill:url(#ab)"/><linearGradient id="ac" x1="2755.881" x2="2749.075" y1="1394.982" y2="1244.272" gradientTransform="matrix(-1 0 0 1 4772.685 0)" gradientUnits="userSpaceOnUse"><stop offset="0" style="stop-color:#e75b00"/><stop offset="1" style="stop-color:#ffa345"/></linearGradient><path d="M1971.212 1341.147c-.027.405-.331 1.114-.088 1.465 3.585-.878 16.064-2.586 18.083-3.079 7.434-1.803 9.912-1.931 15.895-3.673.263-.047.526-.088.79-.135h.01c.912-.155 1.79-.297 2.654-.439 2.012-.324 3.943-.608 6.023-.891 1.087-.142 2.215-.29 3.41-.439a63 63 0 0 1 3.349-.324 175 175 0 0 1 3.572-.229 260 260 0 0 0 2.208-.115c.486-.034.972-.054 1.465-.081 1.931-.108 3.876-.243 5.793-.459a55 55 0 0 0 4.274-.635q.519-.104 1.026-.216a31 31 0 0 0 2.552-.669l.385-.122c3.099-.993 5.922-2.492 8.244-4.794q.202-.204.405-.419a17 17 0 0 0 1.506-1.83q.314-.435.608-.871c.52-.77 1-1.533 1.452-2.302 1.269-2.147 2.296-4.301 3.194-6.482.122-.297.236-.594.358-.891a94 94 0 0 0 1.614-4.504c.472-1.411.925-2.836 1.391-4.281a280 280 0 0 1 1.647-5.057 104 104 0 0 1 1.823-4.902c.979-2.411 1.897-5.064 2.748-7.853a129.6 129.6 0 0 0 3.91-16.968q.242-1.49.432-2.937c.01-.034.01-.068.014-.101.473-3.694.533-7.488-.587-11.141-4.484-14.565-13.68-27.846-22.377-40.264-5.672 18.083-14.983 51.088-17.009 75.436-.56 6.597-.574 12.559.169 17.421.176-.01.709.162.608.088-.142-.108.284-.034.148-.01-.128.02-.486.304-.648.385-.182-.203.115-.169-.094-.351-.959-.804-2.883-.939-5.247-.675-6.664.722-16.826 4.565-18.764 5.301-8.42 3.221-13.423 5.679-20.662 8.623-2.809 1.141-5.152 2.086-7.752 2.931a107 107 0 0 1-9.602 7.326c.864 2.894 1.276 6.04 1.073 9.16z" style="fill:url(#ac)"/><linearGradient id="ad" x1="2738.483" x2="2731.676" y1="1395.768" y2="1245.057" gradientTransform="matrix(-1 0 0 1 4772.685 0)" gradientUnits="userSpaceOnUse"><stop offset="0" style="stop-color:#e75b00"/><stop offset="1" style="stop-color:#ffa345"/></linearGradient><path d="M2004.914 1336.05c4.802-1.13 8.247-1.463 13.06-2.082 11.597-1.491 27.242.649 34.793-9.905 6.663-9.312 7.738-18.638 12.101-29.291 3.277-8.001 5.721-18.633 7.14-27.855-2.444-.182-5.608-6.194-7.042 1.163-3.089 15.851-1.852 43.58-17.522 54.016-15.424 10.272-26.899 8.601-42.53 13.954" style="opacity:.5;fill:url(#ad)"/><linearGradient id="ae" x1="2645.268" x2="2647.013" y1="1342.94" y2="1334.045" gradientTransform="matrix(-1 0 0 1 4772.685 0)" gradientUnits="userSpaceOnUse"><stop offset="0" style="stop-color:#f0877e"/><stop offset="1" style="stop-color:#fabeb2"/></linearGradient><path d="M2122.528 1333.403s-2.166 2.154-5.447 3.968 1.957 1.77 4.045 1.162 12.342 4.818 16.282 1.847z" style="fill:url(#ae)"/><linearGradient id="af" x1="2681.102" x2="2709.387" y1="1496.801" y2="1391.376" gradientTransform="scale(-1 1)rotate(-9.695 -1479.492 29454.04)" gradientUnits="userSpaceOnUse"><stop offset="0" style="stop-color:#5c2100"/><stop offset="1" style="stop-color:#a23200"/></linearGradient><path d="m2091.197 1106.854-.541-.154c-33.156-9.153-59.062 11.917-57.684 46.033.299 7.406 1.841 50.379 12.966 50.354 9.6-.021 9.503-12.985 62.58-6.524 23.943 2.915 31.689-22.494 20.569-41.144-2.745-4.603-6.194-8.762-8.856-13.415-8.374-14.633-10.987-29.884-29.034-35.15" style="fill:url(#af)"/><linearGradient id="ag" x1="2759.036" x2="2703.75" y1="1213.417" y2="1222.417" gradientTransform="scale(-1 1)rotate(-2.809 -1452.517 98591.296)" gradientUnits="userSpaceOnUse"><stop offset="0" style="stop-color:#ffa345"/><stop offset="1" style="stop-color:#e75100"/></linearGradient><path d="M2014.246 1141.886c.338 1.125 8.114 1.393 19.522.869 15.22-.707 36.915-2.824 56.038-6.194q1.143-.203 2.279-.407c.01 0 .012-.01.018-.01q2.461-.45 4.843-.93l-.017-.013-7.83-6.201-14.898-11.792-37.776 14.91-2.194.864c-.01 0-.01.01-.012 0-.001-.001-20.824 6.075-19.973 8.894z" style="fill:url(#ag)"/><linearGradient id="ah" x1="2740.876" x2="2637.161" y1="1186.491" y2="1247.349" gradientTransform="scale(-1 1)rotate(-2.809 -1452.517 98591.296)" gradientUnits="userSpaceOnUse"><stop offset="0" style="stop-color:#ffa345"/><stop offset="1" style="stop-color:#e75100"/></linearGradient><path d="M2034.218 1132.991s-1.072 4.971-.45 9.77c.013.102.086.189.213.273 4.48 2.955 78.362-4.497 80.791-12.578.01-.024.01-.035.01-.035s-3.203-13.912-9.02-27.016c-1.749-3.953-3.739-7.836-5.957-11.234-.011-.013-.011-.019-.011-.019-10.234-6.283-44.443-6.133-63.304 5.981 0-.001-2.995 27.415-2.27 34.858z" style="fill:url(#ah)"/><linearGradient id="ai" x1="2720.39" x2="2673.974" y1="1200.551" y2="1232.993" gradientTransform="scale(-1 1)rotate(-2.809 -1452.517 98591.296)" gradientUnits="userSpaceOnUse"><stop offset="0" style="stop-color:#e75100"/><stop offset="1" style="stop-color:#ffa345"/></linearGradient><path d="m2033.768 1142.76.213.273c4.48 2.955 78.362-4.497 80.791-12.578.01-.024.01-.035.01-.035s-3.203-13.912-9.02-27.016c1.732 9.03 4.249 24.154-6.379 28.334-20.636 8.117-43.512 11.452-65.613 11.022z" style="opacity:.5;fill:url(#ai)"/></g></svg>